G04 #@! TF.GenerationSoftware,KiCad,Pcbnew,(5.1.0)-1*
G04 #@! TF.CreationDate,2019-07-31T11:01:26-04:00*
G04 #@! TF.ProjectId,Inline SCART Splitter,496e6c69-6e65-4205-9343-415254205370,rev?*
G04 #@! TF.SameCoordinates,Original*
G04 #@! TF.FileFunction,Legend,Bot*
G04 #@! TF.FilePolarity,Positive*
%FSLAX46Y46*%
G04 Gerber Fmt 4.6, Leading zero omitted, Abs format (unit mm)*
G04 Created by KiCad (PCBNEW (5.1.0)-1) date 2019-07-31 11:01:26*
%MOMM*%
%LPD*%
G04 APERTURE LIST*
%ADD10C,0.120000*%
%ADD11C,0.150000*%
G04 APERTURE END LIST*
D10*
X131150000Y-61610000D02*
X122915000Y-61610000D01*
X122915000Y-61610000D02*
X122915000Y-57090000D01*
X122915000Y-57090000D02*
X131150000Y-57090000D01*
X113496267Y-27940000D02*
X113153733Y-27940000D01*
X113496267Y-28960000D02*
X113153733Y-28960000D01*
X113496267Y-27460000D02*
X113153733Y-27460000D01*
X113496267Y-26440000D02*
X113153733Y-26440000D01*
X107440000Y-36540000D02*
X108640000Y-36540000D01*
X111960000Y-36540000D02*
X110760000Y-36540000D01*
X111960000Y-39995563D02*
X111960000Y-36540000D01*
X107440000Y-39995563D02*
X107440000Y-36540000D01*
X108504437Y-41060000D02*
X108640000Y-41060000D01*
X110895563Y-41060000D02*
X110760000Y-41060000D01*
X110895563Y-41060000D02*
X111960000Y-39995563D01*
X108504437Y-41060000D02*
X107440000Y-39995563D01*
X111260000Y-41800000D02*
X111260000Y-41300000D01*
X111510000Y-41550000D02*
X111010000Y-41550000D01*
X150953733Y-26510000D02*
X151296267Y-26510000D01*
X150953733Y-25490000D02*
X151296267Y-25490000D01*
X141578733Y-25490000D02*
X141921267Y-25490000D01*
X141578733Y-26510000D02*
X141921267Y-26510000D01*
X133953733Y-26510000D02*
X134296267Y-26510000D01*
X133953733Y-25490000D02*
X134296267Y-25490000D01*
X126353733Y-25390000D02*
X126696267Y-25390000D01*
X126353733Y-26410000D02*
X126696267Y-26410000D01*
X147415000Y-57090000D02*
X155650000Y-57090000D01*
X147415000Y-61610000D02*
X147415000Y-57090000D01*
X155650000Y-61610000D02*
X147415000Y-61610000D01*
X144300000Y-61610000D02*
X136065000Y-61610000D01*
X136065000Y-61610000D02*
X136065000Y-57090000D01*
X136065000Y-57090000D02*
X144300000Y-57090000D01*
X109865000Y-57090000D02*
X118100000Y-57090000D01*
X109865000Y-61610000D02*
X109865000Y-57090000D01*
X118100000Y-61610000D02*
X109865000Y-61610000D01*
X155350000Y-46960000D02*
X147115000Y-46960000D01*
X147115000Y-46960000D02*
X147115000Y-42440000D01*
X147115000Y-42440000D02*
X155350000Y-42440000D01*
X136065000Y-42440000D02*
X144300000Y-42440000D01*
X136065000Y-46960000D02*
X136065000Y-42440000D01*
X144300000Y-46960000D02*
X136065000Y-46960000D01*
X131150000Y-46960000D02*
X122915000Y-46960000D01*
X122915000Y-46960000D02*
X122915000Y-42440000D01*
X122915000Y-42440000D02*
X131150000Y-42440000D01*
X109715000Y-42440000D02*
X117950000Y-42440000D01*
X109715000Y-46960000D02*
X109715000Y-42440000D01*
X117950000Y-46960000D02*
X109715000Y-46960000D01*
X111753733Y-34710000D02*
X112096267Y-34710000D01*
X111753733Y-33690000D02*
X112096267Y-33690000D01*
X151296267Y-28010000D02*
X150953733Y-28010000D01*
X151296267Y-26990000D02*
X150953733Y-26990000D01*
X141921267Y-26990000D02*
X141578733Y-26990000D01*
X141921267Y-28010000D02*
X141578733Y-28010000D01*
X134296267Y-28010000D02*
X133953733Y-28010000D01*
X134296267Y-26990000D02*
X133953733Y-26990000D01*
X126696267Y-26890000D02*
X126353733Y-26890000D01*
X126696267Y-27910000D02*
X126353733Y-27910000D01*
X141603733Y-28490000D02*
X141946267Y-28490000D01*
X141603733Y-29510000D02*
X141946267Y-29510000D01*
X133953733Y-29510000D02*
X134296267Y-29510000D01*
X133953733Y-28490000D02*
X134296267Y-28490000D01*
X126353733Y-29410000D02*
X126696267Y-29410000D01*
X126353733Y-28390000D02*
X126696267Y-28390000D01*
X145790000Y-59371267D02*
X145790000Y-59028733D01*
X146810000Y-59371267D02*
X146810000Y-59028733D01*
X134196267Y-59860000D02*
X133853733Y-59860000D01*
X134196267Y-58840000D02*
X133853733Y-58840000D01*
X121171267Y-58840000D02*
X120828733Y-58840000D01*
X121171267Y-59860000D02*
X120828733Y-59860000D01*
X107996267Y-59860000D02*
X107653733Y-59860000D01*
X107996267Y-58840000D02*
X107653733Y-58840000D01*
X146610000Y-44671267D02*
X146610000Y-44328733D01*
X145590000Y-44671267D02*
X145590000Y-44328733D01*
X134196267Y-44190000D02*
X133853733Y-44190000D01*
X134196267Y-45210000D02*
X133853733Y-45210000D01*
X120971267Y-45210000D02*
X120628733Y-45210000D01*
X120971267Y-44190000D02*
X120628733Y-44190000D01*
X107971267Y-44190000D02*
X107628733Y-44190000D01*
X107971267Y-45210000D02*
X107628733Y-45210000D01*
D11*
X121625000Y-25425000D02*
X121625000Y-25550000D01*
X116975000Y-25425000D02*
X116975000Y-25650000D01*
X116975000Y-30675000D02*
X116975000Y-30450000D01*
X121625000Y-30675000D02*
X121625000Y-30450000D01*
X121625000Y-25425000D02*
X116975000Y-25425000D01*
X121625000Y-30675000D02*
X116975000Y-30675000D01*
X121625000Y-25550000D02*
X122975000Y-25550000D01*
D10*
X150953733Y-29510000D02*
X151296267Y-29510000D01*
X150953733Y-28490000D02*
X151296267Y-28490000D01*
D11*
X126957142Y-54757142D02*
X127004761Y-54709523D01*
X127052380Y-54566666D01*
X127052380Y-54471428D01*
X127004761Y-54328571D01*
X126909523Y-54233333D01*
X126814285Y-54185714D01*
X126623809Y-54138095D01*
X126480952Y-54138095D01*
X126290476Y-54185714D01*
X126195238Y-54233333D01*
X126100000Y-54328571D01*
X126052380Y-54471428D01*
X126052380Y-54566666D01*
X126100000Y-54709523D01*
X126147619Y-54757142D01*
X127052380Y-55709523D02*
X127052380Y-55138095D01*
X127052380Y-55423809D02*
X126052380Y-55423809D01*
X126195238Y-55328571D01*
X126290476Y-55233333D01*
X126338095Y-55138095D01*
X126052380Y-56328571D02*
X126052380Y-56423809D01*
X126100000Y-56519047D01*
X126147619Y-56566666D01*
X126242857Y-56614285D01*
X126433333Y-56661904D01*
X126671428Y-56661904D01*
X126861904Y-56614285D01*
X126957142Y-56566666D01*
X127004761Y-56519047D01*
X127052380Y-56423809D01*
X127052380Y-56328571D01*
X127004761Y-56233333D01*
X126957142Y-56185714D01*
X126861904Y-56138095D01*
X126671428Y-56090476D01*
X126433333Y-56090476D01*
X126242857Y-56138095D01*
X126147619Y-56185714D01*
X126100000Y-56233333D01*
X126052380Y-56328571D01*
X110766666Y-28857142D02*
X110814285Y-28904761D01*
X110957142Y-28952380D01*
X111052380Y-28952380D01*
X111195238Y-28904761D01*
X111290476Y-28809523D01*
X111338095Y-28714285D01*
X111385714Y-28523809D01*
X111385714Y-28380952D01*
X111338095Y-28190476D01*
X111290476Y-28095238D01*
X111195238Y-28000000D01*
X111052380Y-27952380D01*
X110957142Y-27952380D01*
X110814285Y-28000000D01*
X110766666Y-28047619D01*
X109814285Y-28952380D02*
X110385714Y-28952380D01*
X110100000Y-28952380D02*
X110100000Y-27952380D01*
X110195238Y-28095238D01*
X110290476Y-28190476D01*
X110385714Y-28238095D01*
X110866666Y-27257142D02*
X110914285Y-27304761D01*
X111057142Y-27352380D01*
X111152380Y-27352380D01*
X111295238Y-27304761D01*
X111390476Y-27209523D01*
X111438095Y-27114285D01*
X111485714Y-26923809D01*
X111485714Y-26780952D01*
X111438095Y-26590476D01*
X111390476Y-26495238D01*
X111295238Y-26400000D01*
X111152380Y-26352380D01*
X111057142Y-26352380D01*
X110914285Y-26400000D01*
X110866666Y-26447619D01*
X110485714Y-26447619D02*
X110438095Y-26400000D01*
X110342857Y-26352380D01*
X110104761Y-26352380D01*
X110009523Y-26400000D01*
X109961904Y-26447619D01*
X109914285Y-26542857D01*
X109914285Y-26638095D01*
X109961904Y-26780952D01*
X110533333Y-27352380D01*
X109914285Y-27352380D01*
X113266666Y-37457142D02*
X113314285Y-37504761D01*
X113457142Y-37552380D01*
X113552380Y-37552380D01*
X113695238Y-37504761D01*
X113790476Y-37409523D01*
X113838095Y-37314285D01*
X113885714Y-37123809D01*
X113885714Y-36980952D01*
X113838095Y-36790476D01*
X113790476Y-36695238D01*
X113695238Y-36600000D01*
X113552380Y-36552380D01*
X113457142Y-36552380D01*
X113314285Y-36600000D01*
X113266666Y-36647619D01*
X112933333Y-36552380D02*
X112314285Y-36552380D01*
X112647619Y-36933333D01*
X112504761Y-36933333D01*
X112409523Y-36980952D01*
X112361904Y-37028571D01*
X112314285Y-37123809D01*
X112314285Y-37361904D01*
X112361904Y-37457142D01*
X112409523Y-37504761D01*
X112504761Y-37552380D01*
X112790476Y-37552380D01*
X112885714Y-37504761D01*
X112933333Y-37457142D01*
X153966666Y-26357142D02*
X154014285Y-26404761D01*
X154157142Y-26452380D01*
X154252380Y-26452380D01*
X154395238Y-26404761D01*
X154490476Y-26309523D01*
X154538095Y-26214285D01*
X154585714Y-26023809D01*
X154585714Y-25880952D01*
X154538095Y-25690476D01*
X154490476Y-25595238D01*
X154395238Y-25500000D01*
X154252380Y-25452380D01*
X154157142Y-25452380D01*
X154014285Y-25500000D01*
X153966666Y-25547619D01*
X153109523Y-25785714D02*
X153109523Y-26452380D01*
X153347619Y-25404761D02*
X153585714Y-26119047D01*
X152966666Y-26119047D01*
X144566666Y-26357142D02*
X144614285Y-26404761D01*
X144757142Y-26452380D01*
X144852380Y-26452380D01*
X144995238Y-26404761D01*
X145090476Y-26309523D01*
X145138095Y-26214285D01*
X145185714Y-26023809D01*
X145185714Y-25880952D01*
X145138095Y-25690476D01*
X145090476Y-25595238D01*
X144995238Y-25500000D01*
X144852380Y-25452380D01*
X144757142Y-25452380D01*
X144614285Y-25500000D01*
X144566666Y-25547619D01*
X143661904Y-25452380D02*
X144138095Y-25452380D01*
X144185714Y-25928571D01*
X144138095Y-25880952D01*
X144042857Y-25833333D01*
X143804761Y-25833333D01*
X143709523Y-25880952D01*
X143661904Y-25928571D01*
X143614285Y-26023809D01*
X143614285Y-26261904D01*
X143661904Y-26357142D01*
X143709523Y-26404761D01*
X143804761Y-26452380D01*
X144042857Y-26452380D01*
X144138095Y-26404761D01*
X144185714Y-26357142D01*
X136966666Y-26457142D02*
X137014285Y-26504761D01*
X137157142Y-26552380D01*
X137252380Y-26552380D01*
X137395238Y-26504761D01*
X137490476Y-26409523D01*
X137538095Y-26314285D01*
X137585714Y-26123809D01*
X137585714Y-25980952D01*
X137538095Y-25790476D01*
X137490476Y-25695238D01*
X137395238Y-25600000D01*
X137252380Y-25552380D01*
X137157142Y-25552380D01*
X137014285Y-25600000D01*
X136966666Y-25647619D01*
X136109523Y-25552380D02*
X136300000Y-25552380D01*
X136395238Y-25600000D01*
X136442857Y-25647619D01*
X136538095Y-25790476D01*
X136585714Y-25980952D01*
X136585714Y-26361904D01*
X136538095Y-26457142D01*
X136490476Y-26504761D01*
X136395238Y-26552380D01*
X136204761Y-26552380D01*
X136109523Y-26504761D01*
X136061904Y-26457142D01*
X136014285Y-26361904D01*
X136014285Y-26123809D01*
X136061904Y-26028571D01*
X136109523Y-25980952D01*
X136204761Y-25933333D01*
X136395238Y-25933333D01*
X136490476Y-25980952D01*
X136538095Y-26028571D01*
X136585714Y-26123809D01*
X129466666Y-26257142D02*
X129514285Y-26304761D01*
X129657142Y-26352380D01*
X129752380Y-26352380D01*
X129895238Y-26304761D01*
X129990476Y-26209523D01*
X130038095Y-26114285D01*
X130085714Y-25923809D01*
X130085714Y-25780952D01*
X130038095Y-25590476D01*
X129990476Y-25495238D01*
X129895238Y-25400000D01*
X129752380Y-25352380D01*
X129657142Y-25352380D01*
X129514285Y-25400000D01*
X129466666Y-25447619D01*
X129133333Y-25352380D02*
X128466666Y-25352380D01*
X128895238Y-26352380D01*
X149957142Y-55733333D02*
X150004761Y-55685714D01*
X150052380Y-55542857D01*
X150052380Y-55447619D01*
X150004761Y-55304761D01*
X149909523Y-55209523D01*
X149814285Y-55161904D01*
X149623809Y-55114285D01*
X149480952Y-55114285D01*
X149290476Y-55161904D01*
X149195238Y-55209523D01*
X149100000Y-55304761D01*
X149052380Y-55447619D01*
X149052380Y-55542857D01*
X149100000Y-55685714D01*
X149147619Y-55733333D01*
X149480952Y-56304761D02*
X149433333Y-56209523D01*
X149385714Y-56161904D01*
X149290476Y-56114285D01*
X149242857Y-56114285D01*
X149147619Y-56161904D01*
X149100000Y-56209523D01*
X149052380Y-56304761D01*
X149052380Y-56495238D01*
X149100000Y-56590476D01*
X149147619Y-56638095D01*
X149242857Y-56685714D01*
X149290476Y-56685714D01*
X149385714Y-56638095D01*
X149433333Y-56590476D01*
X149480952Y-56495238D01*
X149480952Y-56304761D01*
X149528571Y-56209523D01*
X149576190Y-56161904D01*
X149671428Y-56114285D01*
X149861904Y-56114285D01*
X149957142Y-56161904D01*
X150004761Y-56209523D01*
X150052380Y-56304761D01*
X150052380Y-56495238D01*
X150004761Y-56590476D01*
X149957142Y-56638095D01*
X149861904Y-56685714D01*
X149671428Y-56685714D01*
X149576190Y-56638095D01*
X149528571Y-56590476D01*
X149480952Y-56495238D01*
X138557142Y-55633333D02*
X138604761Y-55585714D01*
X138652380Y-55442857D01*
X138652380Y-55347619D01*
X138604761Y-55204761D01*
X138509523Y-55109523D01*
X138414285Y-55061904D01*
X138223809Y-55014285D01*
X138080952Y-55014285D01*
X137890476Y-55061904D01*
X137795238Y-55109523D01*
X137700000Y-55204761D01*
X137652380Y-55347619D01*
X137652380Y-55442857D01*
X137700000Y-55585714D01*
X137747619Y-55633333D01*
X138652380Y-56109523D02*
X138652380Y-56300000D01*
X138604761Y-56395238D01*
X138557142Y-56442857D01*
X138414285Y-56538095D01*
X138223809Y-56585714D01*
X137842857Y-56585714D01*
X137747619Y-56538095D01*
X137700000Y-56490476D01*
X137652380Y-56395238D01*
X137652380Y-56204761D01*
X137700000Y-56109523D01*
X137747619Y-56061904D01*
X137842857Y-56014285D01*
X138080952Y-56014285D01*
X138176190Y-56061904D01*
X138223809Y-56109523D01*
X138271428Y-56204761D01*
X138271428Y-56395238D01*
X138223809Y-56490476D01*
X138176190Y-56538095D01*
X138080952Y-56585714D01*
X115557142Y-54757142D02*
X115604761Y-54709523D01*
X115652380Y-54566666D01*
X115652380Y-54471428D01*
X115604761Y-54328571D01*
X115509523Y-54233333D01*
X115414285Y-54185714D01*
X115223809Y-54138095D01*
X115080952Y-54138095D01*
X114890476Y-54185714D01*
X114795238Y-54233333D01*
X114700000Y-54328571D01*
X114652380Y-54471428D01*
X114652380Y-54566666D01*
X114700000Y-54709523D01*
X114747619Y-54757142D01*
X115652380Y-55709523D02*
X115652380Y-55138095D01*
X115652380Y-55423809D02*
X114652380Y-55423809D01*
X114795238Y-55328571D01*
X114890476Y-55233333D01*
X114938095Y-55138095D01*
X115652380Y-56661904D02*
X115652380Y-56090476D01*
X115652380Y-56376190D02*
X114652380Y-56376190D01*
X114795238Y-56280952D01*
X114890476Y-56185714D01*
X114938095Y-56090476D01*
X150057142Y-39957142D02*
X150104761Y-39909523D01*
X150152380Y-39766666D01*
X150152380Y-39671428D01*
X150104761Y-39528571D01*
X150009523Y-39433333D01*
X149914285Y-39385714D01*
X149723809Y-39338095D01*
X149580952Y-39338095D01*
X149390476Y-39385714D01*
X149295238Y-39433333D01*
X149200000Y-39528571D01*
X149152380Y-39671428D01*
X149152380Y-39766666D01*
X149200000Y-39909523D01*
X149247619Y-39957142D01*
X150152380Y-40909523D02*
X150152380Y-40338095D01*
X150152380Y-40623809D02*
X149152380Y-40623809D01*
X149295238Y-40528571D01*
X149390476Y-40433333D01*
X149438095Y-40338095D01*
X149247619Y-41290476D02*
X149200000Y-41338095D01*
X149152380Y-41433333D01*
X149152380Y-41671428D01*
X149200000Y-41766666D01*
X149247619Y-41814285D01*
X149342857Y-41861904D01*
X149438095Y-41861904D01*
X149580952Y-41814285D01*
X150152380Y-41242857D01*
X150152380Y-41861904D01*
X138557142Y-40057142D02*
X138604761Y-40009523D01*
X138652380Y-39866666D01*
X138652380Y-39771428D01*
X138604761Y-39628571D01*
X138509523Y-39533333D01*
X138414285Y-39485714D01*
X138223809Y-39438095D01*
X138080952Y-39438095D01*
X137890476Y-39485714D01*
X137795238Y-39533333D01*
X137700000Y-39628571D01*
X137652380Y-39771428D01*
X137652380Y-39866666D01*
X137700000Y-40009523D01*
X137747619Y-40057142D01*
X138652380Y-41009523D02*
X138652380Y-40438095D01*
X138652380Y-40723809D02*
X137652380Y-40723809D01*
X137795238Y-40628571D01*
X137890476Y-40533333D01*
X137938095Y-40438095D01*
X137652380Y-41342857D02*
X137652380Y-41961904D01*
X138033333Y-41628571D01*
X138033333Y-41771428D01*
X138080952Y-41866666D01*
X138128571Y-41914285D01*
X138223809Y-41961904D01*
X138461904Y-41961904D01*
X138557142Y-41914285D01*
X138604761Y-41866666D01*
X138652380Y-41771428D01*
X138652380Y-41485714D01*
X138604761Y-41390476D01*
X138557142Y-41342857D01*
X127157142Y-40057142D02*
X127204761Y-40009523D01*
X127252380Y-39866666D01*
X127252380Y-39771428D01*
X127204761Y-39628571D01*
X127109523Y-39533333D01*
X127014285Y-39485714D01*
X126823809Y-39438095D01*
X126680952Y-39438095D01*
X126490476Y-39485714D01*
X126395238Y-39533333D01*
X126300000Y-39628571D01*
X126252380Y-39771428D01*
X126252380Y-39866666D01*
X126300000Y-40009523D01*
X126347619Y-40057142D01*
X127252380Y-41009523D02*
X127252380Y-40438095D01*
X127252380Y-40723809D02*
X126252380Y-40723809D01*
X126395238Y-40628571D01*
X126490476Y-40533333D01*
X126538095Y-40438095D01*
X126585714Y-41866666D02*
X127252380Y-41866666D01*
X126204761Y-41628571D02*
X126919047Y-41390476D01*
X126919047Y-42009523D01*
X115757142Y-40157142D02*
X115804761Y-40109523D01*
X115852380Y-39966666D01*
X115852380Y-39871428D01*
X115804761Y-39728571D01*
X115709523Y-39633333D01*
X115614285Y-39585714D01*
X115423809Y-39538095D01*
X115280952Y-39538095D01*
X115090476Y-39585714D01*
X114995238Y-39633333D01*
X114900000Y-39728571D01*
X114852380Y-39871428D01*
X114852380Y-39966666D01*
X114900000Y-40109523D01*
X114947619Y-40157142D01*
X115852380Y-41109523D02*
X115852380Y-40538095D01*
X115852380Y-40823809D02*
X114852380Y-40823809D01*
X114995238Y-40728571D01*
X115090476Y-40633333D01*
X115138095Y-40538095D01*
X114852380Y-42014285D02*
X114852380Y-41538095D01*
X115328571Y-41490476D01*
X115280952Y-41538095D01*
X115233333Y-41633333D01*
X115233333Y-41871428D01*
X115280952Y-41966666D01*
X115328571Y-42014285D01*
X115423809Y-42061904D01*
X115661904Y-42061904D01*
X115757142Y-42014285D01*
X115804761Y-41966666D01*
X115852380Y-41871428D01*
X115852380Y-41633333D01*
X115804761Y-41538095D01*
X115757142Y-41490476D01*
X112758333Y-35558571D02*
X113091666Y-35558571D01*
X113091666Y-36082380D02*
X113091666Y-35082380D01*
X112615476Y-35082380D01*
X111901190Y-35558571D02*
X111758333Y-35606190D01*
X111710714Y-35653809D01*
X111663095Y-35749047D01*
X111663095Y-35891904D01*
X111710714Y-35987142D01*
X111758333Y-36034761D01*
X111853571Y-36082380D01*
X112234523Y-36082380D01*
X112234523Y-35082380D01*
X111901190Y-35082380D01*
X111805952Y-35130000D01*
X111758333Y-35177619D01*
X111710714Y-35272857D01*
X111710714Y-35368095D01*
X111758333Y-35463333D01*
X111805952Y-35510952D01*
X111901190Y-35558571D01*
X112234523Y-35558571D01*
X110710714Y-36082380D02*
X111282142Y-36082380D01*
X110996428Y-36082380D02*
X110996428Y-35082380D01*
X111091666Y-35225238D01*
X111186904Y-35320476D01*
X111282142Y-35368095D01*
X153966666Y-27952380D02*
X154300000Y-27476190D01*
X154538095Y-27952380D02*
X154538095Y-26952380D01*
X154157142Y-26952380D01*
X154061904Y-27000000D01*
X154014285Y-27047619D01*
X153966666Y-27142857D01*
X153966666Y-27285714D01*
X154014285Y-27380952D01*
X154061904Y-27428571D01*
X154157142Y-27476190D01*
X154538095Y-27476190D01*
X153014285Y-27952380D02*
X153585714Y-27952380D01*
X153300000Y-27952380D02*
X153300000Y-26952380D01*
X153395238Y-27095238D01*
X153490476Y-27190476D01*
X153585714Y-27238095D01*
X144566666Y-27952380D02*
X144900000Y-27476190D01*
X145138095Y-27952380D02*
X145138095Y-26952380D01*
X144757142Y-26952380D01*
X144661904Y-27000000D01*
X144614285Y-27047619D01*
X144566666Y-27142857D01*
X144566666Y-27285714D01*
X144614285Y-27380952D01*
X144661904Y-27428571D01*
X144757142Y-27476190D01*
X145138095Y-27476190D01*
X144185714Y-27047619D02*
X144138095Y-27000000D01*
X144042857Y-26952380D01*
X143804761Y-26952380D01*
X143709523Y-27000000D01*
X143661904Y-27047619D01*
X143614285Y-27142857D01*
X143614285Y-27238095D01*
X143661904Y-27380952D01*
X144233333Y-27952380D01*
X143614285Y-27952380D01*
X136966666Y-27952380D02*
X137300000Y-27476190D01*
X137538095Y-27952380D02*
X137538095Y-26952380D01*
X137157142Y-26952380D01*
X137061904Y-27000000D01*
X137014285Y-27047619D01*
X136966666Y-27142857D01*
X136966666Y-27285714D01*
X137014285Y-27380952D01*
X137061904Y-27428571D01*
X137157142Y-27476190D01*
X137538095Y-27476190D01*
X136633333Y-26952380D02*
X136014285Y-26952380D01*
X136347619Y-27333333D01*
X136204761Y-27333333D01*
X136109523Y-27380952D01*
X136061904Y-27428571D01*
X136014285Y-27523809D01*
X136014285Y-27761904D01*
X136061904Y-27857142D01*
X136109523Y-27904761D01*
X136204761Y-27952380D01*
X136490476Y-27952380D01*
X136585714Y-27904761D01*
X136633333Y-27857142D01*
X129466666Y-27852380D02*
X129800000Y-27376190D01*
X130038095Y-27852380D02*
X130038095Y-26852380D01*
X129657142Y-26852380D01*
X129561904Y-26900000D01*
X129514285Y-26947619D01*
X129466666Y-27042857D01*
X129466666Y-27185714D01*
X129514285Y-27280952D01*
X129561904Y-27328571D01*
X129657142Y-27376190D01*
X130038095Y-27376190D01*
X128609523Y-27185714D02*
X128609523Y-27852380D01*
X128847619Y-26804761D02*
X129085714Y-27519047D01*
X128466666Y-27519047D01*
X144566666Y-29452380D02*
X144900000Y-28976190D01*
X145138095Y-29452380D02*
X145138095Y-28452380D01*
X144757142Y-28452380D01*
X144661904Y-28500000D01*
X144614285Y-28547619D01*
X144566666Y-28642857D01*
X144566666Y-28785714D01*
X144614285Y-28880952D01*
X144661904Y-28928571D01*
X144757142Y-28976190D01*
X145138095Y-28976190D01*
X143709523Y-28452380D02*
X143900000Y-28452380D01*
X143995238Y-28500000D01*
X144042857Y-28547619D01*
X144138095Y-28690476D01*
X144185714Y-28880952D01*
X144185714Y-29261904D01*
X144138095Y-29357142D01*
X144090476Y-29404761D01*
X143995238Y-29452380D01*
X143804761Y-29452380D01*
X143709523Y-29404761D01*
X143661904Y-29357142D01*
X143614285Y-29261904D01*
X143614285Y-29023809D01*
X143661904Y-28928571D01*
X143709523Y-28880952D01*
X143804761Y-28833333D01*
X143995238Y-28833333D01*
X144090476Y-28880952D01*
X144138095Y-28928571D01*
X144185714Y-29023809D01*
X136966666Y-29452380D02*
X137300000Y-28976190D01*
X137538095Y-29452380D02*
X137538095Y-28452380D01*
X137157142Y-28452380D01*
X137061904Y-28500000D01*
X137014285Y-28547619D01*
X136966666Y-28642857D01*
X136966666Y-28785714D01*
X137014285Y-28880952D01*
X137061904Y-28928571D01*
X137157142Y-28976190D01*
X137538095Y-28976190D01*
X136633333Y-28452380D02*
X135966666Y-28452380D01*
X136395238Y-29452380D01*
X129466666Y-29352380D02*
X129800000Y-28876190D01*
X130038095Y-29352380D02*
X130038095Y-28352380D01*
X129657142Y-28352380D01*
X129561904Y-28400000D01*
X129514285Y-28447619D01*
X129466666Y-28542857D01*
X129466666Y-28685714D01*
X129514285Y-28780952D01*
X129561904Y-28828571D01*
X129657142Y-28876190D01*
X130038095Y-28876190D01*
X128895238Y-28780952D02*
X128990476Y-28733333D01*
X129038095Y-28685714D01*
X129085714Y-28590476D01*
X129085714Y-28542857D01*
X129038095Y-28447619D01*
X128990476Y-28400000D01*
X128895238Y-28352380D01*
X128704761Y-28352380D01*
X128609523Y-28400000D01*
X128561904Y-28447619D01*
X128514285Y-28542857D01*
X128514285Y-28590476D01*
X128561904Y-28685714D01*
X128609523Y-28733333D01*
X128704761Y-28780952D01*
X128895238Y-28780952D01*
X128990476Y-28828571D01*
X129038095Y-28876190D01*
X129085714Y-28971428D01*
X129085714Y-29161904D01*
X129038095Y-29257142D01*
X128990476Y-29304761D01*
X128895238Y-29352380D01*
X128704761Y-29352380D01*
X128609523Y-29304761D01*
X128561904Y-29257142D01*
X128514285Y-29161904D01*
X128514285Y-28971428D01*
X128561904Y-28876190D01*
X128609523Y-28828571D01*
X128704761Y-28780952D01*
X146152380Y-55733333D02*
X145676190Y-55400000D01*
X146152380Y-55161904D02*
X145152380Y-55161904D01*
X145152380Y-55542857D01*
X145200000Y-55638095D01*
X145247619Y-55685714D01*
X145342857Y-55733333D01*
X145485714Y-55733333D01*
X145580952Y-55685714D01*
X145628571Y-55638095D01*
X145676190Y-55542857D01*
X145676190Y-55161904D01*
X146152380Y-56209523D02*
X146152380Y-56400000D01*
X146104761Y-56495238D01*
X146057142Y-56542857D01*
X145914285Y-56638095D01*
X145723809Y-56685714D01*
X145342857Y-56685714D01*
X145247619Y-56638095D01*
X145200000Y-56590476D01*
X145152380Y-56495238D01*
X145152380Y-56304761D01*
X145200000Y-56209523D01*
X145247619Y-56161904D01*
X145342857Y-56114285D01*
X145580952Y-56114285D01*
X145676190Y-56161904D01*
X145723809Y-56209523D01*
X145771428Y-56304761D01*
X145771428Y-56495238D01*
X145723809Y-56590476D01*
X145676190Y-56638095D01*
X145580952Y-56685714D01*
X134667857Y-58372380D02*
X135001190Y-57896190D01*
X135239285Y-58372380D02*
X135239285Y-57372380D01*
X134858333Y-57372380D01*
X134763095Y-57420000D01*
X134715476Y-57467619D01*
X134667857Y-57562857D01*
X134667857Y-57705714D01*
X134715476Y-57800952D01*
X134763095Y-57848571D01*
X134858333Y-57896190D01*
X135239285Y-57896190D01*
X133715476Y-58372380D02*
X134286904Y-58372380D01*
X134001190Y-58372380D02*
X134001190Y-57372380D01*
X134096428Y-57515238D01*
X134191666Y-57610476D01*
X134286904Y-57658095D01*
X133096428Y-57372380D02*
X133001190Y-57372380D01*
X132905952Y-57420000D01*
X132858333Y-57467619D01*
X132810714Y-57562857D01*
X132763095Y-57753333D01*
X132763095Y-57991428D01*
X132810714Y-58181904D01*
X132858333Y-58277142D01*
X132905952Y-58324761D01*
X133001190Y-58372380D01*
X133096428Y-58372380D01*
X133191666Y-58324761D01*
X133239285Y-58277142D01*
X133286904Y-58181904D01*
X133334523Y-57991428D01*
X133334523Y-57753333D01*
X133286904Y-57562857D01*
X133239285Y-57467619D01*
X133191666Y-57420000D01*
X133096428Y-57372380D01*
X121642857Y-58372380D02*
X121976190Y-57896190D01*
X122214285Y-58372380D02*
X122214285Y-57372380D01*
X121833333Y-57372380D01*
X121738095Y-57420000D01*
X121690476Y-57467619D01*
X121642857Y-57562857D01*
X121642857Y-57705714D01*
X121690476Y-57800952D01*
X121738095Y-57848571D01*
X121833333Y-57896190D01*
X122214285Y-57896190D01*
X120690476Y-58372380D02*
X121261904Y-58372380D01*
X120976190Y-58372380D02*
X120976190Y-57372380D01*
X121071428Y-57515238D01*
X121166666Y-57610476D01*
X121261904Y-57658095D01*
X119738095Y-58372380D02*
X120309523Y-58372380D01*
X120023809Y-58372380D02*
X120023809Y-57372380D01*
X120119047Y-57515238D01*
X120214285Y-57610476D01*
X120309523Y-57658095D01*
X108467857Y-58372380D02*
X108801190Y-57896190D01*
X109039285Y-58372380D02*
X109039285Y-57372380D01*
X108658333Y-57372380D01*
X108563095Y-57420000D01*
X108515476Y-57467619D01*
X108467857Y-57562857D01*
X108467857Y-57705714D01*
X108515476Y-57800952D01*
X108563095Y-57848571D01*
X108658333Y-57896190D01*
X109039285Y-57896190D01*
X107515476Y-58372380D02*
X108086904Y-58372380D01*
X107801190Y-58372380D02*
X107801190Y-57372380D01*
X107896428Y-57515238D01*
X107991666Y-57610476D01*
X108086904Y-57658095D01*
X107134523Y-57467619D02*
X107086904Y-57420000D01*
X106991666Y-57372380D01*
X106753571Y-57372380D01*
X106658333Y-57420000D01*
X106610714Y-57467619D01*
X106563095Y-57562857D01*
X106563095Y-57658095D01*
X106610714Y-57800952D01*
X107182142Y-58372380D01*
X106563095Y-58372380D01*
X146352380Y-40457142D02*
X145876190Y-40123809D01*
X146352380Y-39885714D02*
X145352380Y-39885714D01*
X145352380Y-40266666D01*
X145400000Y-40361904D01*
X145447619Y-40409523D01*
X145542857Y-40457142D01*
X145685714Y-40457142D01*
X145780952Y-40409523D01*
X145828571Y-40361904D01*
X145876190Y-40266666D01*
X145876190Y-39885714D01*
X146352380Y-41409523D02*
X146352380Y-40838095D01*
X146352380Y-41123809D02*
X145352380Y-41123809D01*
X145495238Y-41028571D01*
X145590476Y-40933333D01*
X145638095Y-40838095D01*
X145352380Y-41742857D02*
X145352380Y-42361904D01*
X145733333Y-42028571D01*
X145733333Y-42171428D01*
X145780952Y-42266666D01*
X145828571Y-42314285D01*
X145923809Y-42361904D01*
X146161904Y-42361904D01*
X146257142Y-42314285D01*
X146304761Y-42266666D01*
X146352380Y-42171428D01*
X146352380Y-41885714D01*
X146304761Y-41790476D01*
X146257142Y-41742857D01*
X134667857Y-43722380D02*
X135001190Y-43246190D01*
X135239285Y-43722380D02*
X135239285Y-42722380D01*
X134858333Y-42722380D01*
X134763095Y-42770000D01*
X134715476Y-42817619D01*
X134667857Y-42912857D01*
X134667857Y-43055714D01*
X134715476Y-43150952D01*
X134763095Y-43198571D01*
X134858333Y-43246190D01*
X135239285Y-43246190D01*
X133715476Y-43722380D02*
X134286904Y-43722380D01*
X134001190Y-43722380D02*
X134001190Y-42722380D01*
X134096428Y-42865238D01*
X134191666Y-42960476D01*
X134286904Y-43008095D01*
X132858333Y-43055714D02*
X132858333Y-43722380D01*
X133096428Y-42674761D02*
X133334523Y-43389047D01*
X132715476Y-43389047D01*
X121442857Y-43722380D02*
X121776190Y-43246190D01*
X122014285Y-43722380D02*
X122014285Y-42722380D01*
X121633333Y-42722380D01*
X121538095Y-42770000D01*
X121490476Y-42817619D01*
X121442857Y-42912857D01*
X121442857Y-43055714D01*
X121490476Y-43150952D01*
X121538095Y-43198571D01*
X121633333Y-43246190D01*
X122014285Y-43246190D01*
X120490476Y-43722380D02*
X121061904Y-43722380D01*
X120776190Y-43722380D02*
X120776190Y-42722380D01*
X120871428Y-42865238D01*
X120966666Y-42960476D01*
X121061904Y-43008095D01*
X119585714Y-42722380D02*
X120061904Y-42722380D01*
X120109523Y-43198571D01*
X120061904Y-43150952D01*
X119966666Y-43103333D01*
X119728571Y-43103333D01*
X119633333Y-43150952D01*
X119585714Y-43198571D01*
X119538095Y-43293809D01*
X119538095Y-43531904D01*
X119585714Y-43627142D01*
X119633333Y-43674761D01*
X119728571Y-43722380D01*
X119966666Y-43722380D01*
X120061904Y-43674761D01*
X120109523Y-43627142D01*
X108442857Y-43722380D02*
X108776190Y-43246190D01*
X109014285Y-43722380D02*
X109014285Y-42722380D01*
X108633333Y-42722380D01*
X108538095Y-42770000D01*
X108490476Y-42817619D01*
X108442857Y-42912857D01*
X108442857Y-43055714D01*
X108490476Y-43150952D01*
X108538095Y-43198571D01*
X108633333Y-43246190D01*
X109014285Y-43246190D01*
X107490476Y-43722380D02*
X108061904Y-43722380D01*
X107776190Y-43722380D02*
X107776190Y-42722380D01*
X107871428Y-42865238D01*
X107966666Y-42960476D01*
X108061904Y-43008095D01*
X106633333Y-42722380D02*
X106823809Y-42722380D01*
X106919047Y-42770000D01*
X106966666Y-42817619D01*
X107061904Y-42960476D01*
X107109523Y-43150952D01*
X107109523Y-43531904D01*
X107061904Y-43627142D01*
X107014285Y-43674761D01*
X106919047Y-43722380D01*
X106728571Y-43722380D01*
X106633333Y-43674761D01*
X106585714Y-43627142D01*
X106538095Y-43531904D01*
X106538095Y-43293809D01*
X106585714Y-43198571D01*
X106633333Y-43150952D01*
X106728571Y-43103333D01*
X106919047Y-43103333D01*
X107014285Y-43150952D01*
X107061904Y-43198571D01*
X107109523Y-43293809D01*
X120061904Y-23952380D02*
X120061904Y-24761904D01*
X120014285Y-24857142D01*
X119966666Y-24904761D01*
X119871428Y-24952380D01*
X119680952Y-24952380D01*
X119585714Y-24904761D01*
X119538095Y-24857142D01*
X119490476Y-24761904D01*
X119490476Y-23952380D01*
X118490476Y-24952380D02*
X119061904Y-24952380D01*
X118776190Y-24952380D02*
X118776190Y-23952380D01*
X118871428Y-24095238D01*
X118966666Y-24190476D01*
X119061904Y-24238095D01*
X153966666Y-29452380D02*
X154300000Y-28976190D01*
X154538095Y-29452380D02*
X154538095Y-28452380D01*
X154157142Y-28452380D01*
X154061904Y-28500000D01*
X154014285Y-28547619D01*
X153966666Y-28642857D01*
X153966666Y-28785714D01*
X154014285Y-28880952D01*
X154061904Y-28928571D01*
X154157142Y-28976190D01*
X154538095Y-28976190D01*
X153061904Y-28452380D02*
X153538095Y-28452380D01*
X153585714Y-28928571D01*
X153538095Y-28880952D01*
X153442857Y-28833333D01*
X153204761Y-28833333D01*
X153109523Y-28880952D01*
X153061904Y-28928571D01*
X153014285Y-29023809D01*
X153014285Y-29261904D01*
X153061904Y-29357142D01*
X153109523Y-29404761D01*
X153204761Y-29452380D01*
X153442857Y-29452380D01*
X153538095Y-29404761D01*
X153585714Y-29357142D01*
M02*
