M48
; DRILL file {KiCad (5.1.0)-1} date 7/31/2019 11:01:29 AM
; FORMAT={-:-/ absolute / inch / decimal}
; #@! TF.CreationDate,2019-07-31T11:01:29-04:00
; #@! TF.GenerationSoftware,Kicad,Pcbnew,(5.1.0)-1
FMAT,2
INCH
T1C0.0157
T2C0.0236
T3C0.0335
T4C0.0512
T5C0.0520
T6C0.0787
T7C0.1190
T8C0.1260
%
G90
G05
T1
X4.3307Y-1.2244
X4.3898Y-1.5984
X4.3937Y-1.6496
X4.4409Y-1.2992
X4.4606Y-1.1693
X4.5079Y-1.2323
X4.5669Y-1.2362
X4.6339Y-2.4173
X4.689Y-1.5866
X4.7087Y-1.2283
X4.7165Y-1.0433
X4.7402Y-2.4173
X4.752Y-1.6811
X4.815Y-1.7126
X4.9016Y-1.2244
X5.0512Y-2.4134
X5.0787Y-1.1378
X5.1772Y-1.0079
X5.189Y-1.8386
X5.2913Y-1.7047
X5.3504Y-2.4134
X5.3701Y-1.1378
X5.4646Y-1.0
X5.5315Y-1.7047
X5.6496Y-2.4134
X5.6732Y-1.1378
X5.9488Y-2.4173
X5.9528Y-1.7283
X5.9921Y-2.3386
X6.0384Y-1.1378
T3
X6.2141Y-1.5276
X6.2141Y-1.7244
T4
X4.3839Y-1.9433
X4.4593Y-2.1433
X4.5339Y-1.9433
X4.6093Y-2.1433
X4.6839Y-1.9433
X4.7593Y-2.1433
X4.8339Y-1.9433
X4.9093Y-2.1433
X4.9839Y-1.9433
X5.0593Y-2.1433
X5.1339Y-1.9433
X5.2093Y-2.1433
X5.2839Y-1.9433
X5.3593Y-2.1433
X5.4339Y-1.9433
X5.5093Y-2.1433
X5.5839Y-1.9433
X5.6593Y-2.1433
X5.7339Y-1.9433
X5.8093Y-2.1433
X5.8839Y-1.9433
T5
X4.4665Y-1.5701
X4.5415Y-1.3701
X4.6165Y-1.5701
X4.6915Y-1.3701
X4.7665Y-1.5701
X4.8415Y-1.3701
X4.9165Y-1.5701
X4.9915Y-1.3701
X5.0665Y-1.5701
X5.1415Y-1.3701
X5.2165Y-1.5701
X5.2915Y-1.3701
X5.3665Y-1.5701
X5.4415Y-1.3701
X5.5165Y-1.5701
X5.5915Y-1.3701
X5.6665Y-1.5701
X5.7415Y-1.3701
X5.8165Y-1.5701
X5.8915Y-1.3701
X5.9665Y-1.5701
T7
X4.1765Y-1.2401
X4.1765Y-1.3801
X6.2565Y-1.2401
X6.2565Y-1.3801
T8
X4.1752Y-1.0453
X6.2579Y-2.4862
X6.2579Y-1.0453
X4.1752Y-2.4862
T2
G00X6.3066Y-1.4882
M15
G01X6.3342Y-1.4882
M16
G05
G00X6.3342Y-1.7638
M15
G01X6.3066Y-1.7638
M16
G05
T6
G00X4.252Y-2.1378
M15
G01X4.252Y-1.9488
M16
G05
G00X6.0157Y-2.1378
M15
G01X6.0157Y-1.9488
M16
G05
T0
M30
