G04 #@! TF.GenerationSoftware,KiCad,Pcbnew,(5.1.0)-1*
G04 #@! TF.CreationDate,2019-07-06T13:17:58-04:00*
G04 #@! TF.ProjectId,Inline SCART Splitter,496e6c69-6e65-4205-9343-415254205370,rev?*
G04 #@! TF.SameCoordinates,Original*
G04 #@! TF.FileFunction,Soldermask,Bot*
G04 #@! TF.FilePolarity,Negative*
%FSLAX46Y46*%
G04 Gerber Fmt 4.6, Leading zero omitted, Abs format (unit mm)*
G04 Created by KiCad (PCBNEW (5.1.0)-1) date 2019-07-06 13:17:58*
%MOMM*%
%LPD*%
G04 APERTURE LIST*
%ADD10C,0.100000*%
G04 APERTURE END LIST*
D10*
G36*
X152376000Y-66151000D02*
G01*
X149774000Y-66151000D01*
X149774000Y-62049000D01*
X152376000Y-62049000D01*
X152376000Y-66151000D01*
X152376000Y-66151000D01*
G37*
G36*
X148576000Y-66151000D02*
G01*
X145974000Y-66151000D01*
X145974000Y-62049000D01*
X148576000Y-62049000D01*
X148576000Y-66151000D01*
X148576000Y-66151000D01*
G37*
G36*
X144776000Y-66151000D02*
G01*
X142174000Y-66151000D01*
X142174000Y-62049000D01*
X144776000Y-62049000D01*
X144776000Y-66151000D01*
X144776000Y-66151000D01*
G37*
G36*
X140976000Y-66151000D02*
G01*
X138374000Y-66151000D01*
X138374000Y-62049000D01*
X140976000Y-62049000D01*
X140976000Y-66151000D01*
X140976000Y-66151000D01*
G37*
G36*
X137176000Y-66151000D02*
G01*
X134574000Y-66151000D01*
X134574000Y-62049000D01*
X137176000Y-62049000D01*
X137176000Y-66151000D01*
X137176000Y-66151000D01*
G37*
G36*
X133376000Y-66151000D02*
G01*
X130774000Y-66151000D01*
X130774000Y-62049000D01*
X133376000Y-62049000D01*
X133376000Y-66151000D01*
X133376000Y-66151000D01*
G37*
G36*
X129576000Y-66151000D02*
G01*
X126974000Y-66151000D01*
X126974000Y-62049000D01*
X129576000Y-62049000D01*
X129576000Y-66151000D01*
X129576000Y-66151000D01*
G37*
G36*
X125776000Y-66151000D02*
G01*
X123174000Y-66151000D01*
X123174000Y-62049000D01*
X125776000Y-62049000D01*
X125776000Y-66151000D01*
X125776000Y-66151000D01*
G37*
G36*
X121976000Y-66151000D02*
G01*
X119374000Y-66151000D01*
X119374000Y-62049000D01*
X121976000Y-62049000D01*
X121976000Y-66151000D01*
X121976000Y-66151000D01*
G37*
G36*
X118176000Y-66151000D02*
G01*
X115574000Y-66151000D01*
X115574000Y-62049000D01*
X118176000Y-62049000D01*
X118176000Y-66151000D01*
X118176000Y-66151000D01*
G37*
G36*
X114376000Y-66151000D02*
G01*
X111774000Y-66151000D01*
X111774000Y-62049000D01*
X114376000Y-62049000D01*
X114376000Y-66151000D01*
X114376000Y-66151000D01*
G37*
G36*
X106425256Y-61541298D02*
G01*
X106531579Y-61562447D01*
X106832042Y-61686903D01*
X107102451Y-61867585D01*
X107332415Y-62097549D01*
X107513097Y-62367958D01*
X107637553Y-62668421D01*
X107701000Y-62987391D01*
X107701000Y-63312609D01*
X107637553Y-63631579D01*
X107513097Y-63932042D01*
X107332415Y-64202451D01*
X107102451Y-64432415D01*
X106832042Y-64613097D01*
X106531579Y-64737553D01*
X106425256Y-64758702D01*
X106212611Y-64801000D01*
X105887389Y-64801000D01*
X105674744Y-64758702D01*
X105568421Y-64737553D01*
X105267958Y-64613097D01*
X104997549Y-64432415D01*
X104767585Y-64202451D01*
X104586903Y-63932042D01*
X104462447Y-63631579D01*
X104399000Y-63312609D01*
X104399000Y-62987391D01*
X104462447Y-62668421D01*
X104586903Y-62367958D01*
X104767585Y-62097549D01*
X104997549Y-61867585D01*
X105267958Y-61686903D01*
X105568421Y-61562447D01*
X105674744Y-61541298D01*
X105887389Y-61499000D01*
X106212611Y-61499000D01*
X106425256Y-61541298D01*
X106425256Y-61541298D01*
G37*
G36*
X159325256Y-61541298D02*
G01*
X159431579Y-61562447D01*
X159732042Y-61686903D01*
X160002451Y-61867585D01*
X160232415Y-62097549D01*
X160413097Y-62367958D01*
X160537553Y-62668421D01*
X160601000Y-62987391D01*
X160601000Y-63312609D01*
X160537553Y-63631579D01*
X160413097Y-63932042D01*
X160232415Y-64202451D01*
X160002451Y-64432415D01*
X159732042Y-64613097D01*
X159431579Y-64737553D01*
X159325256Y-64758702D01*
X159112611Y-64801000D01*
X158787389Y-64801000D01*
X158574744Y-64758702D01*
X158468421Y-64737553D01*
X158167958Y-64613097D01*
X157897549Y-64432415D01*
X157667585Y-64202451D01*
X157486903Y-63932042D01*
X157362447Y-63631579D01*
X157299000Y-63312609D01*
X157299000Y-62987391D01*
X157362447Y-62668421D01*
X157486903Y-62367958D01*
X157667585Y-62097549D01*
X157897549Y-61867585D01*
X158167958Y-61686903D01*
X158468421Y-61562447D01*
X158574744Y-61541298D01*
X158787389Y-61499000D01*
X159112611Y-61499000D01*
X159325256Y-61541298D01*
X159325256Y-61541298D01*
G37*
G36*
X112293786Y-58027746D02*
G01*
X112324461Y-58037051D01*
X112352729Y-58052161D01*
X112377506Y-58072494D01*
X112397839Y-58097271D01*
X112412949Y-58125539D01*
X112422254Y-58156214D01*
X112426000Y-58194251D01*
X112426000Y-60505749D01*
X112422254Y-60543786D01*
X112412949Y-60574461D01*
X112397839Y-60602729D01*
X112377506Y-60627506D01*
X112352729Y-60647839D01*
X112324461Y-60662949D01*
X112293786Y-60672254D01*
X112255749Y-60676000D01*
X110244251Y-60676000D01*
X110206214Y-60672254D01*
X110175539Y-60662949D01*
X110147271Y-60647839D01*
X110122494Y-60627506D01*
X110102161Y-60602729D01*
X110087051Y-60574461D01*
X110077746Y-60543786D01*
X110074000Y-60505749D01*
X110074000Y-58194251D01*
X110077746Y-58156214D01*
X110087051Y-58125539D01*
X110102161Y-58097271D01*
X110122494Y-58072494D01*
X110147271Y-58052161D01*
X110175539Y-58037051D01*
X110206214Y-58027746D01*
X110244251Y-58024000D01*
X112255749Y-58024000D01*
X112293786Y-58027746D01*
X112293786Y-58027746D01*
G37*
G36*
X125343786Y-58027746D02*
G01*
X125374461Y-58037051D01*
X125402729Y-58052161D01*
X125427506Y-58072494D01*
X125447839Y-58097271D01*
X125462949Y-58125539D01*
X125472254Y-58156214D01*
X125476000Y-58194251D01*
X125476000Y-60505749D01*
X125472254Y-60543786D01*
X125462949Y-60574461D01*
X125447839Y-60602729D01*
X125427506Y-60627506D01*
X125402729Y-60647839D01*
X125374461Y-60662949D01*
X125343786Y-60672254D01*
X125305749Y-60676000D01*
X123294251Y-60676000D01*
X123256214Y-60672254D01*
X123225539Y-60662949D01*
X123197271Y-60647839D01*
X123172494Y-60627506D01*
X123152161Y-60602729D01*
X123137051Y-60574461D01*
X123127746Y-60543786D01*
X123124000Y-60505749D01*
X123124000Y-58194251D01*
X123127746Y-58156214D01*
X123137051Y-58125539D01*
X123152161Y-58097271D01*
X123172494Y-58072494D01*
X123197271Y-58052161D01*
X123225539Y-58037051D01*
X123256214Y-58027746D01*
X123294251Y-58024000D01*
X125305749Y-58024000D01*
X125343786Y-58027746D01*
X125343786Y-58027746D01*
G37*
G36*
X156243786Y-58027746D02*
G01*
X156274461Y-58037051D01*
X156302729Y-58052161D01*
X156327506Y-58072494D01*
X156347839Y-58097271D01*
X156362949Y-58125539D01*
X156372254Y-58156214D01*
X156376000Y-58194251D01*
X156376000Y-60505749D01*
X156372254Y-60543786D01*
X156362949Y-60574461D01*
X156347839Y-60602729D01*
X156327506Y-60627506D01*
X156302729Y-60647839D01*
X156274461Y-60662949D01*
X156243786Y-60672254D01*
X156205749Y-60676000D01*
X154194251Y-60676000D01*
X154156214Y-60672254D01*
X154125539Y-60662949D01*
X154097271Y-60647839D01*
X154072494Y-60627506D01*
X154052161Y-60602729D01*
X154037051Y-60574461D01*
X154027746Y-60543786D01*
X154024000Y-60505749D01*
X154024000Y-58194251D01*
X154027746Y-58156214D01*
X154037051Y-58125539D01*
X154052161Y-58097271D01*
X154072494Y-58072494D01*
X154097271Y-58052161D01*
X154125539Y-58037051D01*
X154156214Y-58027746D01*
X154194251Y-58024000D01*
X156205749Y-58024000D01*
X156243786Y-58027746D01*
X156243786Y-58027746D01*
G37*
G36*
X118693786Y-58027746D02*
G01*
X118724461Y-58037051D01*
X118752729Y-58052161D01*
X118777506Y-58072494D01*
X118797839Y-58097271D01*
X118812949Y-58125539D01*
X118822254Y-58156214D01*
X118826000Y-58194251D01*
X118826000Y-60505749D01*
X118822254Y-60543786D01*
X118812949Y-60574461D01*
X118797839Y-60602729D01*
X118777506Y-60627506D01*
X118752729Y-60647839D01*
X118724461Y-60662949D01*
X118693786Y-60672254D01*
X118655749Y-60676000D01*
X116644251Y-60676000D01*
X116606214Y-60672254D01*
X116575539Y-60662949D01*
X116547271Y-60647839D01*
X116522494Y-60627506D01*
X116502161Y-60602729D01*
X116487051Y-60574461D01*
X116477746Y-60543786D01*
X116474000Y-60505749D01*
X116474000Y-58194251D01*
X116477746Y-58156214D01*
X116487051Y-58125539D01*
X116502161Y-58097271D01*
X116522494Y-58072494D01*
X116547271Y-58052161D01*
X116575539Y-58037051D01*
X116606214Y-58027746D01*
X116644251Y-58024000D01*
X118655749Y-58024000D01*
X118693786Y-58027746D01*
X118693786Y-58027746D01*
G37*
G36*
X149843786Y-58027746D02*
G01*
X149874461Y-58037051D01*
X149902729Y-58052161D01*
X149927506Y-58072494D01*
X149947839Y-58097271D01*
X149962949Y-58125539D01*
X149972254Y-58156214D01*
X149976000Y-58194251D01*
X149976000Y-60505749D01*
X149972254Y-60543786D01*
X149962949Y-60574461D01*
X149947839Y-60602729D01*
X149927506Y-60627506D01*
X149902729Y-60647839D01*
X149874461Y-60662949D01*
X149843786Y-60672254D01*
X149805749Y-60676000D01*
X147794251Y-60676000D01*
X147756214Y-60672254D01*
X147725539Y-60662949D01*
X147697271Y-60647839D01*
X147672494Y-60627506D01*
X147652161Y-60602729D01*
X147637051Y-60574461D01*
X147627746Y-60543786D01*
X147624000Y-60505749D01*
X147624000Y-58194251D01*
X147627746Y-58156214D01*
X147637051Y-58125539D01*
X147652161Y-58097271D01*
X147672494Y-58072494D01*
X147697271Y-58052161D01*
X147725539Y-58037051D01*
X147756214Y-58027746D01*
X147794251Y-58024000D01*
X149805749Y-58024000D01*
X149843786Y-58027746D01*
X149843786Y-58027746D01*
G37*
G36*
X144893786Y-58027746D02*
G01*
X144924461Y-58037051D01*
X144952729Y-58052161D01*
X144977506Y-58072494D01*
X144997839Y-58097271D01*
X145012949Y-58125539D01*
X145022254Y-58156214D01*
X145026000Y-58194251D01*
X145026000Y-60505749D01*
X145022254Y-60543786D01*
X145012949Y-60574461D01*
X144997839Y-60602729D01*
X144977506Y-60627506D01*
X144952729Y-60647839D01*
X144924461Y-60662949D01*
X144893786Y-60672254D01*
X144855749Y-60676000D01*
X142844251Y-60676000D01*
X142806214Y-60672254D01*
X142775539Y-60662949D01*
X142747271Y-60647839D01*
X142722494Y-60627506D01*
X142702161Y-60602729D01*
X142687051Y-60574461D01*
X142677746Y-60543786D01*
X142674000Y-60505749D01*
X142674000Y-58194251D01*
X142677746Y-58156214D01*
X142687051Y-58125539D01*
X142702161Y-58097271D01*
X142722494Y-58072494D01*
X142747271Y-58052161D01*
X142775539Y-58037051D01*
X142806214Y-58027746D01*
X142844251Y-58024000D01*
X144855749Y-58024000D01*
X144893786Y-58027746D01*
X144893786Y-58027746D01*
G37*
G36*
X131743786Y-58027746D02*
G01*
X131774461Y-58037051D01*
X131802729Y-58052161D01*
X131827506Y-58072494D01*
X131847839Y-58097271D01*
X131862949Y-58125539D01*
X131872254Y-58156214D01*
X131876000Y-58194251D01*
X131876000Y-60505749D01*
X131872254Y-60543786D01*
X131862949Y-60574461D01*
X131847839Y-60602729D01*
X131827506Y-60627506D01*
X131802729Y-60647839D01*
X131774461Y-60662949D01*
X131743786Y-60672254D01*
X131705749Y-60676000D01*
X129694251Y-60676000D01*
X129656214Y-60672254D01*
X129625539Y-60662949D01*
X129597271Y-60647839D01*
X129572494Y-60627506D01*
X129552161Y-60602729D01*
X129537051Y-60574461D01*
X129527746Y-60543786D01*
X129524000Y-60505749D01*
X129524000Y-58194251D01*
X129527746Y-58156214D01*
X129537051Y-58125539D01*
X129552161Y-58097271D01*
X129572494Y-58072494D01*
X129597271Y-58052161D01*
X129625539Y-58037051D01*
X129656214Y-58027746D01*
X129694251Y-58024000D01*
X131705749Y-58024000D01*
X131743786Y-58027746D01*
X131743786Y-58027746D01*
G37*
G36*
X138493786Y-58027746D02*
G01*
X138524461Y-58037051D01*
X138552729Y-58052161D01*
X138577506Y-58072494D01*
X138597839Y-58097271D01*
X138612949Y-58125539D01*
X138622254Y-58156214D01*
X138626000Y-58194251D01*
X138626000Y-60505749D01*
X138622254Y-60543786D01*
X138612949Y-60574461D01*
X138597839Y-60602729D01*
X138577506Y-60627506D01*
X138552729Y-60647839D01*
X138524461Y-60662949D01*
X138493786Y-60672254D01*
X138455749Y-60676000D01*
X136444251Y-60676000D01*
X136406214Y-60672254D01*
X136375539Y-60662949D01*
X136347271Y-60647839D01*
X136322494Y-60627506D01*
X136302161Y-60602729D01*
X136287051Y-60574461D01*
X136277746Y-60543786D01*
X136274000Y-60505749D01*
X136274000Y-58194251D01*
X136277746Y-58156214D01*
X136287051Y-58125539D01*
X136302161Y-58097271D01*
X136322494Y-58072494D01*
X136347271Y-58052161D01*
X136375539Y-58037051D01*
X136406214Y-58027746D01*
X136444251Y-58024000D01*
X138455749Y-58024000D01*
X138493786Y-58027746D01*
X138493786Y-58027746D01*
G37*
G36*
X146664499Y-59503445D02*
G01*
X146701995Y-59514820D01*
X146736554Y-59533292D01*
X146766847Y-59558153D01*
X146791708Y-59588446D01*
X146810180Y-59623005D01*
X146821555Y-59660501D01*
X146826000Y-59705638D01*
X146826000Y-60444362D01*
X146821555Y-60489499D01*
X146810180Y-60526995D01*
X146791708Y-60561554D01*
X146766847Y-60591847D01*
X146736554Y-60616708D01*
X146701995Y-60635180D01*
X146664499Y-60646555D01*
X146619362Y-60651000D01*
X145980638Y-60651000D01*
X145935501Y-60646555D01*
X145898005Y-60635180D01*
X145863446Y-60616708D01*
X145833153Y-60591847D01*
X145808292Y-60561554D01*
X145789820Y-60526995D01*
X145778445Y-60489499D01*
X145774000Y-60444362D01*
X145774000Y-59705638D01*
X145778445Y-59660501D01*
X145789820Y-59623005D01*
X145808292Y-59588446D01*
X145833153Y-59558153D01*
X145863446Y-59533292D01*
X145898005Y-59514820D01*
X145935501Y-59503445D01*
X145980638Y-59499000D01*
X146619362Y-59499000D01*
X146664499Y-59503445D01*
X146664499Y-59503445D01*
G37*
G36*
X120539499Y-58828445D02*
G01*
X120576995Y-58839820D01*
X120611554Y-58858292D01*
X120641847Y-58883153D01*
X120666708Y-58913446D01*
X120685180Y-58948005D01*
X120696555Y-58985501D01*
X120701000Y-59030638D01*
X120701000Y-59669362D01*
X120696555Y-59714499D01*
X120685180Y-59751995D01*
X120666708Y-59786554D01*
X120641847Y-59816847D01*
X120611554Y-59841708D01*
X120576995Y-59860180D01*
X120539499Y-59871555D01*
X120494362Y-59876000D01*
X119755638Y-59876000D01*
X119710501Y-59871555D01*
X119673005Y-59860180D01*
X119638446Y-59841708D01*
X119608153Y-59816847D01*
X119583292Y-59786554D01*
X119564820Y-59751995D01*
X119553445Y-59714499D01*
X119549000Y-59669362D01*
X119549000Y-59030638D01*
X119553445Y-58985501D01*
X119564820Y-58948005D01*
X119583292Y-58913446D01*
X119608153Y-58883153D01*
X119638446Y-58858292D01*
X119673005Y-58839820D01*
X119710501Y-58828445D01*
X119755638Y-58824000D01*
X120494362Y-58824000D01*
X120539499Y-58828445D01*
X120539499Y-58828445D01*
G37*
G36*
X135314499Y-58828445D02*
G01*
X135351995Y-58839820D01*
X135386554Y-58858292D01*
X135416847Y-58883153D01*
X135441708Y-58913446D01*
X135460180Y-58948005D01*
X135471555Y-58985501D01*
X135476000Y-59030638D01*
X135476000Y-59669362D01*
X135471555Y-59714499D01*
X135460180Y-59751995D01*
X135441708Y-59786554D01*
X135416847Y-59816847D01*
X135386554Y-59841708D01*
X135351995Y-59860180D01*
X135314499Y-59871555D01*
X135269362Y-59876000D01*
X134530638Y-59876000D01*
X134485501Y-59871555D01*
X134448005Y-59860180D01*
X134413446Y-59841708D01*
X134383153Y-59816847D01*
X134358292Y-59786554D01*
X134339820Y-59751995D01*
X134328445Y-59714499D01*
X134324000Y-59669362D01*
X134324000Y-59030638D01*
X134328445Y-58985501D01*
X134339820Y-58948005D01*
X134358292Y-58913446D01*
X134383153Y-58883153D01*
X134413446Y-58858292D01*
X134448005Y-58839820D01*
X134485501Y-58828445D01*
X134530638Y-58824000D01*
X135269362Y-58824000D01*
X135314499Y-58828445D01*
X135314499Y-58828445D01*
G37*
G36*
X122289499Y-58828445D02*
G01*
X122326995Y-58839820D01*
X122361554Y-58858292D01*
X122391847Y-58883153D01*
X122416708Y-58913446D01*
X122435180Y-58948005D01*
X122446555Y-58985501D01*
X122451000Y-59030638D01*
X122451000Y-59669362D01*
X122446555Y-59714499D01*
X122435180Y-59751995D01*
X122416708Y-59786554D01*
X122391847Y-59816847D01*
X122361554Y-59841708D01*
X122326995Y-59860180D01*
X122289499Y-59871555D01*
X122244362Y-59876000D01*
X121505638Y-59876000D01*
X121460501Y-59871555D01*
X121423005Y-59860180D01*
X121388446Y-59841708D01*
X121358153Y-59816847D01*
X121333292Y-59786554D01*
X121314820Y-59751995D01*
X121303445Y-59714499D01*
X121299000Y-59669362D01*
X121299000Y-59030638D01*
X121303445Y-58985501D01*
X121314820Y-58948005D01*
X121333292Y-58913446D01*
X121358153Y-58883153D01*
X121388446Y-58858292D01*
X121423005Y-58839820D01*
X121460501Y-58828445D01*
X121505638Y-58824000D01*
X122244362Y-58824000D01*
X122289499Y-58828445D01*
X122289499Y-58828445D01*
G37*
G36*
X107364499Y-58828445D02*
G01*
X107401995Y-58839820D01*
X107436554Y-58858292D01*
X107466847Y-58883153D01*
X107491708Y-58913446D01*
X107510180Y-58948005D01*
X107521555Y-58985501D01*
X107526000Y-59030638D01*
X107526000Y-59669362D01*
X107521555Y-59714499D01*
X107510180Y-59751995D01*
X107491708Y-59786554D01*
X107466847Y-59816847D01*
X107436554Y-59841708D01*
X107401995Y-59860180D01*
X107364499Y-59871555D01*
X107319362Y-59876000D01*
X106580638Y-59876000D01*
X106535501Y-59871555D01*
X106498005Y-59860180D01*
X106463446Y-59841708D01*
X106433153Y-59816847D01*
X106408292Y-59786554D01*
X106389820Y-59751995D01*
X106378445Y-59714499D01*
X106374000Y-59669362D01*
X106374000Y-59030638D01*
X106378445Y-58985501D01*
X106389820Y-58948005D01*
X106408292Y-58913446D01*
X106433153Y-58883153D01*
X106463446Y-58858292D01*
X106498005Y-58839820D01*
X106535501Y-58828445D01*
X106580638Y-58824000D01*
X107319362Y-58824000D01*
X107364499Y-58828445D01*
X107364499Y-58828445D01*
G37*
G36*
X109114499Y-58828445D02*
G01*
X109151995Y-58839820D01*
X109186554Y-58858292D01*
X109216847Y-58883153D01*
X109241708Y-58913446D01*
X109260180Y-58948005D01*
X109271555Y-58985501D01*
X109276000Y-59030638D01*
X109276000Y-59669362D01*
X109271555Y-59714499D01*
X109260180Y-59751995D01*
X109241708Y-59786554D01*
X109216847Y-59816847D01*
X109186554Y-59841708D01*
X109151995Y-59860180D01*
X109114499Y-59871555D01*
X109069362Y-59876000D01*
X108330638Y-59876000D01*
X108285501Y-59871555D01*
X108248005Y-59860180D01*
X108213446Y-59841708D01*
X108183153Y-59816847D01*
X108158292Y-59786554D01*
X108139820Y-59751995D01*
X108128445Y-59714499D01*
X108124000Y-59669362D01*
X108124000Y-59030638D01*
X108128445Y-58985501D01*
X108139820Y-58948005D01*
X108158292Y-58913446D01*
X108183153Y-58883153D01*
X108213446Y-58858292D01*
X108248005Y-58839820D01*
X108285501Y-58828445D01*
X108330638Y-58824000D01*
X109069362Y-58824000D01*
X109114499Y-58828445D01*
X109114499Y-58828445D01*
G37*
G36*
X133564499Y-58828445D02*
G01*
X133601995Y-58839820D01*
X133636554Y-58858292D01*
X133666847Y-58883153D01*
X133691708Y-58913446D01*
X133710180Y-58948005D01*
X133721555Y-58985501D01*
X133726000Y-59030638D01*
X133726000Y-59669362D01*
X133721555Y-59714499D01*
X133710180Y-59751995D01*
X133691708Y-59786554D01*
X133666847Y-59816847D01*
X133636554Y-59841708D01*
X133601995Y-59860180D01*
X133564499Y-59871555D01*
X133519362Y-59876000D01*
X132780638Y-59876000D01*
X132735501Y-59871555D01*
X132698005Y-59860180D01*
X132663446Y-59841708D01*
X132633153Y-59816847D01*
X132608292Y-59786554D01*
X132589820Y-59751995D01*
X132578445Y-59714499D01*
X132574000Y-59669362D01*
X132574000Y-59030638D01*
X132578445Y-58985501D01*
X132589820Y-58948005D01*
X132608292Y-58913446D01*
X132633153Y-58883153D01*
X132663446Y-58858292D01*
X132698005Y-58839820D01*
X132735501Y-58828445D01*
X132780638Y-58824000D01*
X133519362Y-58824000D01*
X133564499Y-58828445D01*
X133564499Y-58828445D01*
G37*
G36*
X146664499Y-57753445D02*
G01*
X146701995Y-57764820D01*
X146736554Y-57783292D01*
X146766847Y-57808153D01*
X146791708Y-57838446D01*
X146810180Y-57873005D01*
X146821555Y-57910501D01*
X146826000Y-57955638D01*
X146826000Y-58694362D01*
X146821555Y-58739499D01*
X146810180Y-58776995D01*
X146791708Y-58811554D01*
X146766847Y-58841847D01*
X146736554Y-58866708D01*
X146701995Y-58885180D01*
X146664499Y-58896555D01*
X146619362Y-58901000D01*
X145980638Y-58901000D01*
X145935501Y-58896555D01*
X145898005Y-58885180D01*
X145863446Y-58866708D01*
X145833153Y-58841847D01*
X145808292Y-58811554D01*
X145789820Y-58776995D01*
X145778445Y-58739499D01*
X145774000Y-58694362D01*
X145774000Y-57955638D01*
X145778445Y-57910501D01*
X145789820Y-57873005D01*
X145808292Y-57838446D01*
X145833153Y-57808153D01*
X145863446Y-57783292D01*
X145898005Y-57764820D01*
X145935501Y-57753445D01*
X145980638Y-57749000D01*
X146619362Y-57749000D01*
X146664499Y-57753445D01*
X146664499Y-57753445D01*
G37*
G36*
X121091032Y-52404207D02*
G01*
X121289146Y-52464305D01*
X121289149Y-52464306D01*
X121385975Y-52516061D01*
X121471729Y-52561897D01*
X121631765Y-52693235D01*
X121763103Y-52853271D01*
X121808939Y-52939025D01*
X121860694Y-53035851D01*
X121860695Y-53035854D01*
X121920793Y-53233968D01*
X121936000Y-53388370D01*
X121936000Y-55491630D01*
X121920793Y-55646032D01*
X121860695Y-55844145D01*
X121860694Y-55844149D01*
X121808939Y-55940975D01*
X121763103Y-56026729D01*
X121631765Y-56186765D01*
X121471729Y-56318103D01*
X121355030Y-56380479D01*
X121289148Y-56415694D01*
X121289145Y-56415695D01*
X121091031Y-56475793D01*
X120885000Y-56496085D01*
X120678968Y-56475793D01*
X120480854Y-56415695D01*
X120480851Y-56415694D01*
X120384025Y-56363939D01*
X120298271Y-56318103D01*
X120138235Y-56186765D01*
X120006897Y-56026729D01*
X119909307Y-55844149D01*
X119909306Y-55844148D01*
X119909305Y-55844145D01*
X119849207Y-55646031D01*
X119834000Y-55491629D01*
X119834001Y-53388370D01*
X119849208Y-53233968D01*
X119909306Y-53035854D01*
X119909307Y-53035851D01*
X119961062Y-52939025D01*
X120006898Y-52853271D01*
X120138236Y-52693235D01*
X120298272Y-52561897D01*
X120384026Y-52516061D01*
X120480852Y-52464306D01*
X120480855Y-52464305D01*
X120678969Y-52404207D01*
X120885000Y-52383915D01*
X121091032Y-52404207D01*
X121091032Y-52404207D01*
G37*
G36*
X113471032Y-52404207D02*
G01*
X113669146Y-52464305D01*
X113669149Y-52464306D01*
X113765975Y-52516061D01*
X113851729Y-52561897D01*
X114011765Y-52693235D01*
X114143103Y-52853271D01*
X114188939Y-52939025D01*
X114240694Y-53035851D01*
X114240695Y-53035854D01*
X114300793Y-53233968D01*
X114316000Y-53388370D01*
X114316000Y-55491630D01*
X114300793Y-55646032D01*
X114240695Y-55844145D01*
X114240694Y-55844149D01*
X114188939Y-55940975D01*
X114143103Y-56026729D01*
X114011765Y-56186765D01*
X113851729Y-56318103D01*
X113735030Y-56380479D01*
X113669148Y-56415694D01*
X113669145Y-56415695D01*
X113471031Y-56475793D01*
X113265000Y-56496085D01*
X113058968Y-56475793D01*
X112860854Y-56415695D01*
X112860851Y-56415694D01*
X112764025Y-56363939D01*
X112678271Y-56318103D01*
X112518235Y-56186765D01*
X112386897Y-56026729D01*
X112289307Y-55844149D01*
X112289306Y-55844148D01*
X112289305Y-55844145D01*
X112229207Y-55646031D01*
X112214000Y-55491629D01*
X112214001Y-53388370D01*
X112229208Y-53233968D01*
X112289306Y-53035854D01*
X112289307Y-53035851D01*
X112341062Y-52939025D01*
X112386898Y-52853271D01*
X112518236Y-52693235D01*
X112678272Y-52561897D01*
X112764026Y-52516061D01*
X112860852Y-52464306D01*
X112860855Y-52464305D01*
X113058969Y-52404207D01*
X113265000Y-52383915D01*
X113471032Y-52404207D01*
X113471032Y-52404207D01*
G37*
G36*
X147761032Y-52404207D02*
G01*
X147959146Y-52464305D01*
X147959149Y-52464306D01*
X148055975Y-52516061D01*
X148141729Y-52561897D01*
X148301765Y-52693235D01*
X148433103Y-52853271D01*
X148478939Y-52939025D01*
X148530694Y-53035851D01*
X148530695Y-53035854D01*
X148590793Y-53233968D01*
X148606000Y-53388370D01*
X148606000Y-55491630D01*
X148590793Y-55646032D01*
X148530695Y-55844145D01*
X148530694Y-55844149D01*
X148478939Y-55940975D01*
X148433103Y-56026729D01*
X148301765Y-56186765D01*
X148141729Y-56318103D01*
X148025030Y-56380479D01*
X147959148Y-56415694D01*
X147959145Y-56415695D01*
X147761031Y-56475793D01*
X147555000Y-56496085D01*
X147348968Y-56475793D01*
X147150854Y-56415695D01*
X147150851Y-56415694D01*
X147054025Y-56363939D01*
X146968271Y-56318103D01*
X146808235Y-56186765D01*
X146676897Y-56026729D01*
X146579307Y-55844149D01*
X146579306Y-55844148D01*
X146579305Y-55844145D01*
X146519207Y-55646031D01*
X146504000Y-55491629D01*
X146504001Y-53388370D01*
X146519208Y-53233968D01*
X146579306Y-53035854D01*
X146579307Y-53035851D01*
X146631062Y-52939025D01*
X146676898Y-52853271D01*
X146808236Y-52693235D01*
X146968272Y-52561897D01*
X147054026Y-52516061D01*
X147150852Y-52464306D01*
X147150855Y-52464305D01*
X147348969Y-52404207D01*
X147555000Y-52383915D01*
X147761032Y-52404207D01*
X147761032Y-52404207D01*
G37*
G36*
X143951032Y-52404207D02*
G01*
X144149146Y-52464305D01*
X144149149Y-52464306D01*
X144245975Y-52516061D01*
X144331729Y-52561897D01*
X144491765Y-52693235D01*
X144623103Y-52853271D01*
X144668939Y-52939025D01*
X144720694Y-53035851D01*
X144720695Y-53035854D01*
X144780793Y-53233968D01*
X144796000Y-53388370D01*
X144796000Y-55491630D01*
X144780793Y-55646032D01*
X144720695Y-55844145D01*
X144720694Y-55844149D01*
X144668939Y-55940975D01*
X144623103Y-56026729D01*
X144491765Y-56186765D01*
X144331729Y-56318103D01*
X144215030Y-56380479D01*
X144149148Y-56415694D01*
X144149145Y-56415695D01*
X143951031Y-56475793D01*
X143745000Y-56496085D01*
X143538968Y-56475793D01*
X143340854Y-56415695D01*
X143340851Y-56415694D01*
X143244025Y-56363939D01*
X143158271Y-56318103D01*
X142998235Y-56186765D01*
X142866897Y-56026729D01*
X142769307Y-55844149D01*
X142769306Y-55844148D01*
X142769305Y-55844145D01*
X142709207Y-55646031D01*
X142694000Y-55491629D01*
X142694001Y-53388370D01*
X142709208Y-53233968D01*
X142769306Y-53035854D01*
X142769307Y-53035851D01*
X142821062Y-52939025D01*
X142866898Y-52853271D01*
X142998236Y-52693235D01*
X143158272Y-52561897D01*
X143244026Y-52516061D01*
X143340852Y-52464306D01*
X143340855Y-52464305D01*
X143538969Y-52404207D01*
X143745000Y-52383915D01*
X143951032Y-52404207D01*
X143951032Y-52404207D01*
G37*
G36*
X140141032Y-52404207D02*
G01*
X140339146Y-52464305D01*
X140339149Y-52464306D01*
X140435975Y-52516061D01*
X140521729Y-52561897D01*
X140681765Y-52693235D01*
X140813103Y-52853271D01*
X140858939Y-52939025D01*
X140910694Y-53035851D01*
X140910695Y-53035854D01*
X140970793Y-53233968D01*
X140986000Y-53388370D01*
X140986000Y-55491630D01*
X140970793Y-55646032D01*
X140910695Y-55844145D01*
X140910694Y-55844149D01*
X140858939Y-55940975D01*
X140813103Y-56026729D01*
X140681765Y-56186765D01*
X140521729Y-56318103D01*
X140405030Y-56380479D01*
X140339148Y-56415694D01*
X140339145Y-56415695D01*
X140141031Y-56475793D01*
X139935000Y-56496085D01*
X139728968Y-56475793D01*
X139530854Y-56415695D01*
X139530851Y-56415694D01*
X139434025Y-56363939D01*
X139348271Y-56318103D01*
X139188235Y-56186765D01*
X139056897Y-56026729D01*
X138959307Y-55844149D01*
X138959306Y-55844148D01*
X138959305Y-55844145D01*
X138899207Y-55646031D01*
X138884000Y-55491629D01*
X138884001Y-53388370D01*
X138899208Y-53233968D01*
X138959306Y-53035854D01*
X138959307Y-53035851D01*
X139011062Y-52939025D01*
X139056898Y-52853271D01*
X139188236Y-52693235D01*
X139348272Y-52561897D01*
X139434026Y-52516061D01*
X139530852Y-52464306D01*
X139530855Y-52464305D01*
X139728969Y-52404207D01*
X139935000Y-52383915D01*
X140141032Y-52404207D01*
X140141032Y-52404207D01*
G37*
G36*
X117281032Y-52404207D02*
G01*
X117479146Y-52464305D01*
X117479149Y-52464306D01*
X117575975Y-52516061D01*
X117661729Y-52561897D01*
X117821765Y-52693235D01*
X117953103Y-52853271D01*
X117998939Y-52939025D01*
X118050694Y-53035851D01*
X118050695Y-53035854D01*
X118110793Y-53233968D01*
X118126000Y-53388370D01*
X118126000Y-55491630D01*
X118110793Y-55646032D01*
X118050695Y-55844145D01*
X118050694Y-55844149D01*
X117998939Y-55940975D01*
X117953103Y-56026729D01*
X117821765Y-56186765D01*
X117661729Y-56318103D01*
X117545030Y-56380479D01*
X117479148Y-56415694D01*
X117479145Y-56415695D01*
X117281031Y-56475793D01*
X117075000Y-56496085D01*
X116868968Y-56475793D01*
X116670854Y-56415695D01*
X116670851Y-56415694D01*
X116574025Y-56363939D01*
X116488271Y-56318103D01*
X116328235Y-56186765D01*
X116196897Y-56026729D01*
X116099307Y-55844149D01*
X116099306Y-55844148D01*
X116099305Y-55844145D01*
X116039207Y-55646031D01*
X116024000Y-55491629D01*
X116024001Y-53388370D01*
X116039208Y-53233968D01*
X116099306Y-53035854D01*
X116099307Y-53035851D01*
X116151062Y-52939025D01*
X116196898Y-52853271D01*
X116328236Y-52693235D01*
X116488272Y-52561897D01*
X116574026Y-52516061D01*
X116670852Y-52464306D01*
X116670855Y-52464305D01*
X116868969Y-52404207D01*
X117075000Y-52383915D01*
X117281032Y-52404207D01*
X117281032Y-52404207D01*
G37*
G36*
X132521032Y-52404207D02*
G01*
X132719146Y-52464305D01*
X132719149Y-52464306D01*
X132815975Y-52516061D01*
X132901729Y-52561897D01*
X133061765Y-52693235D01*
X133193103Y-52853271D01*
X133238939Y-52939025D01*
X133290694Y-53035851D01*
X133290695Y-53035854D01*
X133350793Y-53233968D01*
X133366000Y-53388370D01*
X133366000Y-55491630D01*
X133350793Y-55646032D01*
X133290695Y-55844145D01*
X133290694Y-55844149D01*
X133238939Y-55940975D01*
X133193103Y-56026729D01*
X133061765Y-56186765D01*
X132901729Y-56318103D01*
X132785030Y-56380479D01*
X132719148Y-56415694D01*
X132719145Y-56415695D01*
X132521031Y-56475793D01*
X132315000Y-56496085D01*
X132108968Y-56475793D01*
X131910854Y-56415695D01*
X131910851Y-56415694D01*
X131814025Y-56363939D01*
X131728271Y-56318103D01*
X131568235Y-56186765D01*
X131436897Y-56026729D01*
X131339307Y-55844149D01*
X131339306Y-55844148D01*
X131339305Y-55844145D01*
X131279207Y-55646031D01*
X131264000Y-55491629D01*
X131264001Y-53388370D01*
X131279208Y-53233968D01*
X131339306Y-53035854D01*
X131339307Y-53035851D01*
X131391062Y-52939025D01*
X131436898Y-52853271D01*
X131568236Y-52693235D01*
X131728272Y-52561897D01*
X131814026Y-52516061D01*
X131910852Y-52464306D01*
X131910855Y-52464305D01*
X132108969Y-52404207D01*
X132315000Y-52383915D01*
X132521032Y-52404207D01*
X132521032Y-52404207D01*
G37*
G36*
X124901032Y-52404207D02*
G01*
X125099146Y-52464305D01*
X125099149Y-52464306D01*
X125195975Y-52516061D01*
X125281729Y-52561897D01*
X125441765Y-52693235D01*
X125573103Y-52853271D01*
X125618939Y-52939025D01*
X125670694Y-53035851D01*
X125670695Y-53035854D01*
X125730793Y-53233968D01*
X125746000Y-53388370D01*
X125746000Y-55491630D01*
X125730793Y-55646032D01*
X125670695Y-55844145D01*
X125670694Y-55844149D01*
X125618939Y-55940975D01*
X125573103Y-56026729D01*
X125441765Y-56186765D01*
X125281729Y-56318103D01*
X125165030Y-56380479D01*
X125099148Y-56415694D01*
X125099145Y-56415695D01*
X124901031Y-56475793D01*
X124695000Y-56496085D01*
X124488968Y-56475793D01*
X124290854Y-56415695D01*
X124290851Y-56415694D01*
X124194025Y-56363939D01*
X124108271Y-56318103D01*
X123948235Y-56186765D01*
X123816897Y-56026729D01*
X123719307Y-55844149D01*
X123719306Y-55844148D01*
X123719305Y-55844145D01*
X123659207Y-55646031D01*
X123644000Y-55491629D01*
X123644001Y-53388370D01*
X123659208Y-53233968D01*
X123719306Y-53035854D01*
X123719307Y-53035851D01*
X123771062Y-52939025D01*
X123816898Y-52853271D01*
X123948236Y-52693235D01*
X124108272Y-52561897D01*
X124194026Y-52516061D01*
X124290852Y-52464306D01*
X124290855Y-52464305D01*
X124488969Y-52404207D01*
X124695000Y-52383915D01*
X124901032Y-52404207D01*
X124901032Y-52404207D01*
G37*
G36*
X128711032Y-52404207D02*
G01*
X128909146Y-52464305D01*
X128909149Y-52464306D01*
X129005975Y-52516061D01*
X129091729Y-52561897D01*
X129251765Y-52693235D01*
X129383103Y-52853271D01*
X129428939Y-52939025D01*
X129480694Y-53035851D01*
X129480695Y-53035854D01*
X129540793Y-53233968D01*
X129556000Y-53388370D01*
X129556000Y-55491630D01*
X129540793Y-55646032D01*
X129480695Y-55844145D01*
X129480694Y-55844149D01*
X129428939Y-55940975D01*
X129383103Y-56026729D01*
X129251765Y-56186765D01*
X129091729Y-56318103D01*
X128975030Y-56380479D01*
X128909148Y-56415694D01*
X128909145Y-56415695D01*
X128711031Y-56475793D01*
X128505000Y-56496085D01*
X128298968Y-56475793D01*
X128100854Y-56415695D01*
X128100851Y-56415694D01*
X128004025Y-56363939D01*
X127918271Y-56318103D01*
X127758235Y-56186765D01*
X127626897Y-56026729D01*
X127529307Y-55844149D01*
X127529306Y-55844148D01*
X127529305Y-55844145D01*
X127469207Y-55646031D01*
X127454000Y-55491629D01*
X127454001Y-53388370D01*
X127469208Y-53233968D01*
X127529306Y-53035854D01*
X127529307Y-53035851D01*
X127581062Y-52939025D01*
X127626898Y-52853271D01*
X127758236Y-52693235D01*
X127918272Y-52561897D01*
X128004026Y-52516061D01*
X128100852Y-52464306D01*
X128100855Y-52464305D01*
X128298969Y-52404207D01*
X128505000Y-52383915D01*
X128711032Y-52404207D01*
X128711032Y-52404207D01*
G37*
G36*
X136331032Y-52404207D02*
G01*
X136529146Y-52464305D01*
X136529149Y-52464306D01*
X136625975Y-52516061D01*
X136711729Y-52561897D01*
X136871765Y-52693235D01*
X137003103Y-52853271D01*
X137048939Y-52939025D01*
X137100694Y-53035851D01*
X137100695Y-53035854D01*
X137160793Y-53233968D01*
X137176000Y-53388370D01*
X137176000Y-55491630D01*
X137160793Y-55646032D01*
X137100695Y-55844145D01*
X137100694Y-55844149D01*
X137048939Y-55940975D01*
X137003103Y-56026729D01*
X136871765Y-56186765D01*
X136711729Y-56318103D01*
X136595030Y-56380479D01*
X136529148Y-56415694D01*
X136529145Y-56415695D01*
X136331031Y-56475793D01*
X136125000Y-56496085D01*
X135918968Y-56475793D01*
X135720854Y-56415695D01*
X135720851Y-56415694D01*
X135624025Y-56363939D01*
X135538271Y-56318103D01*
X135378235Y-56186765D01*
X135246897Y-56026729D01*
X135149307Y-55844149D01*
X135149306Y-55844148D01*
X135149305Y-55844145D01*
X135089207Y-55646031D01*
X135074000Y-55491629D01*
X135074001Y-53388370D01*
X135089208Y-53233968D01*
X135149306Y-53035854D01*
X135149307Y-53035851D01*
X135201062Y-52939025D01*
X135246898Y-52853271D01*
X135378236Y-52693235D01*
X135538272Y-52561897D01*
X135624026Y-52516061D01*
X135720852Y-52464306D01*
X135720855Y-52464305D01*
X135918969Y-52404207D01*
X136125000Y-52383915D01*
X136331032Y-52404207D01*
X136331032Y-52404207D01*
G37*
G36*
X108206032Y-48464207D02*
G01*
X108404146Y-48524305D01*
X108404149Y-48524306D01*
X108500975Y-48576061D01*
X108586729Y-48621897D01*
X108746765Y-48753235D01*
X108878103Y-48913271D01*
X108923939Y-48999025D01*
X108975694Y-49095851D01*
X108975695Y-49095854D01*
X109035793Y-49293968D01*
X109051000Y-49448370D01*
X109051000Y-54351630D01*
X109035793Y-54506032D01*
X108975695Y-54704145D01*
X108975694Y-54704149D01*
X108923939Y-54800975D01*
X108878103Y-54886729D01*
X108746765Y-55046765D01*
X108586729Y-55178103D01*
X108470030Y-55240479D01*
X108404148Y-55275694D01*
X108404145Y-55275695D01*
X108206031Y-55335793D01*
X108000000Y-55356085D01*
X107793968Y-55335793D01*
X107595854Y-55275695D01*
X107595851Y-55275694D01*
X107499025Y-55223939D01*
X107413271Y-55178103D01*
X107253235Y-55046765D01*
X107121897Y-54886729D01*
X107024307Y-54704149D01*
X107024306Y-54704148D01*
X107024305Y-54704145D01*
X106964207Y-54506031D01*
X106949000Y-54351629D01*
X106949001Y-49448370D01*
X106964208Y-49293968D01*
X107024306Y-49095854D01*
X107024307Y-49095851D01*
X107076062Y-48999025D01*
X107121898Y-48913271D01*
X107253236Y-48753235D01*
X107413272Y-48621897D01*
X107499026Y-48576061D01*
X107595852Y-48524306D01*
X107595855Y-48524305D01*
X107793969Y-48464207D01*
X108000000Y-48443915D01*
X108206032Y-48464207D01*
X108206032Y-48464207D01*
G37*
G36*
X153006032Y-48464207D02*
G01*
X153204146Y-48524305D01*
X153204149Y-48524306D01*
X153300975Y-48576061D01*
X153386729Y-48621897D01*
X153546765Y-48753235D01*
X153678103Y-48913271D01*
X153723939Y-48999025D01*
X153775694Y-49095851D01*
X153775695Y-49095854D01*
X153835793Y-49293968D01*
X153851000Y-49448370D01*
X153851000Y-54351630D01*
X153835793Y-54506032D01*
X153775695Y-54704145D01*
X153775694Y-54704149D01*
X153723939Y-54800975D01*
X153678103Y-54886729D01*
X153546765Y-55046765D01*
X153386729Y-55178103D01*
X153270030Y-55240479D01*
X153204148Y-55275694D01*
X153204145Y-55275695D01*
X153006031Y-55335793D01*
X152800000Y-55356085D01*
X152593968Y-55335793D01*
X152395854Y-55275695D01*
X152395851Y-55275694D01*
X152299025Y-55223939D01*
X152213271Y-55178103D01*
X152053235Y-55046765D01*
X151921897Y-54886729D01*
X151824307Y-54704149D01*
X151824306Y-54704148D01*
X151824305Y-54704145D01*
X151764207Y-54506031D01*
X151749000Y-54351629D01*
X151749001Y-49448370D01*
X151764208Y-49293968D01*
X151824306Y-49095854D01*
X151824307Y-49095851D01*
X151876062Y-48999025D01*
X151921898Y-48913271D01*
X152053236Y-48753235D01*
X152213272Y-48621897D01*
X152299026Y-48576061D01*
X152395852Y-48524306D01*
X152395855Y-48524305D01*
X152593969Y-48464207D01*
X152800000Y-48443915D01*
X153006032Y-48464207D01*
X153006032Y-48464207D01*
G37*
G36*
X111556032Y-47324207D02*
G01*
X111754146Y-47384305D01*
X111754149Y-47384306D01*
X111850975Y-47436061D01*
X111936729Y-47481897D01*
X112096765Y-47613235D01*
X112228103Y-47773271D01*
X112273939Y-47859025D01*
X112325694Y-47955851D01*
X112325695Y-47955854D01*
X112385793Y-48153968D01*
X112401000Y-48308370D01*
X112401000Y-50411630D01*
X112385793Y-50566032D01*
X112325695Y-50764145D01*
X112325694Y-50764149D01*
X112273939Y-50860975D01*
X112228103Y-50946729D01*
X112096765Y-51106765D01*
X111936729Y-51238103D01*
X111820030Y-51300479D01*
X111754148Y-51335694D01*
X111754145Y-51335695D01*
X111556031Y-51395793D01*
X111350000Y-51416085D01*
X111143968Y-51395793D01*
X110945854Y-51335695D01*
X110945851Y-51335694D01*
X110849025Y-51283939D01*
X110763271Y-51238103D01*
X110603235Y-51106765D01*
X110471897Y-50946729D01*
X110374307Y-50764149D01*
X110374306Y-50764148D01*
X110374305Y-50764145D01*
X110314207Y-50566031D01*
X110299000Y-50411629D01*
X110299001Y-48308370D01*
X110314208Y-48153968D01*
X110374306Y-47955854D01*
X110374307Y-47955851D01*
X110426062Y-47859025D01*
X110471898Y-47773271D01*
X110603236Y-47613235D01*
X110763272Y-47481897D01*
X110849026Y-47436061D01*
X110945852Y-47384306D01*
X110945855Y-47384305D01*
X111143969Y-47324207D01*
X111350000Y-47303915D01*
X111556032Y-47324207D01*
X111556032Y-47324207D01*
G37*
G36*
X126796032Y-47324207D02*
G01*
X126994146Y-47384305D01*
X126994149Y-47384306D01*
X127090975Y-47436061D01*
X127176729Y-47481897D01*
X127336765Y-47613235D01*
X127468103Y-47773271D01*
X127513939Y-47859025D01*
X127565694Y-47955851D01*
X127565695Y-47955854D01*
X127625793Y-48153968D01*
X127641000Y-48308370D01*
X127641000Y-50411630D01*
X127625793Y-50566032D01*
X127565695Y-50764145D01*
X127565694Y-50764149D01*
X127513939Y-50860975D01*
X127468103Y-50946729D01*
X127336765Y-51106765D01*
X127176729Y-51238103D01*
X127060030Y-51300479D01*
X126994148Y-51335694D01*
X126994145Y-51335695D01*
X126796031Y-51395793D01*
X126590000Y-51416085D01*
X126383968Y-51395793D01*
X126185854Y-51335695D01*
X126185851Y-51335694D01*
X126089025Y-51283939D01*
X126003271Y-51238103D01*
X125843235Y-51106765D01*
X125711897Y-50946729D01*
X125614307Y-50764149D01*
X125614306Y-50764148D01*
X125614305Y-50764145D01*
X125554207Y-50566031D01*
X125539000Y-50411629D01*
X125539001Y-48308370D01*
X125554208Y-48153968D01*
X125614306Y-47955854D01*
X125614307Y-47955851D01*
X125666062Y-47859025D01*
X125711898Y-47773271D01*
X125843236Y-47613235D01*
X126003272Y-47481897D01*
X126089026Y-47436061D01*
X126185852Y-47384306D01*
X126185855Y-47384305D01*
X126383969Y-47324207D01*
X126590000Y-47303915D01*
X126796032Y-47324207D01*
X126796032Y-47324207D01*
G37*
G36*
X115366032Y-47324207D02*
G01*
X115564146Y-47384305D01*
X115564149Y-47384306D01*
X115660975Y-47436061D01*
X115746729Y-47481897D01*
X115906765Y-47613235D01*
X116038103Y-47773271D01*
X116083939Y-47859025D01*
X116135694Y-47955851D01*
X116135695Y-47955854D01*
X116195793Y-48153968D01*
X116211000Y-48308370D01*
X116211000Y-50411630D01*
X116195793Y-50566032D01*
X116135695Y-50764145D01*
X116135694Y-50764149D01*
X116083939Y-50860975D01*
X116038103Y-50946729D01*
X115906765Y-51106765D01*
X115746729Y-51238103D01*
X115630030Y-51300479D01*
X115564148Y-51335694D01*
X115564145Y-51335695D01*
X115366031Y-51395793D01*
X115160000Y-51416085D01*
X114953968Y-51395793D01*
X114755854Y-51335695D01*
X114755851Y-51335694D01*
X114659025Y-51283939D01*
X114573271Y-51238103D01*
X114413235Y-51106765D01*
X114281897Y-50946729D01*
X114184307Y-50764149D01*
X114184306Y-50764148D01*
X114184305Y-50764145D01*
X114124207Y-50566031D01*
X114109000Y-50411629D01*
X114109001Y-48308370D01*
X114124208Y-48153968D01*
X114184306Y-47955854D01*
X114184307Y-47955851D01*
X114236062Y-47859025D01*
X114281898Y-47773271D01*
X114413236Y-47613235D01*
X114573272Y-47481897D01*
X114659026Y-47436061D01*
X114755852Y-47384306D01*
X114755855Y-47384305D01*
X114953969Y-47324207D01*
X115160000Y-47303915D01*
X115366032Y-47324207D01*
X115366032Y-47324207D01*
G37*
G36*
X119176032Y-47324207D02*
G01*
X119374146Y-47384305D01*
X119374149Y-47384306D01*
X119470975Y-47436061D01*
X119556729Y-47481897D01*
X119716765Y-47613235D01*
X119848103Y-47773271D01*
X119893939Y-47859025D01*
X119945694Y-47955851D01*
X119945695Y-47955854D01*
X120005793Y-48153968D01*
X120021000Y-48308370D01*
X120021000Y-50411630D01*
X120005793Y-50566032D01*
X119945695Y-50764145D01*
X119945694Y-50764149D01*
X119893939Y-50860975D01*
X119848103Y-50946729D01*
X119716765Y-51106765D01*
X119556729Y-51238103D01*
X119440030Y-51300479D01*
X119374148Y-51335694D01*
X119374145Y-51335695D01*
X119176031Y-51395793D01*
X118970000Y-51416085D01*
X118763968Y-51395793D01*
X118565854Y-51335695D01*
X118565851Y-51335694D01*
X118469025Y-51283939D01*
X118383271Y-51238103D01*
X118223235Y-51106765D01*
X118091897Y-50946729D01*
X117994307Y-50764149D01*
X117994306Y-50764148D01*
X117994305Y-50764145D01*
X117934207Y-50566031D01*
X117919000Y-50411629D01*
X117919001Y-48308370D01*
X117934208Y-48153968D01*
X117994306Y-47955854D01*
X117994307Y-47955851D01*
X118046062Y-47859025D01*
X118091898Y-47773271D01*
X118223236Y-47613235D01*
X118383272Y-47481897D01*
X118469026Y-47436061D01*
X118565852Y-47384306D01*
X118565855Y-47384305D01*
X118763969Y-47324207D01*
X118970000Y-47303915D01*
X119176032Y-47324207D01*
X119176032Y-47324207D01*
G37*
G36*
X122986032Y-47324207D02*
G01*
X123184146Y-47384305D01*
X123184149Y-47384306D01*
X123280975Y-47436061D01*
X123366729Y-47481897D01*
X123526765Y-47613235D01*
X123658103Y-47773271D01*
X123703939Y-47859025D01*
X123755694Y-47955851D01*
X123755695Y-47955854D01*
X123815793Y-48153968D01*
X123831000Y-48308370D01*
X123831000Y-50411630D01*
X123815793Y-50566032D01*
X123755695Y-50764145D01*
X123755694Y-50764149D01*
X123703939Y-50860975D01*
X123658103Y-50946729D01*
X123526765Y-51106765D01*
X123366729Y-51238103D01*
X123250030Y-51300479D01*
X123184148Y-51335694D01*
X123184145Y-51335695D01*
X122986031Y-51395793D01*
X122780000Y-51416085D01*
X122573968Y-51395793D01*
X122375854Y-51335695D01*
X122375851Y-51335694D01*
X122279025Y-51283939D01*
X122193271Y-51238103D01*
X122033235Y-51106765D01*
X121901897Y-50946729D01*
X121804307Y-50764149D01*
X121804306Y-50764148D01*
X121804305Y-50764145D01*
X121744207Y-50566031D01*
X121729000Y-50411629D01*
X121729001Y-48308370D01*
X121744208Y-48153968D01*
X121804306Y-47955854D01*
X121804307Y-47955851D01*
X121856062Y-47859025D01*
X121901898Y-47773271D01*
X122033236Y-47613235D01*
X122193272Y-47481897D01*
X122279026Y-47436061D01*
X122375852Y-47384306D01*
X122375855Y-47384305D01*
X122573969Y-47324207D01*
X122780000Y-47303915D01*
X122986032Y-47324207D01*
X122986032Y-47324207D01*
G37*
G36*
X145846032Y-47324207D02*
G01*
X146044146Y-47384305D01*
X146044149Y-47384306D01*
X146140975Y-47436061D01*
X146226729Y-47481897D01*
X146386765Y-47613235D01*
X146518103Y-47773271D01*
X146563939Y-47859025D01*
X146615694Y-47955851D01*
X146615695Y-47955854D01*
X146675793Y-48153968D01*
X146691000Y-48308370D01*
X146691000Y-50411630D01*
X146675793Y-50566032D01*
X146615695Y-50764145D01*
X146615694Y-50764149D01*
X146563939Y-50860975D01*
X146518103Y-50946729D01*
X146386765Y-51106765D01*
X146226729Y-51238103D01*
X146110030Y-51300479D01*
X146044148Y-51335694D01*
X146044145Y-51335695D01*
X145846031Y-51395793D01*
X145640000Y-51416085D01*
X145433968Y-51395793D01*
X145235854Y-51335695D01*
X145235851Y-51335694D01*
X145139025Y-51283939D01*
X145053271Y-51238103D01*
X144893235Y-51106765D01*
X144761897Y-50946729D01*
X144664307Y-50764149D01*
X144664306Y-50764148D01*
X144664305Y-50764145D01*
X144604207Y-50566031D01*
X144589000Y-50411629D01*
X144589001Y-48308370D01*
X144604208Y-48153968D01*
X144664306Y-47955854D01*
X144664307Y-47955851D01*
X144716062Y-47859025D01*
X144761898Y-47773271D01*
X144893236Y-47613235D01*
X145053272Y-47481897D01*
X145139026Y-47436061D01*
X145235852Y-47384306D01*
X145235855Y-47384305D01*
X145433969Y-47324207D01*
X145640000Y-47303915D01*
X145846032Y-47324207D01*
X145846032Y-47324207D01*
G37*
G36*
X149656032Y-47324207D02*
G01*
X149854146Y-47384305D01*
X149854149Y-47384306D01*
X149950975Y-47436061D01*
X150036729Y-47481897D01*
X150196765Y-47613235D01*
X150328103Y-47773271D01*
X150373939Y-47859025D01*
X150425694Y-47955851D01*
X150425695Y-47955854D01*
X150485793Y-48153968D01*
X150501000Y-48308370D01*
X150501000Y-50411630D01*
X150485793Y-50566032D01*
X150425695Y-50764145D01*
X150425694Y-50764149D01*
X150373939Y-50860975D01*
X150328103Y-50946729D01*
X150196765Y-51106765D01*
X150036729Y-51238103D01*
X149920030Y-51300479D01*
X149854148Y-51335694D01*
X149854145Y-51335695D01*
X149656031Y-51395793D01*
X149450000Y-51416085D01*
X149243968Y-51395793D01*
X149045854Y-51335695D01*
X149045851Y-51335694D01*
X148949025Y-51283939D01*
X148863271Y-51238103D01*
X148703235Y-51106765D01*
X148571897Y-50946729D01*
X148474307Y-50764149D01*
X148474306Y-50764148D01*
X148474305Y-50764145D01*
X148414207Y-50566031D01*
X148399000Y-50411629D01*
X148399001Y-48308370D01*
X148414208Y-48153968D01*
X148474306Y-47955854D01*
X148474307Y-47955851D01*
X148526062Y-47859025D01*
X148571898Y-47773271D01*
X148703236Y-47613235D01*
X148863272Y-47481897D01*
X148949026Y-47436061D01*
X149045852Y-47384306D01*
X149045855Y-47384305D01*
X149243969Y-47324207D01*
X149450000Y-47303915D01*
X149656032Y-47324207D01*
X149656032Y-47324207D01*
G37*
G36*
X142036032Y-47324207D02*
G01*
X142234146Y-47384305D01*
X142234149Y-47384306D01*
X142330975Y-47436061D01*
X142416729Y-47481897D01*
X142576765Y-47613235D01*
X142708103Y-47773271D01*
X142753939Y-47859025D01*
X142805694Y-47955851D01*
X142805695Y-47955854D01*
X142865793Y-48153968D01*
X142881000Y-48308370D01*
X142881000Y-50411630D01*
X142865793Y-50566032D01*
X142805695Y-50764145D01*
X142805694Y-50764149D01*
X142753939Y-50860975D01*
X142708103Y-50946729D01*
X142576765Y-51106765D01*
X142416729Y-51238103D01*
X142300030Y-51300479D01*
X142234148Y-51335694D01*
X142234145Y-51335695D01*
X142036031Y-51395793D01*
X141830000Y-51416085D01*
X141623968Y-51395793D01*
X141425854Y-51335695D01*
X141425851Y-51335694D01*
X141329025Y-51283939D01*
X141243271Y-51238103D01*
X141083235Y-51106765D01*
X140951897Y-50946729D01*
X140854307Y-50764149D01*
X140854306Y-50764148D01*
X140854305Y-50764145D01*
X140794207Y-50566031D01*
X140779000Y-50411629D01*
X140779001Y-48308370D01*
X140794208Y-48153968D01*
X140854306Y-47955854D01*
X140854307Y-47955851D01*
X140906062Y-47859025D01*
X140951898Y-47773271D01*
X141083236Y-47613235D01*
X141243272Y-47481897D01*
X141329026Y-47436061D01*
X141425852Y-47384306D01*
X141425855Y-47384305D01*
X141623969Y-47324207D01*
X141830000Y-47303915D01*
X142036032Y-47324207D01*
X142036032Y-47324207D01*
G37*
G36*
X138226032Y-47324207D02*
G01*
X138424146Y-47384305D01*
X138424149Y-47384306D01*
X138520975Y-47436061D01*
X138606729Y-47481897D01*
X138766765Y-47613235D01*
X138898103Y-47773271D01*
X138943939Y-47859025D01*
X138995694Y-47955851D01*
X138995695Y-47955854D01*
X139055793Y-48153968D01*
X139071000Y-48308370D01*
X139071000Y-50411630D01*
X139055793Y-50566032D01*
X138995695Y-50764145D01*
X138995694Y-50764149D01*
X138943939Y-50860975D01*
X138898103Y-50946729D01*
X138766765Y-51106765D01*
X138606729Y-51238103D01*
X138490030Y-51300479D01*
X138424148Y-51335694D01*
X138424145Y-51335695D01*
X138226031Y-51395793D01*
X138020000Y-51416085D01*
X137813968Y-51395793D01*
X137615854Y-51335695D01*
X137615851Y-51335694D01*
X137519025Y-51283939D01*
X137433271Y-51238103D01*
X137273235Y-51106765D01*
X137141897Y-50946729D01*
X137044307Y-50764149D01*
X137044306Y-50764148D01*
X137044305Y-50764145D01*
X136984207Y-50566031D01*
X136969000Y-50411629D01*
X136969001Y-48308370D01*
X136984208Y-48153968D01*
X137044306Y-47955854D01*
X137044307Y-47955851D01*
X137096062Y-47859025D01*
X137141898Y-47773271D01*
X137273236Y-47613235D01*
X137433272Y-47481897D01*
X137519026Y-47436061D01*
X137615852Y-47384306D01*
X137615855Y-47384305D01*
X137813969Y-47324207D01*
X138020000Y-47303915D01*
X138226032Y-47324207D01*
X138226032Y-47324207D01*
G37*
G36*
X134416032Y-47324207D02*
G01*
X134614146Y-47384305D01*
X134614149Y-47384306D01*
X134710975Y-47436061D01*
X134796729Y-47481897D01*
X134956765Y-47613235D01*
X135088103Y-47773271D01*
X135133939Y-47859025D01*
X135185694Y-47955851D01*
X135185695Y-47955854D01*
X135245793Y-48153968D01*
X135261000Y-48308370D01*
X135261000Y-50411630D01*
X135245793Y-50566032D01*
X135185695Y-50764145D01*
X135185694Y-50764149D01*
X135133939Y-50860975D01*
X135088103Y-50946729D01*
X134956765Y-51106765D01*
X134796729Y-51238103D01*
X134680030Y-51300479D01*
X134614148Y-51335694D01*
X134614145Y-51335695D01*
X134416031Y-51395793D01*
X134210000Y-51416085D01*
X134003968Y-51395793D01*
X133805854Y-51335695D01*
X133805851Y-51335694D01*
X133709025Y-51283939D01*
X133623271Y-51238103D01*
X133463235Y-51106765D01*
X133331897Y-50946729D01*
X133234307Y-50764149D01*
X133234306Y-50764148D01*
X133234305Y-50764145D01*
X133174207Y-50566031D01*
X133159000Y-50411629D01*
X133159001Y-48308370D01*
X133174208Y-48153968D01*
X133234306Y-47955854D01*
X133234307Y-47955851D01*
X133286062Y-47859025D01*
X133331898Y-47773271D01*
X133463236Y-47613235D01*
X133623272Y-47481897D01*
X133709026Y-47436061D01*
X133805852Y-47384306D01*
X133805855Y-47384305D01*
X134003969Y-47324207D01*
X134210000Y-47303915D01*
X134416032Y-47324207D01*
X134416032Y-47324207D01*
G37*
G36*
X130606032Y-47324207D02*
G01*
X130804146Y-47384305D01*
X130804149Y-47384306D01*
X130900975Y-47436061D01*
X130986729Y-47481897D01*
X131146765Y-47613235D01*
X131278103Y-47773271D01*
X131323939Y-47859025D01*
X131375694Y-47955851D01*
X131375695Y-47955854D01*
X131435793Y-48153968D01*
X131451000Y-48308370D01*
X131451000Y-50411630D01*
X131435793Y-50566032D01*
X131375695Y-50764145D01*
X131375694Y-50764149D01*
X131323939Y-50860975D01*
X131278103Y-50946729D01*
X131146765Y-51106765D01*
X130986729Y-51238103D01*
X130870030Y-51300479D01*
X130804148Y-51335694D01*
X130804145Y-51335695D01*
X130606031Y-51395793D01*
X130400000Y-51416085D01*
X130193968Y-51395793D01*
X129995854Y-51335695D01*
X129995851Y-51335694D01*
X129899025Y-51283939D01*
X129813271Y-51238103D01*
X129653235Y-51106765D01*
X129521897Y-50946729D01*
X129424307Y-50764149D01*
X129424306Y-50764148D01*
X129424305Y-50764145D01*
X129364207Y-50566031D01*
X129349000Y-50411629D01*
X129349001Y-48308370D01*
X129364208Y-48153968D01*
X129424306Y-47955854D01*
X129424307Y-47955851D01*
X129476062Y-47859025D01*
X129521898Y-47773271D01*
X129653236Y-47613235D01*
X129813272Y-47481897D01*
X129899026Y-47436061D01*
X129995852Y-47384306D01*
X129995855Y-47384305D01*
X130193969Y-47324207D01*
X130400000Y-47303915D01*
X130606032Y-47324207D01*
X130606032Y-47324207D01*
G37*
G36*
X118543786Y-43377746D02*
G01*
X118574461Y-43387051D01*
X118602729Y-43402161D01*
X118627506Y-43422494D01*
X118647839Y-43447271D01*
X118662949Y-43475539D01*
X118672254Y-43506214D01*
X118676000Y-43544251D01*
X118676000Y-45855749D01*
X118672254Y-45893786D01*
X118662949Y-45924461D01*
X118647839Y-45952729D01*
X118627506Y-45977506D01*
X118602729Y-45997839D01*
X118574461Y-46012949D01*
X118543786Y-46022254D01*
X118505749Y-46026000D01*
X116494251Y-46026000D01*
X116456214Y-46022254D01*
X116425539Y-46012949D01*
X116397271Y-45997839D01*
X116372494Y-45977506D01*
X116352161Y-45952729D01*
X116337051Y-45924461D01*
X116327746Y-45893786D01*
X116324000Y-45855749D01*
X116324000Y-43544251D01*
X116327746Y-43506214D01*
X116337051Y-43475539D01*
X116352161Y-43447271D01*
X116372494Y-43422494D01*
X116397271Y-43402161D01*
X116425539Y-43387051D01*
X116456214Y-43377746D01*
X116494251Y-43374000D01*
X118505749Y-43374000D01*
X118543786Y-43377746D01*
X118543786Y-43377746D01*
G37*
G36*
X125343786Y-43377746D02*
G01*
X125374461Y-43387051D01*
X125402729Y-43402161D01*
X125427506Y-43422494D01*
X125447839Y-43447271D01*
X125462949Y-43475539D01*
X125472254Y-43506214D01*
X125476000Y-43544251D01*
X125476000Y-45855749D01*
X125472254Y-45893786D01*
X125462949Y-45924461D01*
X125447839Y-45952729D01*
X125427506Y-45977506D01*
X125402729Y-45997839D01*
X125374461Y-46012949D01*
X125343786Y-46022254D01*
X125305749Y-46026000D01*
X123294251Y-46026000D01*
X123256214Y-46022254D01*
X123225539Y-46012949D01*
X123197271Y-45997839D01*
X123172494Y-45977506D01*
X123152161Y-45952729D01*
X123137051Y-45924461D01*
X123127746Y-45893786D01*
X123124000Y-45855749D01*
X123124000Y-43544251D01*
X123127746Y-43506214D01*
X123137051Y-43475539D01*
X123152161Y-43447271D01*
X123172494Y-43422494D01*
X123197271Y-43402161D01*
X123225539Y-43387051D01*
X123256214Y-43377746D01*
X123294251Y-43374000D01*
X125305749Y-43374000D01*
X125343786Y-43377746D01*
X125343786Y-43377746D01*
G37*
G36*
X144893786Y-43377746D02*
G01*
X144924461Y-43387051D01*
X144952729Y-43402161D01*
X144977506Y-43422494D01*
X144997839Y-43447271D01*
X145012949Y-43475539D01*
X145022254Y-43506214D01*
X145026000Y-43544251D01*
X145026000Y-45855749D01*
X145022254Y-45893786D01*
X145012949Y-45924461D01*
X144997839Y-45952729D01*
X144977506Y-45977506D01*
X144952729Y-45997839D01*
X144924461Y-46012949D01*
X144893786Y-46022254D01*
X144855749Y-46026000D01*
X142844251Y-46026000D01*
X142806214Y-46022254D01*
X142775539Y-46012949D01*
X142747271Y-45997839D01*
X142722494Y-45977506D01*
X142702161Y-45952729D01*
X142687051Y-45924461D01*
X142677746Y-45893786D01*
X142674000Y-45855749D01*
X142674000Y-43544251D01*
X142677746Y-43506214D01*
X142687051Y-43475539D01*
X142702161Y-43447271D01*
X142722494Y-43422494D01*
X142747271Y-43402161D01*
X142775539Y-43387051D01*
X142806214Y-43377746D01*
X142844251Y-43374000D01*
X144855749Y-43374000D01*
X144893786Y-43377746D01*
X144893786Y-43377746D01*
G37*
G36*
X155943786Y-43377746D02*
G01*
X155974461Y-43387051D01*
X156002729Y-43402161D01*
X156027506Y-43422494D01*
X156047839Y-43447271D01*
X156062949Y-43475539D01*
X156072254Y-43506214D01*
X156076000Y-43544251D01*
X156076000Y-45855749D01*
X156072254Y-45893786D01*
X156062949Y-45924461D01*
X156047839Y-45952729D01*
X156027506Y-45977506D01*
X156002729Y-45997839D01*
X155974461Y-46012949D01*
X155943786Y-46022254D01*
X155905749Y-46026000D01*
X153894251Y-46026000D01*
X153856214Y-46022254D01*
X153825539Y-46012949D01*
X153797271Y-45997839D01*
X153772494Y-45977506D01*
X153752161Y-45952729D01*
X153737051Y-45924461D01*
X153727746Y-45893786D01*
X153724000Y-45855749D01*
X153724000Y-43544251D01*
X153727746Y-43506214D01*
X153737051Y-43475539D01*
X153752161Y-43447271D01*
X153772494Y-43422494D01*
X153797271Y-43402161D01*
X153825539Y-43387051D01*
X153856214Y-43377746D01*
X153894251Y-43374000D01*
X155905749Y-43374000D01*
X155943786Y-43377746D01*
X155943786Y-43377746D01*
G37*
G36*
X149543786Y-43377746D02*
G01*
X149574461Y-43387051D01*
X149602729Y-43402161D01*
X149627506Y-43422494D01*
X149647839Y-43447271D01*
X149662949Y-43475539D01*
X149672254Y-43506214D01*
X149676000Y-43544251D01*
X149676000Y-45855749D01*
X149672254Y-45893786D01*
X149662949Y-45924461D01*
X149647839Y-45952729D01*
X149627506Y-45977506D01*
X149602729Y-45997839D01*
X149574461Y-46012949D01*
X149543786Y-46022254D01*
X149505749Y-46026000D01*
X147494251Y-46026000D01*
X147456214Y-46022254D01*
X147425539Y-46012949D01*
X147397271Y-45997839D01*
X147372494Y-45977506D01*
X147352161Y-45952729D01*
X147337051Y-45924461D01*
X147327746Y-45893786D01*
X147324000Y-45855749D01*
X147324000Y-43544251D01*
X147327746Y-43506214D01*
X147337051Y-43475539D01*
X147352161Y-43447271D01*
X147372494Y-43422494D01*
X147397271Y-43402161D01*
X147425539Y-43387051D01*
X147456214Y-43377746D01*
X147494251Y-43374000D01*
X149505749Y-43374000D01*
X149543786Y-43377746D01*
X149543786Y-43377746D01*
G37*
G36*
X112143786Y-43377746D02*
G01*
X112174461Y-43387051D01*
X112202729Y-43402161D01*
X112227506Y-43422494D01*
X112247839Y-43447271D01*
X112262949Y-43475539D01*
X112272254Y-43506214D01*
X112276000Y-43544251D01*
X112276000Y-45855749D01*
X112272254Y-45893786D01*
X112262949Y-45924461D01*
X112247839Y-45952729D01*
X112227506Y-45977506D01*
X112202729Y-45997839D01*
X112174461Y-46012949D01*
X112143786Y-46022254D01*
X112105749Y-46026000D01*
X110094251Y-46026000D01*
X110056214Y-46022254D01*
X110025539Y-46012949D01*
X109997271Y-45997839D01*
X109972494Y-45977506D01*
X109952161Y-45952729D01*
X109937051Y-45924461D01*
X109927746Y-45893786D01*
X109924000Y-45855749D01*
X109924000Y-43544251D01*
X109927746Y-43506214D01*
X109937051Y-43475539D01*
X109952161Y-43447271D01*
X109972494Y-43422494D01*
X109997271Y-43402161D01*
X110025539Y-43387051D01*
X110056214Y-43377746D01*
X110094251Y-43374000D01*
X112105749Y-43374000D01*
X112143786Y-43377746D01*
X112143786Y-43377746D01*
G37*
G36*
X138493786Y-43377746D02*
G01*
X138524461Y-43387051D01*
X138552729Y-43402161D01*
X138577506Y-43422494D01*
X138597839Y-43447271D01*
X138612949Y-43475539D01*
X138622254Y-43506214D01*
X138626000Y-43544251D01*
X138626000Y-45855749D01*
X138622254Y-45893786D01*
X138612949Y-45924461D01*
X138597839Y-45952729D01*
X138577506Y-45977506D01*
X138552729Y-45997839D01*
X138524461Y-46012949D01*
X138493786Y-46022254D01*
X138455749Y-46026000D01*
X136444251Y-46026000D01*
X136406214Y-46022254D01*
X136375539Y-46012949D01*
X136347271Y-45997839D01*
X136322494Y-45977506D01*
X136302161Y-45952729D01*
X136287051Y-45924461D01*
X136277746Y-45893786D01*
X136274000Y-45855749D01*
X136274000Y-43544251D01*
X136277746Y-43506214D01*
X136287051Y-43475539D01*
X136302161Y-43447271D01*
X136322494Y-43422494D01*
X136347271Y-43402161D01*
X136375539Y-43387051D01*
X136406214Y-43377746D01*
X136444251Y-43374000D01*
X138455749Y-43374000D01*
X138493786Y-43377746D01*
X138493786Y-43377746D01*
G37*
G36*
X131743786Y-43377746D02*
G01*
X131774461Y-43387051D01*
X131802729Y-43402161D01*
X131827506Y-43422494D01*
X131847839Y-43447271D01*
X131862949Y-43475539D01*
X131872254Y-43506214D01*
X131876000Y-43544251D01*
X131876000Y-45855749D01*
X131872254Y-45893786D01*
X131862949Y-45924461D01*
X131847839Y-45952729D01*
X131827506Y-45977506D01*
X131802729Y-45997839D01*
X131774461Y-46012949D01*
X131743786Y-46022254D01*
X131705749Y-46026000D01*
X129694251Y-46026000D01*
X129656214Y-46022254D01*
X129625539Y-46012949D01*
X129597271Y-45997839D01*
X129572494Y-45977506D01*
X129552161Y-45952729D01*
X129537051Y-45924461D01*
X129527746Y-45893786D01*
X129524000Y-45855749D01*
X129524000Y-43544251D01*
X129527746Y-43506214D01*
X129537051Y-43475539D01*
X129552161Y-43447271D01*
X129572494Y-43422494D01*
X129597271Y-43402161D01*
X129625539Y-43387051D01*
X129656214Y-43377746D01*
X129694251Y-43374000D01*
X131705749Y-43374000D01*
X131743786Y-43377746D01*
X131743786Y-43377746D01*
G37*
G36*
X146464499Y-44803445D02*
G01*
X146501995Y-44814820D01*
X146536554Y-44833292D01*
X146566847Y-44858153D01*
X146591708Y-44888446D01*
X146610180Y-44923005D01*
X146621555Y-44960501D01*
X146626000Y-45005638D01*
X146626000Y-45744362D01*
X146621555Y-45789499D01*
X146610180Y-45826995D01*
X146591708Y-45861554D01*
X146566847Y-45891847D01*
X146536554Y-45916708D01*
X146501995Y-45935180D01*
X146464499Y-45946555D01*
X146419362Y-45951000D01*
X145780638Y-45951000D01*
X145735501Y-45946555D01*
X145698005Y-45935180D01*
X145663446Y-45916708D01*
X145633153Y-45891847D01*
X145608292Y-45861554D01*
X145589820Y-45826995D01*
X145578445Y-45789499D01*
X145574000Y-45744362D01*
X145574000Y-45005638D01*
X145578445Y-44960501D01*
X145589820Y-44923005D01*
X145608292Y-44888446D01*
X145633153Y-44858153D01*
X145663446Y-44833292D01*
X145698005Y-44814820D01*
X145735501Y-44803445D01*
X145780638Y-44799000D01*
X146419362Y-44799000D01*
X146464499Y-44803445D01*
X146464499Y-44803445D01*
G37*
G36*
X160951355Y-44152140D02*
G01*
X161015118Y-44158420D01*
X161089488Y-44180980D01*
X161137836Y-44195646D01*
X161250925Y-44256094D01*
X161350054Y-44337446D01*
X161431406Y-44436575D01*
X161491854Y-44549664D01*
X161491855Y-44549668D01*
X161529080Y-44672382D01*
X161541649Y-44800000D01*
X161529080Y-44927618D01*
X161519105Y-44960501D01*
X161491854Y-45050336D01*
X161431406Y-45163425D01*
X161350054Y-45262554D01*
X161250925Y-45343906D01*
X161137836Y-45404354D01*
X161105904Y-45414040D01*
X161015118Y-45441580D01*
X160951355Y-45447860D01*
X160919474Y-45451000D01*
X160155526Y-45451000D01*
X160123645Y-45447860D01*
X160059882Y-45441580D01*
X159969096Y-45414040D01*
X159937164Y-45404354D01*
X159824075Y-45343906D01*
X159724946Y-45262554D01*
X159643594Y-45163425D01*
X159583146Y-45050336D01*
X159555895Y-44960501D01*
X159545920Y-44927618D01*
X159533351Y-44800000D01*
X159545920Y-44672382D01*
X159583145Y-44549668D01*
X159583146Y-44549664D01*
X159643594Y-44436575D01*
X159724946Y-44337446D01*
X159824075Y-44256094D01*
X159937164Y-44195646D01*
X159985512Y-44180980D01*
X160059882Y-44158420D01*
X160123645Y-44152140D01*
X160155526Y-44149000D01*
X160919474Y-44149000D01*
X160951355Y-44152140D01*
X160951355Y-44152140D01*
G37*
G36*
X109089499Y-44178445D02*
G01*
X109126995Y-44189820D01*
X109161554Y-44208292D01*
X109191847Y-44233153D01*
X109216708Y-44263446D01*
X109235180Y-44298005D01*
X109246555Y-44335501D01*
X109251000Y-44380638D01*
X109251000Y-45019362D01*
X109246555Y-45064499D01*
X109235180Y-45101995D01*
X109216708Y-45136554D01*
X109191847Y-45166847D01*
X109161554Y-45191708D01*
X109126995Y-45210180D01*
X109089499Y-45221555D01*
X109044362Y-45226000D01*
X108305638Y-45226000D01*
X108260501Y-45221555D01*
X108223005Y-45210180D01*
X108188446Y-45191708D01*
X108158153Y-45166847D01*
X108133292Y-45136554D01*
X108114820Y-45101995D01*
X108103445Y-45064499D01*
X108099000Y-45019362D01*
X108099000Y-44380638D01*
X108103445Y-44335501D01*
X108114820Y-44298005D01*
X108133292Y-44263446D01*
X108158153Y-44233153D01*
X108188446Y-44208292D01*
X108223005Y-44189820D01*
X108260501Y-44178445D01*
X108305638Y-44174000D01*
X109044362Y-44174000D01*
X109089499Y-44178445D01*
X109089499Y-44178445D01*
G37*
G36*
X120339499Y-44178445D02*
G01*
X120376995Y-44189820D01*
X120411554Y-44208292D01*
X120441847Y-44233153D01*
X120466708Y-44263446D01*
X120485180Y-44298005D01*
X120496555Y-44335501D01*
X120501000Y-44380638D01*
X120501000Y-45019362D01*
X120496555Y-45064499D01*
X120485180Y-45101995D01*
X120466708Y-45136554D01*
X120441847Y-45166847D01*
X120411554Y-45191708D01*
X120376995Y-45210180D01*
X120339499Y-45221555D01*
X120294362Y-45226000D01*
X119555638Y-45226000D01*
X119510501Y-45221555D01*
X119473005Y-45210180D01*
X119438446Y-45191708D01*
X119408153Y-45166847D01*
X119383292Y-45136554D01*
X119364820Y-45101995D01*
X119353445Y-45064499D01*
X119349000Y-45019362D01*
X119349000Y-44380638D01*
X119353445Y-44335501D01*
X119364820Y-44298005D01*
X119383292Y-44263446D01*
X119408153Y-44233153D01*
X119438446Y-44208292D01*
X119473005Y-44189820D01*
X119510501Y-44178445D01*
X119555638Y-44174000D01*
X120294362Y-44174000D01*
X120339499Y-44178445D01*
X120339499Y-44178445D01*
G37*
G36*
X122089499Y-44178445D02*
G01*
X122126995Y-44189820D01*
X122161554Y-44208292D01*
X122191847Y-44233153D01*
X122216708Y-44263446D01*
X122235180Y-44298005D01*
X122246555Y-44335501D01*
X122251000Y-44380638D01*
X122251000Y-45019362D01*
X122246555Y-45064499D01*
X122235180Y-45101995D01*
X122216708Y-45136554D01*
X122191847Y-45166847D01*
X122161554Y-45191708D01*
X122126995Y-45210180D01*
X122089499Y-45221555D01*
X122044362Y-45226000D01*
X121305638Y-45226000D01*
X121260501Y-45221555D01*
X121223005Y-45210180D01*
X121188446Y-45191708D01*
X121158153Y-45166847D01*
X121133292Y-45136554D01*
X121114820Y-45101995D01*
X121103445Y-45064499D01*
X121099000Y-45019362D01*
X121099000Y-44380638D01*
X121103445Y-44335501D01*
X121114820Y-44298005D01*
X121133292Y-44263446D01*
X121158153Y-44233153D01*
X121188446Y-44208292D01*
X121223005Y-44189820D01*
X121260501Y-44178445D01*
X121305638Y-44174000D01*
X122044362Y-44174000D01*
X122089499Y-44178445D01*
X122089499Y-44178445D01*
G37*
G36*
X135314499Y-44178445D02*
G01*
X135351995Y-44189820D01*
X135386554Y-44208292D01*
X135416847Y-44233153D01*
X135441708Y-44263446D01*
X135460180Y-44298005D01*
X135471555Y-44335501D01*
X135476000Y-44380638D01*
X135476000Y-45019362D01*
X135471555Y-45064499D01*
X135460180Y-45101995D01*
X135441708Y-45136554D01*
X135416847Y-45166847D01*
X135386554Y-45191708D01*
X135351995Y-45210180D01*
X135314499Y-45221555D01*
X135269362Y-45226000D01*
X134530638Y-45226000D01*
X134485501Y-45221555D01*
X134448005Y-45210180D01*
X134413446Y-45191708D01*
X134383153Y-45166847D01*
X134358292Y-45136554D01*
X134339820Y-45101995D01*
X134328445Y-45064499D01*
X134324000Y-45019362D01*
X134324000Y-44380638D01*
X134328445Y-44335501D01*
X134339820Y-44298005D01*
X134358292Y-44263446D01*
X134383153Y-44233153D01*
X134413446Y-44208292D01*
X134448005Y-44189820D01*
X134485501Y-44178445D01*
X134530638Y-44174000D01*
X135269362Y-44174000D01*
X135314499Y-44178445D01*
X135314499Y-44178445D01*
G37*
G36*
X133564499Y-44178445D02*
G01*
X133601995Y-44189820D01*
X133636554Y-44208292D01*
X133666847Y-44233153D01*
X133691708Y-44263446D01*
X133710180Y-44298005D01*
X133721555Y-44335501D01*
X133726000Y-44380638D01*
X133726000Y-45019362D01*
X133721555Y-45064499D01*
X133710180Y-45101995D01*
X133691708Y-45136554D01*
X133666847Y-45166847D01*
X133636554Y-45191708D01*
X133601995Y-45210180D01*
X133564499Y-45221555D01*
X133519362Y-45226000D01*
X132780638Y-45226000D01*
X132735501Y-45221555D01*
X132698005Y-45210180D01*
X132663446Y-45191708D01*
X132633153Y-45166847D01*
X132608292Y-45136554D01*
X132589820Y-45101995D01*
X132578445Y-45064499D01*
X132574000Y-45019362D01*
X132574000Y-44380638D01*
X132578445Y-44335501D01*
X132589820Y-44298005D01*
X132608292Y-44263446D01*
X132633153Y-44233153D01*
X132663446Y-44208292D01*
X132698005Y-44189820D01*
X132735501Y-44178445D01*
X132780638Y-44174000D01*
X133519362Y-44174000D01*
X133564499Y-44178445D01*
X133564499Y-44178445D01*
G37*
G36*
X107339499Y-44178445D02*
G01*
X107376995Y-44189820D01*
X107411554Y-44208292D01*
X107441847Y-44233153D01*
X107466708Y-44263446D01*
X107485180Y-44298005D01*
X107496555Y-44335501D01*
X107501000Y-44380638D01*
X107501000Y-45019362D01*
X107496555Y-45064499D01*
X107485180Y-45101995D01*
X107466708Y-45136554D01*
X107441847Y-45166847D01*
X107411554Y-45191708D01*
X107376995Y-45210180D01*
X107339499Y-45221555D01*
X107294362Y-45226000D01*
X106555638Y-45226000D01*
X106510501Y-45221555D01*
X106473005Y-45210180D01*
X106438446Y-45191708D01*
X106408153Y-45166847D01*
X106383292Y-45136554D01*
X106364820Y-45101995D01*
X106353445Y-45064499D01*
X106349000Y-45019362D01*
X106349000Y-44380638D01*
X106353445Y-44335501D01*
X106364820Y-44298005D01*
X106383292Y-44263446D01*
X106408153Y-44233153D01*
X106438446Y-44208292D01*
X106473005Y-44189820D01*
X106510501Y-44178445D01*
X106555638Y-44174000D01*
X107294362Y-44174000D01*
X107339499Y-44178445D01*
X107339499Y-44178445D01*
G37*
G36*
X158063848Y-43053820D02*
G01*
X158063850Y-43053821D01*
X158063851Y-43053821D01*
X158205074Y-43112317D01*
X158205077Y-43112319D01*
X158332169Y-43197239D01*
X158440261Y-43305331D01*
X158515573Y-43418043D01*
X158525183Y-43432426D01*
X158571502Y-43544251D01*
X158583680Y-43573652D01*
X158595949Y-43635333D01*
X158613500Y-43723571D01*
X158613500Y-43876429D01*
X158583679Y-44026351D01*
X158525183Y-44167574D01*
X158525181Y-44167577D01*
X158440261Y-44294669D01*
X158332169Y-44402761D01*
X158205077Y-44487681D01*
X158205074Y-44487683D01*
X158063851Y-44546179D01*
X158063850Y-44546179D01*
X158063848Y-44546180D01*
X157913931Y-44576000D01*
X157761069Y-44576000D01*
X157611152Y-44546180D01*
X157611150Y-44546179D01*
X157611149Y-44546179D01*
X157469926Y-44487683D01*
X157469923Y-44487681D01*
X157342831Y-44402761D01*
X157234739Y-44294669D01*
X157149819Y-44167577D01*
X157149817Y-44167574D01*
X157091321Y-44026351D01*
X157061500Y-43876429D01*
X157061500Y-43723571D01*
X157079051Y-43635333D01*
X157091320Y-43573652D01*
X157103498Y-43544251D01*
X157149817Y-43432426D01*
X157159427Y-43418043D01*
X157234739Y-43305331D01*
X157342831Y-43197239D01*
X157469923Y-43112319D01*
X157469926Y-43112317D01*
X157611149Y-43053821D01*
X157611150Y-43053821D01*
X157611152Y-43053820D01*
X157761069Y-43024000D01*
X157913931Y-43024000D01*
X158063848Y-43053820D01*
X158063848Y-43053820D01*
G37*
G36*
X146464499Y-43053445D02*
G01*
X146501995Y-43064820D01*
X146536554Y-43083292D01*
X146566847Y-43108153D01*
X146591708Y-43138446D01*
X146610180Y-43173005D01*
X146621555Y-43210501D01*
X146626000Y-43255638D01*
X146626000Y-43994362D01*
X146621555Y-44039499D01*
X146610180Y-44076995D01*
X146591708Y-44111554D01*
X146566847Y-44141847D01*
X146536554Y-44166708D01*
X146501995Y-44185180D01*
X146464499Y-44196555D01*
X146419362Y-44201000D01*
X145780638Y-44201000D01*
X145735501Y-44196555D01*
X145698005Y-44185180D01*
X145663446Y-44166708D01*
X145633153Y-44141847D01*
X145608292Y-44111554D01*
X145589820Y-44076995D01*
X145578445Y-44039499D01*
X145574000Y-43994362D01*
X145574000Y-43255638D01*
X145578445Y-43210501D01*
X145589820Y-43173005D01*
X145608292Y-43138446D01*
X145633153Y-43108153D01*
X145663446Y-43083292D01*
X145698005Y-43064820D01*
X145735501Y-43053445D01*
X145780638Y-43049000D01*
X146419362Y-43049000D01*
X146464499Y-43053445D01*
X146464499Y-43053445D01*
G37*
G36*
X144144107Y-37813003D02*
G01*
X144349992Y-37875458D01*
X144539725Y-37976872D01*
X144539728Y-37976874D01*
X144539729Y-37976875D01*
X144706038Y-38113362D01*
X144837140Y-38273109D01*
X144842528Y-38279675D01*
X144943942Y-38469408D01*
X145006397Y-38675293D01*
X145022200Y-38835747D01*
X145022200Y-40924253D01*
X145006397Y-41084707D01*
X144943942Y-41290592D01*
X144842528Y-41480325D01*
X144706036Y-41646641D01*
X144595999Y-41736945D01*
X144539729Y-41783125D01*
X144539727Y-41783126D01*
X144349991Y-41884542D01*
X144144106Y-41946997D01*
X143930000Y-41968084D01*
X143715893Y-41946997D01*
X143510008Y-41884542D01*
X143320275Y-41783128D01*
X143153959Y-41646636D01*
X143061242Y-41533659D01*
X143017475Y-41480329D01*
X142916059Y-41290592D01*
X142916058Y-41290591D01*
X142853603Y-41084706D01*
X142837800Y-40924252D01*
X142837801Y-38835747D01*
X142853604Y-38675293D01*
X142916059Y-38469408D01*
X143017473Y-38279675D01*
X143022862Y-38273109D01*
X143153963Y-38113362D01*
X143320272Y-37976875D01*
X143320273Y-37976874D01*
X143320276Y-37976872D01*
X143510009Y-37875458D01*
X143715894Y-37813003D01*
X143930000Y-37791916D01*
X144144107Y-37813003D01*
X144144107Y-37813003D01*
G37*
G36*
X140334107Y-37813003D02*
G01*
X140539992Y-37875458D01*
X140729725Y-37976872D01*
X140729728Y-37976874D01*
X140729729Y-37976875D01*
X140896038Y-38113362D01*
X141027140Y-38273109D01*
X141032528Y-38279675D01*
X141133942Y-38469408D01*
X141196397Y-38675293D01*
X141212200Y-38835747D01*
X141212200Y-40924253D01*
X141196397Y-41084707D01*
X141133942Y-41290592D01*
X141032528Y-41480325D01*
X140896036Y-41646641D01*
X140785999Y-41736945D01*
X140729729Y-41783125D01*
X140729727Y-41783126D01*
X140539991Y-41884542D01*
X140334106Y-41946997D01*
X140120000Y-41968084D01*
X139905893Y-41946997D01*
X139700008Y-41884542D01*
X139510275Y-41783128D01*
X139343959Y-41646636D01*
X139251242Y-41533659D01*
X139207475Y-41480329D01*
X139106059Y-41290592D01*
X139106058Y-41290591D01*
X139043603Y-41084706D01*
X139027800Y-40924252D01*
X139027801Y-38835747D01*
X139043604Y-38675293D01*
X139106059Y-38469408D01*
X139207473Y-38279675D01*
X139212862Y-38273109D01*
X139343963Y-38113362D01*
X139510272Y-37976875D01*
X139510273Y-37976874D01*
X139510276Y-37976872D01*
X139700009Y-37875458D01*
X139905894Y-37813003D01*
X140120000Y-37791916D01*
X140334107Y-37813003D01*
X140334107Y-37813003D01*
G37*
G36*
X136524107Y-37813003D02*
G01*
X136729992Y-37875458D01*
X136919725Y-37976872D01*
X136919728Y-37976874D01*
X136919729Y-37976875D01*
X137086038Y-38113362D01*
X137217140Y-38273109D01*
X137222528Y-38279675D01*
X137323942Y-38469408D01*
X137386397Y-38675293D01*
X137402200Y-38835747D01*
X137402200Y-40924253D01*
X137386397Y-41084707D01*
X137323942Y-41290592D01*
X137222528Y-41480325D01*
X137086036Y-41646641D01*
X136975999Y-41736945D01*
X136919729Y-41783125D01*
X136919727Y-41783126D01*
X136729991Y-41884542D01*
X136524106Y-41946997D01*
X136310000Y-41968084D01*
X136095893Y-41946997D01*
X135890008Y-41884542D01*
X135700275Y-41783128D01*
X135533959Y-41646636D01*
X135441242Y-41533659D01*
X135397475Y-41480329D01*
X135296059Y-41290592D01*
X135296058Y-41290591D01*
X135233603Y-41084706D01*
X135217800Y-40924252D01*
X135217801Y-38835747D01*
X135233604Y-38675293D01*
X135296059Y-38469408D01*
X135397473Y-38279675D01*
X135402862Y-38273109D01*
X135533963Y-38113362D01*
X135700272Y-37976875D01*
X135700273Y-37976874D01*
X135700276Y-37976872D01*
X135890009Y-37875458D01*
X136095894Y-37813003D01*
X136310000Y-37791916D01*
X136524107Y-37813003D01*
X136524107Y-37813003D01*
G37*
G36*
X147954107Y-37813003D02*
G01*
X148159992Y-37875458D01*
X148349725Y-37976872D01*
X148349728Y-37976874D01*
X148349729Y-37976875D01*
X148516038Y-38113362D01*
X148647140Y-38273109D01*
X148652528Y-38279675D01*
X148753942Y-38469408D01*
X148816397Y-38675293D01*
X148832200Y-38835747D01*
X148832200Y-40924253D01*
X148816397Y-41084707D01*
X148753942Y-41290592D01*
X148652528Y-41480325D01*
X148516036Y-41646641D01*
X148405999Y-41736945D01*
X148349729Y-41783125D01*
X148349727Y-41783126D01*
X148159991Y-41884542D01*
X147954106Y-41946997D01*
X147740000Y-41968084D01*
X147525893Y-41946997D01*
X147320008Y-41884542D01*
X147130275Y-41783128D01*
X146963959Y-41646636D01*
X146871242Y-41533659D01*
X146827475Y-41480329D01*
X146726059Y-41290592D01*
X146726058Y-41290591D01*
X146663603Y-41084706D01*
X146647800Y-40924252D01*
X146647801Y-38835747D01*
X146663604Y-38675293D01*
X146726059Y-38469408D01*
X146827473Y-38279675D01*
X146832862Y-38273109D01*
X146963963Y-38113362D01*
X147130272Y-37976875D01*
X147130273Y-37976874D01*
X147130276Y-37976872D01*
X147320009Y-37875458D01*
X147525894Y-37813003D01*
X147740000Y-37791916D01*
X147954107Y-37813003D01*
X147954107Y-37813003D01*
G37*
G36*
X132714107Y-37813003D02*
G01*
X132919992Y-37875458D01*
X133109725Y-37976872D01*
X133109728Y-37976874D01*
X133109729Y-37976875D01*
X133276038Y-38113362D01*
X133407140Y-38273109D01*
X133412528Y-38279675D01*
X133513942Y-38469408D01*
X133576397Y-38675293D01*
X133592200Y-38835747D01*
X133592200Y-40924253D01*
X133576397Y-41084707D01*
X133513942Y-41290592D01*
X133412528Y-41480325D01*
X133276036Y-41646641D01*
X133165999Y-41736945D01*
X133109729Y-41783125D01*
X133109727Y-41783126D01*
X132919991Y-41884542D01*
X132714106Y-41946997D01*
X132500000Y-41968084D01*
X132285893Y-41946997D01*
X132080008Y-41884542D01*
X131890275Y-41783128D01*
X131723959Y-41646636D01*
X131631242Y-41533659D01*
X131587475Y-41480329D01*
X131486059Y-41290592D01*
X131486058Y-41290591D01*
X131423603Y-41084706D01*
X131407800Y-40924252D01*
X131407801Y-38835747D01*
X131423604Y-38675293D01*
X131486059Y-38469408D01*
X131587473Y-38279675D01*
X131592862Y-38273109D01*
X131723963Y-38113362D01*
X131890272Y-37976875D01*
X131890273Y-37976874D01*
X131890276Y-37976872D01*
X132080009Y-37875458D01*
X132285894Y-37813003D01*
X132500000Y-37791916D01*
X132714107Y-37813003D01*
X132714107Y-37813003D01*
G37*
G36*
X151764107Y-37813003D02*
G01*
X151969992Y-37875458D01*
X152159725Y-37976872D01*
X152159728Y-37976874D01*
X152159729Y-37976875D01*
X152326038Y-38113362D01*
X152457140Y-38273109D01*
X152462528Y-38279675D01*
X152563942Y-38469408D01*
X152626397Y-38675293D01*
X152642200Y-38835747D01*
X152642200Y-40924253D01*
X152626397Y-41084707D01*
X152563942Y-41290592D01*
X152462528Y-41480325D01*
X152326036Y-41646641D01*
X152215999Y-41736945D01*
X152159729Y-41783125D01*
X152159727Y-41783126D01*
X151969991Y-41884542D01*
X151764106Y-41946997D01*
X151550000Y-41968084D01*
X151335893Y-41946997D01*
X151130008Y-41884542D01*
X150940275Y-41783128D01*
X150773959Y-41646636D01*
X150681242Y-41533659D01*
X150637475Y-41480329D01*
X150536059Y-41290592D01*
X150536058Y-41290591D01*
X150473603Y-41084706D01*
X150457800Y-40924252D01*
X150457801Y-38835747D01*
X150473604Y-38675293D01*
X150536059Y-38469408D01*
X150637473Y-38279675D01*
X150642862Y-38273109D01*
X150773963Y-38113362D01*
X150940272Y-37976875D01*
X150940273Y-37976874D01*
X150940276Y-37976872D01*
X151130009Y-37875458D01*
X151335894Y-37813003D01*
X151550000Y-37791916D01*
X151764107Y-37813003D01*
X151764107Y-37813003D01*
G37*
G36*
X128904107Y-37813003D02*
G01*
X129109992Y-37875458D01*
X129299725Y-37976872D01*
X129299728Y-37976874D01*
X129299729Y-37976875D01*
X129466038Y-38113362D01*
X129597140Y-38273109D01*
X129602528Y-38279675D01*
X129703942Y-38469408D01*
X129766397Y-38675293D01*
X129782200Y-38835747D01*
X129782200Y-40924253D01*
X129766397Y-41084707D01*
X129703942Y-41290592D01*
X129602528Y-41480325D01*
X129466036Y-41646641D01*
X129355999Y-41736945D01*
X129299729Y-41783125D01*
X129299727Y-41783126D01*
X129109991Y-41884542D01*
X128904106Y-41946997D01*
X128690000Y-41968084D01*
X128475893Y-41946997D01*
X128270008Y-41884542D01*
X128080275Y-41783128D01*
X127913959Y-41646636D01*
X127821242Y-41533659D01*
X127777475Y-41480329D01*
X127676059Y-41290592D01*
X127676058Y-41290591D01*
X127613603Y-41084706D01*
X127597800Y-40924252D01*
X127597801Y-38835747D01*
X127613604Y-38675293D01*
X127676059Y-38469408D01*
X127777473Y-38279675D01*
X127782862Y-38273109D01*
X127913963Y-38113362D01*
X128080272Y-37976875D01*
X128080273Y-37976874D01*
X128080276Y-37976872D01*
X128270009Y-37875458D01*
X128475894Y-37813003D01*
X128690000Y-37791916D01*
X128904107Y-37813003D01*
X128904107Y-37813003D01*
G37*
G36*
X113664107Y-37813003D02*
G01*
X113869992Y-37875458D01*
X114059725Y-37976872D01*
X114059728Y-37976874D01*
X114059729Y-37976875D01*
X114226038Y-38113362D01*
X114357140Y-38273109D01*
X114362528Y-38279675D01*
X114463942Y-38469408D01*
X114526397Y-38675293D01*
X114542200Y-38835747D01*
X114542200Y-40924253D01*
X114526397Y-41084707D01*
X114463942Y-41290592D01*
X114362528Y-41480325D01*
X114226036Y-41646641D01*
X114115999Y-41736945D01*
X114059729Y-41783125D01*
X114059727Y-41783126D01*
X113869991Y-41884542D01*
X113664106Y-41946997D01*
X113450000Y-41968084D01*
X113235893Y-41946997D01*
X113030008Y-41884542D01*
X112840275Y-41783128D01*
X112673959Y-41646636D01*
X112581242Y-41533659D01*
X112537475Y-41480329D01*
X112436059Y-41290592D01*
X112436058Y-41290591D01*
X112373603Y-41084706D01*
X112357800Y-40924252D01*
X112357801Y-38835747D01*
X112373604Y-38675293D01*
X112436059Y-38469408D01*
X112537473Y-38279675D01*
X112542862Y-38273109D01*
X112673963Y-38113362D01*
X112840272Y-37976875D01*
X112840273Y-37976874D01*
X112840276Y-37976872D01*
X113030009Y-37875458D01*
X113235894Y-37813003D01*
X113450000Y-37791916D01*
X113664107Y-37813003D01*
X113664107Y-37813003D01*
G37*
G36*
X125094107Y-37813003D02*
G01*
X125299992Y-37875458D01*
X125489725Y-37976872D01*
X125489728Y-37976874D01*
X125489729Y-37976875D01*
X125656038Y-38113362D01*
X125787140Y-38273109D01*
X125792528Y-38279675D01*
X125893942Y-38469408D01*
X125956397Y-38675293D01*
X125972200Y-38835747D01*
X125972200Y-40924253D01*
X125956397Y-41084707D01*
X125893942Y-41290592D01*
X125792528Y-41480325D01*
X125656036Y-41646641D01*
X125545999Y-41736945D01*
X125489729Y-41783125D01*
X125489727Y-41783126D01*
X125299991Y-41884542D01*
X125094106Y-41946997D01*
X124880000Y-41968084D01*
X124665893Y-41946997D01*
X124460008Y-41884542D01*
X124270275Y-41783128D01*
X124103959Y-41646636D01*
X124011242Y-41533659D01*
X123967475Y-41480329D01*
X123866059Y-41290592D01*
X123866058Y-41290591D01*
X123803603Y-41084706D01*
X123787800Y-40924252D01*
X123787801Y-38835747D01*
X123803604Y-38675293D01*
X123866059Y-38469408D01*
X123967473Y-38279675D01*
X123972862Y-38273109D01*
X124103963Y-38113362D01*
X124270272Y-37976875D01*
X124270273Y-37976874D01*
X124270276Y-37976872D01*
X124460009Y-37875458D01*
X124665894Y-37813003D01*
X124880000Y-37791916D01*
X125094107Y-37813003D01*
X125094107Y-37813003D01*
G37*
G36*
X117474107Y-37813003D02*
G01*
X117679992Y-37875458D01*
X117869725Y-37976872D01*
X117869728Y-37976874D01*
X117869729Y-37976875D01*
X118036038Y-38113362D01*
X118167140Y-38273109D01*
X118172528Y-38279675D01*
X118273942Y-38469408D01*
X118336397Y-38675293D01*
X118352200Y-38835747D01*
X118352200Y-40924253D01*
X118336397Y-41084707D01*
X118273942Y-41290592D01*
X118172528Y-41480325D01*
X118036036Y-41646641D01*
X117925999Y-41736945D01*
X117869729Y-41783125D01*
X117869727Y-41783126D01*
X117679991Y-41884542D01*
X117474106Y-41946997D01*
X117260000Y-41968084D01*
X117045893Y-41946997D01*
X116840008Y-41884542D01*
X116650275Y-41783128D01*
X116483959Y-41646636D01*
X116391242Y-41533659D01*
X116347475Y-41480329D01*
X116246059Y-41290592D01*
X116246058Y-41290591D01*
X116183603Y-41084706D01*
X116167800Y-40924252D01*
X116167801Y-38835747D01*
X116183604Y-38675293D01*
X116246059Y-38469408D01*
X116347473Y-38279675D01*
X116352862Y-38273109D01*
X116483963Y-38113362D01*
X116650272Y-37976875D01*
X116650273Y-37976874D01*
X116650276Y-37976872D01*
X116840009Y-37875458D01*
X117045894Y-37813003D01*
X117260000Y-37791916D01*
X117474107Y-37813003D01*
X117474107Y-37813003D01*
G37*
G36*
X121284107Y-37813003D02*
G01*
X121489992Y-37875458D01*
X121679725Y-37976872D01*
X121679728Y-37976874D01*
X121679729Y-37976875D01*
X121846038Y-38113362D01*
X121977140Y-38273109D01*
X121982528Y-38279675D01*
X122083942Y-38469408D01*
X122146397Y-38675293D01*
X122162200Y-38835747D01*
X122162200Y-40924253D01*
X122146397Y-41084707D01*
X122083942Y-41290592D01*
X121982528Y-41480325D01*
X121846036Y-41646641D01*
X121735999Y-41736945D01*
X121679729Y-41783125D01*
X121679727Y-41783126D01*
X121489991Y-41884542D01*
X121284106Y-41946997D01*
X121070000Y-41968084D01*
X120855893Y-41946997D01*
X120650008Y-41884542D01*
X120460275Y-41783128D01*
X120293959Y-41646636D01*
X120201242Y-41533659D01*
X120157475Y-41480329D01*
X120056059Y-41290592D01*
X120056058Y-41290591D01*
X119993603Y-41084706D01*
X119977800Y-40924252D01*
X119977801Y-38835747D01*
X119993604Y-38675293D01*
X120056059Y-38469408D01*
X120157473Y-38279675D01*
X120162862Y-38273109D01*
X120293963Y-38113362D01*
X120460272Y-37976875D01*
X120460273Y-37976874D01*
X120460276Y-37976872D01*
X120650009Y-37875458D01*
X120855894Y-37813003D01*
X121070000Y-37791916D01*
X121284107Y-37813003D01*
X121284107Y-37813003D01*
G37*
G36*
X110405997Y-39253051D02*
G01*
X110439652Y-39263261D01*
X110470665Y-39279838D01*
X110497851Y-39302149D01*
X110520162Y-39329335D01*
X110536739Y-39360348D01*
X110546949Y-39394003D01*
X110551000Y-39435138D01*
X110551000Y-41764862D01*
X110546949Y-41805997D01*
X110536739Y-41839652D01*
X110520162Y-41870665D01*
X110497851Y-41897851D01*
X110470665Y-41920162D01*
X110439652Y-41936739D01*
X110405997Y-41946949D01*
X110364862Y-41951000D01*
X109035138Y-41951000D01*
X108994003Y-41946949D01*
X108960348Y-41936739D01*
X108929335Y-41920162D01*
X108902149Y-41897851D01*
X108879838Y-41870665D01*
X108863261Y-41839652D01*
X108853051Y-41805997D01*
X108849000Y-41764862D01*
X108849000Y-39435138D01*
X108853051Y-39394003D01*
X108863261Y-39360348D01*
X108879838Y-39329335D01*
X108902149Y-39302149D01*
X108929335Y-39279838D01*
X108960348Y-39263261D01*
X108994003Y-39253051D01*
X109035138Y-39249000D01*
X110364862Y-39249000D01*
X110405997Y-39253051D01*
X110405997Y-39253051D01*
G37*
G36*
X158063848Y-38053820D02*
G01*
X158063850Y-38053821D01*
X158063851Y-38053821D01*
X158205074Y-38112317D01*
X158205077Y-38112319D01*
X158332169Y-38197239D01*
X158440261Y-38305331D01*
X158525181Y-38432423D01*
X158525183Y-38432426D01*
X158583679Y-38573649D01*
X158613500Y-38723571D01*
X158613500Y-38876429D01*
X158583679Y-39026351D01*
X158525183Y-39167574D01*
X158525181Y-39167577D01*
X158440261Y-39294669D01*
X158332169Y-39402761D01*
X158283713Y-39435138D01*
X158205074Y-39487683D01*
X158063851Y-39546179D01*
X158063850Y-39546179D01*
X158063848Y-39546180D01*
X157913931Y-39576000D01*
X157761069Y-39576000D01*
X157611152Y-39546180D01*
X157611150Y-39546179D01*
X157611149Y-39546179D01*
X157469926Y-39487683D01*
X157391287Y-39435138D01*
X157342831Y-39402761D01*
X157234739Y-39294669D01*
X157149819Y-39167577D01*
X157149817Y-39167574D01*
X157091321Y-39026351D01*
X157061500Y-38876429D01*
X157061500Y-38723571D01*
X157091321Y-38573649D01*
X157149817Y-38432426D01*
X157149819Y-38432423D01*
X157234739Y-38305331D01*
X157342831Y-38197239D01*
X157469923Y-38112319D01*
X157469926Y-38112317D01*
X157611149Y-38053821D01*
X157611150Y-38053821D01*
X157611152Y-38053820D01*
X157761069Y-38024000D01*
X157913931Y-38024000D01*
X158063848Y-38053820D01*
X158063848Y-38053820D01*
G37*
G36*
X160951355Y-37152140D02*
G01*
X161015118Y-37158420D01*
X161105904Y-37185960D01*
X161137836Y-37195646D01*
X161250925Y-37256094D01*
X161350054Y-37337446D01*
X161431406Y-37436575D01*
X161491854Y-37549664D01*
X161491855Y-37549668D01*
X161529080Y-37672382D01*
X161541649Y-37800000D01*
X161529080Y-37927618D01*
X161514139Y-37976872D01*
X161491854Y-38050336D01*
X161431406Y-38163425D01*
X161350054Y-38262554D01*
X161250925Y-38343906D01*
X161137836Y-38404354D01*
X161105904Y-38414040D01*
X161015118Y-38441580D01*
X160951355Y-38447860D01*
X160919474Y-38451000D01*
X160155526Y-38451000D01*
X160123645Y-38447860D01*
X160059882Y-38441580D01*
X159969096Y-38414040D01*
X159937164Y-38404354D01*
X159824075Y-38343906D01*
X159724946Y-38262554D01*
X159643594Y-38163425D01*
X159583146Y-38050336D01*
X159560861Y-37976872D01*
X159545920Y-37927618D01*
X159533351Y-37800000D01*
X159545920Y-37672382D01*
X159583145Y-37549668D01*
X159583146Y-37549664D01*
X159643594Y-37436575D01*
X159724946Y-37337446D01*
X159824075Y-37256094D01*
X159937164Y-37195646D01*
X159969096Y-37185960D01*
X160059882Y-37158420D01*
X160123645Y-37152140D01*
X160155526Y-37149000D01*
X160919474Y-37149000D01*
X160951355Y-37152140D01*
X160951355Y-37152140D01*
G37*
G36*
X110405997Y-35653051D02*
G01*
X110439652Y-35663261D01*
X110470665Y-35679838D01*
X110497851Y-35702149D01*
X110520162Y-35729335D01*
X110536739Y-35760348D01*
X110546949Y-35794003D01*
X110551000Y-35835138D01*
X110551000Y-38164862D01*
X110546949Y-38205997D01*
X110536739Y-38239652D01*
X110520162Y-38270665D01*
X110497851Y-38297851D01*
X110470665Y-38320162D01*
X110439652Y-38336739D01*
X110405997Y-38346949D01*
X110364862Y-38351000D01*
X109035138Y-38351000D01*
X108994003Y-38346949D01*
X108960348Y-38336739D01*
X108929335Y-38320162D01*
X108902149Y-38297851D01*
X108879838Y-38270665D01*
X108863261Y-38239652D01*
X108853051Y-38205997D01*
X108849000Y-38164862D01*
X108849000Y-35835138D01*
X108853051Y-35794003D01*
X108863261Y-35760348D01*
X108879838Y-35729335D01*
X108902149Y-35702149D01*
X108929335Y-35679838D01*
X108960348Y-35663261D01*
X108994003Y-35653051D01*
X109035138Y-35649000D01*
X110364862Y-35649000D01*
X110405997Y-35653051D01*
X110405997Y-35653051D01*
G37*
G36*
X142239107Y-32733003D02*
G01*
X142444992Y-32795458D01*
X142634725Y-32896872D01*
X142634728Y-32896874D01*
X142634729Y-32896875D01*
X142760706Y-33000262D01*
X142801038Y-33033362D01*
X142937528Y-33199675D01*
X143038942Y-33389408D01*
X143101397Y-33595293D01*
X143117200Y-33755747D01*
X143117200Y-35844253D01*
X143101397Y-36004707D01*
X143038942Y-36210592D01*
X142937528Y-36400325D01*
X142801036Y-36566641D01*
X142688060Y-36659358D01*
X142634729Y-36703125D01*
X142634727Y-36703126D01*
X142444991Y-36804542D01*
X142239106Y-36866997D01*
X142025000Y-36888084D01*
X141810893Y-36866997D01*
X141605008Y-36804542D01*
X141415275Y-36703128D01*
X141248959Y-36566636D01*
X141143795Y-36438492D01*
X141112475Y-36400329D01*
X141102067Y-36380856D01*
X141011058Y-36210591D01*
X140948603Y-36004706D01*
X140932800Y-35844252D01*
X140932801Y-33755747D01*
X140948604Y-33595293D01*
X141011059Y-33389408D01*
X141112473Y-33199675D01*
X141248963Y-33033362D01*
X141289295Y-33000262D01*
X141415272Y-32896875D01*
X141415273Y-32896874D01*
X141415276Y-32896872D01*
X141605009Y-32795458D01*
X141810894Y-32733003D01*
X142025000Y-32711916D01*
X142239107Y-32733003D01*
X142239107Y-32733003D01*
G37*
G36*
X138429107Y-32733003D02*
G01*
X138634992Y-32795458D01*
X138824725Y-32896872D01*
X138824728Y-32896874D01*
X138824729Y-32896875D01*
X138950706Y-33000262D01*
X138991038Y-33033362D01*
X139127528Y-33199675D01*
X139228942Y-33389408D01*
X139291397Y-33595293D01*
X139307200Y-33755747D01*
X139307200Y-35844253D01*
X139291397Y-36004707D01*
X139228942Y-36210592D01*
X139127528Y-36400325D01*
X138991036Y-36566641D01*
X138878060Y-36659358D01*
X138824729Y-36703125D01*
X138824727Y-36703126D01*
X138634991Y-36804542D01*
X138429106Y-36866997D01*
X138215000Y-36888084D01*
X138000893Y-36866997D01*
X137795008Y-36804542D01*
X137605275Y-36703128D01*
X137438959Y-36566636D01*
X137333795Y-36438492D01*
X137302475Y-36400329D01*
X137292067Y-36380856D01*
X137201058Y-36210591D01*
X137138603Y-36004706D01*
X137122800Y-35844252D01*
X137122801Y-33755747D01*
X137138604Y-33595293D01*
X137201059Y-33389408D01*
X137302473Y-33199675D01*
X137438963Y-33033362D01*
X137479295Y-33000262D01*
X137605272Y-32896875D01*
X137605273Y-32896874D01*
X137605276Y-32896872D01*
X137795009Y-32795458D01*
X138000894Y-32733003D01*
X138215000Y-32711916D01*
X138429107Y-32733003D01*
X138429107Y-32733003D01*
G37*
G36*
X146049107Y-32733003D02*
G01*
X146254992Y-32795458D01*
X146444725Y-32896872D01*
X146444728Y-32896874D01*
X146444729Y-32896875D01*
X146570706Y-33000262D01*
X146611038Y-33033362D01*
X146747528Y-33199675D01*
X146848942Y-33389408D01*
X146911397Y-33595293D01*
X146927200Y-33755747D01*
X146927200Y-35844253D01*
X146911397Y-36004707D01*
X146848942Y-36210592D01*
X146747528Y-36400325D01*
X146611036Y-36566641D01*
X146498060Y-36659358D01*
X146444729Y-36703125D01*
X146444727Y-36703126D01*
X146254991Y-36804542D01*
X146049106Y-36866997D01*
X145835000Y-36888084D01*
X145620893Y-36866997D01*
X145415008Y-36804542D01*
X145225275Y-36703128D01*
X145058959Y-36566636D01*
X144953795Y-36438492D01*
X144922475Y-36400329D01*
X144912067Y-36380856D01*
X144821058Y-36210591D01*
X144758603Y-36004706D01*
X144742800Y-35844252D01*
X144742801Y-33755747D01*
X144758604Y-33595293D01*
X144821059Y-33389408D01*
X144922473Y-33199675D01*
X145058963Y-33033362D01*
X145099295Y-33000262D01*
X145225272Y-32896875D01*
X145225273Y-32896874D01*
X145225276Y-32896872D01*
X145415009Y-32795458D01*
X145620894Y-32733003D01*
X145835000Y-32711916D01*
X146049107Y-32733003D01*
X146049107Y-32733003D01*
G37*
G36*
X134619107Y-32733003D02*
G01*
X134824992Y-32795458D01*
X135014725Y-32896872D01*
X135014728Y-32896874D01*
X135014729Y-32896875D01*
X135140706Y-33000262D01*
X135181038Y-33033362D01*
X135317528Y-33199675D01*
X135418942Y-33389408D01*
X135481397Y-33595293D01*
X135497200Y-33755747D01*
X135497200Y-35844253D01*
X135481397Y-36004707D01*
X135418942Y-36210592D01*
X135317528Y-36400325D01*
X135181036Y-36566641D01*
X135068060Y-36659358D01*
X135014729Y-36703125D01*
X135014727Y-36703126D01*
X134824991Y-36804542D01*
X134619106Y-36866997D01*
X134405000Y-36888084D01*
X134190893Y-36866997D01*
X133985008Y-36804542D01*
X133795275Y-36703128D01*
X133628959Y-36566636D01*
X133523795Y-36438492D01*
X133492475Y-36400329D01*
X133482067Y-36380856D01*
X133391058Y-36210591D01*
X133328603Y-36004706D01*
X133312800Y-35844252D01*
X133312801Y-33755747D01*
X133328604Y-33595293D01*
X133391059Y-33389408D01*
X133492473Y-33199675D01*
X133628963Y-33033362D01*
X133669295Y-33000262D01*
X133795272Y-32896875D01*
X133795273Y-32896874D01*
X133795276Y-32896872D01*
X133985009Y-32795458D01*
X134190894Y-32733003D01*
X134405000Y-32711916D01*
X134619107Y-32733003D01*
X134619107Y-32733003D01*
G37*
G36*
X149859107Y-32733003D02*
G01*
X150064992Y-32795458D01*
X150254725Y-32896872D01*
X150254728Y-32896874D01*
X150254729Y-32896875D01*
X150380706Y-33000262D01*
X150421038Y-33033362D01*
X150557528Y-33199675D01*
X150658942Y-33389408D01*
X150721397Y-33595293D01*
X150737200Y-33755747D01*
X150737200Y-35844253D01*
X150721397Y-36004707D01*
X150658942Y-36210592D01*
X150557528Y-36400325D01*
X150421036Y-36566641D01*
X150308060Y-36659358D01*
X150254729Y-36703125D01*
X150254727Y-36703126D01*
X150064991Y-36804542D01*
X149859106Y-36866997D01*
X149645000Y-36888084D01*
X149430893Y-36866997D01*
X149225008Y-36804542D01*
X149035275Y-36703128D01*
X148868959Y-36566636D01*
X148763795Y-36438492D01*
X148732475Y-36400329D01*
X148722067Y-36380856D01*
X148631058Y-36210591D01*
X148568603Y-36004706D01*
X148552800Y-35844252D01*
X148552801Y-33755747D01*
X148568604Y-33595293D01*
X148631059Y-33389408D01*
X148732473Y-33199675D01*
X148868963Y-33033362D01*
X148909295Y-33000262D01*
X149035272Y-32896875D01*
X149035273Y-32896874D01*
X149035276Y-32896872D01*
X149225009Y-32795458D01*
X149430894Y-32733003D01*
X149645000Y-32711916D01*
X149859107Y-32733003D01*
X149859107Y-32733003D01*
G37*
G36*
X130809107Y-32733003D02*
G01*
X131014992Y-32795458D01*
X131204725Y-32896872D01*
X131204728Y-32896874D01*
X131204729Y-32896875D01*
X131330706Y-33000262D01*
X131371038Y-33033362D01*
X131507528Y-33199675D01*
X131608942Y-33389408D01*
X131671397Y-33595293D01*
X131687200Y-33755747D01*
X131687200Y-35844253D01*
X131671397Y-36004707D01*
X131608942Y-36210592D01*
X131507528Y-36400325D01*
X131371036Y-36566641D01*
X131258060Y-36659358D01*
X131204729Y-36703125D01*
X131204727Y-36703126D01*
X131014991Y-36804542D01*
X130809106Y-36866997D01*
X130595000Y-36888084D01*
X130380893Y-36866997D01*
X130175008Y-36804542D01*
X129985275Y-36703128D01*
X129818959Y-36566636D01*
X129713795Y-36438492D01*
X129682475Y-36400329D01*
X129672067Y-36380856D01*
X129581058Y-36210591D01*
X129518603Y-36004706D01*
X129502800Y-35844252D01*
X129502801Y-33755747D01*
X129518604Y-33595293D01*
X129581059Y-33389408D01*
X129682473Y-33199675D01*
X129818963Y-33033362D01*
X129859295Y-33000262D01*
X129985272Y-32896875D01*
X129985273Y-32896874D01*
X129985276Y-32896872D01*
X130175009Y-32795458D01*
X130380894Y-32733003D01*
X130595000Y-32711916D01*
X130809107Y-32733003D01*
X130809107Y-32733003D01*
G37*
G36*
X126999107Y-32733003D02*
G01*
X127204992Y-32795458D01*
X127394725Y-32896872D01*
X127394728Y-32896874D01*
X127394729Y-32896875D01*
X127520706Y-33000262D01*
X127561038Y-33033362D01*
X127697528Y-33199675D01*
X127798942Y-33389408D01*
X127861397Y-33595293D01*
X127877200Y-33755747D01*
X127877200Y-35844253D01*
X127861397Y-36004707D01*
X127798942Y-36210592D01*
X127697528Y-36400325D01*
X127561036Y-36566641D01*
X127448060Y-36659358D01*
X127394729Y-36703125D01*
X127394727Y-36703126D01*
X127204991Y-36804542D01*
X126999106Y-36866997D01*
X126785000Y-36888084D01*
X126570893Y-36866997D01*
X126365008Y-36804542D01*
X126175275Y-36703128D01*
X126008959Y-36566636D01*
X125903795Y-36438492D01*
X125872475Y-36400329D01*
X125862067Y-36380856D01*
X125771058Y-36210591D01*
X125708603Y-36004706D01*
X125692800Y-35844252D01*
X125692801Y-33755747D01*
X125708604Y-33595293D01*
X125771059Y-33389408D01*
X125872473Y-33199675D01*
X126008963Y-33033362D01*
X126049295Y-33000262D01*
X126175272Y-32896875D01*
X126175273Y-32896874D01*
X126175276Y-32896872D01*
X126365009Y-32795458D01*
X126570894Y-32733003D01*
X126785000Y-32711916D01*
X126999107Y-32733003D01*
X126999107Y-32733003D01*
G37*
G36*
X119379107Y-32733003D02*
G01*
X119584992Y-32795458D01*
X119774725Y-32896872D01*
X119774728Y-32896874D01*
X119774729Y-32896875D01*
X119900706Y-33000262D01*
X119941038Y-33033362D01*
X120077528Y-33199675D01*
X120178942Y-33389408D01*
X120241397Y-33595293D01*
X120257200Y-33755747D01*
X120257200Y-35844253D01*
X120241397Y-36004707D01*
X120178942Y-36210592D01*
X120077528Y-36400325D01*
X119941036Y-36566641D01*
X119828060Y-36659358D01*
X119774729Y-36703125D01*
X119774727Y-36703126D01*
X119584991Y-36804542D01*
X119379106Y-36866997D01*
X119165000Y-36888084D01*
X118950893Y-36866997D01*
X118745008Y-36804542D01*
X118555275Y-36703128D01*
X118388959Y-36566636D01*
X118283795Y-36438492D01*
X118252475Y-36400329D01*
X118242067Y-36380856D01*
X118151058Y-36210591D01*
X118088603Y-36004706D01*
X118072800Y-35844252D01*
X118072801Y-33755747D01*
X118088604Y-33595293D01*
X118151059Y-33389408D01*
X118252473Y-33199675D01*
X118388963Y-33033362D01*
X118429295Y-33000262D01*
X118555272Y-32896875D01*
X118555273Y-32896874D01*
X118555276Y-32896872D01*
X118745009Y-32795458D01*
X118950894Y-32733003D01*
X119165000Y-32711916D01*
X119379107Y-32733003D01*
X119379107Y-32733003D01*
G37*
G36*
X115569107Y-32733003D02*
G01*
X115774992Y-32795458D01*
X115964725Y-32896872D01*
X115964728Y-32896874D01*
X115964729Y-32896875D01*
X116090706Y-33000262D01*
X116131038Y-33033362D01*
X116267528Y-33199675D01*
X116368942Y-33389408D01*
X116431397Y-33595293D01*
X116447200Y-33755747D01*
X116447200Y-35844253D01*
X116431397Y-36004707D01*
X116368942Y-36210592D01*
X116267528Y-36400325D01*
X116131036Y-36566641D01*
X116018060Y-36659358D01*
X115964729Y-36703125D01*
X115964727Y-36703126D01*
X115774991Y-36804542D01*
X115569106Y-36866997D01*
X115355000Y-36888084D01*
X115140893Y-36866997D01*
X114935008Y-36804542D01*
X114745275Y-36703128D01*
X114578959Y-36566636D01*
X114473795Y-36438492D01*
X114442475Y-36400329D01*
X114432067Y-36380856D01*
X114341058Y-36210591D01*
X114278603Y-36004706D01*
X114262800Y-35844252D01*
X114262801Y-33755747D01*
X114278604Y-33595293D01*
X114341059Y-33389408D01*
X114442473Y-33199675D01*
X114578963Y-33033362D01*
X114619295Y-33000262D01*
X114745272Y-32896875D01*
X114745273Y-32896874D01*
X114745276Y-32896872D01*
X114935009Y-32795458D01*
X115140894Y-32733003D01*
X115355000Y-32711916D01*
X115569107Y-32733003D01*
X115569107Y-32733003D01*
G37*
G36*
X123189107Y-32733003D02*
G01*
X123394992Y-32795458D01*
X123584725Y-32896872D01*
X123584728Y-32896874D01*
X123584729Y-32896875D01*
X123710706Y-33000262D01*
X123751038Y-33033362D01*
X123887528Y-33199675D01*
X123988942Y-33389408D01*
X124051397Y-33595293D01*
X124067200Y-33755747D01*
X124067200Y-35844253D01*
X124051397Y-36004707D01*
X123988942Y-36210592D01*
X123887528Y-36400325D01*
X123751036Y-36566641D01*
X123638060Y-36659358D01*
X123584729Y-36703125D01*
X123584727Y-36703126D01*
X123394991Y-36804542D01*
X123189106Y-36866997D01*
X122975000Y-36888084D01*
X122760893Y-36866997D01*
X122555008Y-36804542D01*
X122365275Y-36703128D01*
X122198959Y-36566636D01*
X122093795Y-36438492D01*
X122062475Y-36400329D01*
X122052067Y-36380856D01*
X121961058Y-36210591D01*
X121898603Y-36004706D01*
X121882800Y-35844252D01*
X121882801Y-33755747D01*
X121898604Y-33595293D01*
X121961059Y-33389408D01*
X122062473Y-33199675D01*
X122198963Y-33033362D01*
X122239295Y-33000262D01*
X122365272Y-32896875D01*
X122365273Y-32896874D01*
X122365276Y-32896872D01*
X122555009Y-32795458D01*
X122760894Y-32733003D01*
X122975000Y-32711916D01*
X123189107Y-32733003D01*
X123189107Y-32733003D01*
G37*
G36*
X159371705Y-33551738D02*
G01*
X159656025Y-33669507D01*
X159911907Y-33840482D01*
X160129518Y-34058093D01*
X160300493Y-34313975D01*
X160418262Y-34598295D01*
X160478300Y-34900126D01*
X160478300Y-35207874D01*
X160418262Y-35509705D01*
X160300493Y-35794025D01*
X160129518Y-36049907D01*
X159911907Y-36267518D01*
X159656025Y-36438493D01*
X159371705Y-36556262D01*
X159069874Y-36616300D01*
X158762126Y-36616300D01*
X158460295Y-36556262D01*
X158175975Y-36438493D01*
X157920093Y-36267518D01*
X157702482Y-36049907D01*
X157531507Y-35794025D01*
X157413738Y-35509705D01*
X157353700Y-35207874D01*
X157353700Y-34900126D01*
X157413738Y-34598295D01*
X157531507Y-34313975D01*
X157702482Y-34058093D01*
X157920093Y-33840482D01*
X158175975Y-33669507D01*
X158460295Y-33551738D01*
X158762126Y-33491700D01*
X159069874Y-33491700D01*
X159371705Y-33551738D01*
X159371705Y-33551738D01*
G37*
G36*
X106539705Y-33551738D02*
G01*
X106824025Y-33669507D01*
X107079907Y-33840482D01*
X107297518Y-34058093D01*
X107468493Y-34313975D01*
X107586262Y-34598295D01*
X107646300Y-34900126D01*
X107646300Y-35207874D01*
X107586262Y-35509705D01*
X107468493Y-35794025D01*
X107297518Y-36049907D01*
X107079907Y-36267518D01*
X106824025Y-36438493D01*
X106539705Y-36556262D01*
X106237874Y-36616300D01*
X105930126Y-36616300D01*
X105628295Y-36556262D01*
X105343975Y-36438493D01*
X105088093Y-36267518D01*
X104870482Y-36049907D01*
X104699507Y-35794025D01*
X104581738Y-35509705D01*
X104521700Y-35207874D01*
X104521700Y-34900126D01*
X104581738Y-34598295D01*
X104699507Y-34313975D01*
X104870482Y-34058093D01*
X105088093Y-33840482D01*
X105343975Y-33669507D01*
X105628295Y-33551738D01*
X105930126Y-33491700D01*
X106237874Y-33491700D01*
X106539705Y-33551738D01*
X106539705Y-33551738D01*
G37*
G36*
X111464499Y-33678445D02*
G01*
X111501995Y-33689820D01*
X111536554Y-33708292D01*
X111566847Y-33733153D01*
X111591708Y-33763446D01*
X111610180Y-33798005D01*
X111621555Y-33835501D01*
X111626000Y-33880638D01*
X111626000Y-34519362D01*
X111621555Y-34564499D01*
X111610180Y-34601995D01*
X111591708Y-34636554D01*
X111566847Y-34666847D01*
X111536554Y-34691708D01*
X111501995Y-34710180D01*
X111464499Y-34721555D01*
X111419362Y-34726000D01*
X110680638Y-34726000D01*
X110635501Y-34721555D01*
X110598005Y-34710180D01*
X110563446Y-34691708D01*
X110533153Y-34666847D01*
X110508292Y-34636554D01*
X110489820Y-34601995D01*
X110478445Y-34564499D01*
X110474000Y-34519362D01*
X110474000Y-33880638D01*
X110478445Y-33835501D01*
X110489820Y-33798005D01*
X110508292Y-33763446D01*
X110533153Y-33733153D01*
X110563446Y-33708292D01*
X110598005Y-33689820D01*
X110635501Y-33678445D01*
X110680638Y-33674000D01*
X111419362Y-33674000D01*
X111464499Y-33678445D01*
X111464499Y-33678445D01*
G37*
G36*
X113214499Y-33678445D02*
G01*
X113251995Y-33689820D01*
X113286554Y-33708292D01*
X113316847Y-33733153D01*
X113341708Y-33763446D01*
X113360180Y-33798005D01*
X113371555Y-33835501D01*
X113376000Y-33880638D01*
X113376000Y-34519362D01*
X113371555Y-34564499D01*
X113360180Y-34601995D01*
X113341708Y-34636554D01*
X113316847Y-34666847D01*
X113286554Y-34691708D01*
X113251995Y-34710180D01*
X113214499Y-34721555D01*
X113169362Y-34726000D01*
X112430638Y-34726000D01*
X112385501Y-34721555D01*
X112348005Y-34710180D01*
X112313446Y-34691708D01*
X112283153Y-34666847D01*
X112258292Y-34636554D01*
X112239820Y-34601995D01*
X112228445Y-34564499D01*
X112224000Y-34519362D01*
X112224000Y-33880638D01*
X112228445Y-33835501D01*
X112239820Y-33798005D01*
X112258292Y-33763446D01*
X112283153Y-33733153D01*
X112313446Y-33708292D01*
X112348005Y-33689820D01*
X112385501Y-33678445D01*
X112430638Y-33674000D01*
X113169362Y-33674000D01*
X113214499Y-33678445D01*
X113214499Y-33678445D01*
G37*
G36*
X106539705Y-29995738D02*
G01*
X106824025Y-30113507D01*
X107079907Y-30284482D01*
X107297518Y-30502093D01*
X107468493Y-30757975D01*
X107586262Y-31042295D01*
X107646300Y-31344126D01*
X107646300Y-31651874D01*
X107586262Y-31953705D01*
X107468493Y-32238025D01*
X107297518Y-32493907D01*
X107079907Y-32711518D01*
X106824025Y-32882493D01*
X106539705Y-33000262D01*
X106237874Y-33060300D01*
X105930126Y-33060300D01*
X105628295Y-33000262D01*
X105343975Y-32882493D01*
X105088093Y-32711518D01*
X104870482Y-32493907D01*
X104699507Y-32238025D01*
X104581738Y-31953705D01*
X104521700Y-31651874D01*
X104521700Y-31344126D01*
X104581738Y-31042295D01*
X104699507Y-30757975D01*
X104870482Y-30502093D01*
X105088093Y-30284482D01*
X105343975Y-30113507D01*
X105628295Y-29995738D01*
X105930126Y-29935700D01*
X106237874Y-29935700D01*
X106539705Y-29995738D01*
X106539705Y-29995738D01*
G37*
G36*
X159371705Y-29995738D02*
G01*
X159656025Y-30113507D01*
X159911907Y-30284482D01*
X160129518Y-30502093D01*
X160300493Y-30757975D01*
X160418262Y-31042295D01*
X160478300Y-31344126D01*
X160478300Y-31651874D01*
X160418262Y-31953705D01*
X160300493Y-32238025D01*
X160129518Y-32493907D01*
X159911907Y-32711518D01*
X159656025Y-32882493D01*
X159371705Y-33000262D01*
X159069874Y-33060300D01*
X158762126Y-33060300D01*
X158460295Y-33000262D01*
X158175975Y-32882493D01*
X157920093Y-32711518D01*
X157702482Y-32493907D01*
X157531507Y-32238025D01*
X157413738Y-31953705D01*
X157353700Y-31651874D01*
X157353700Y-31344126D01*
X157413738Y-31042295D01*
X157531507Y-30757975D01*
X157702482Y-30502093D01*
X157920093Y-30284482D01*
X158175975Y-30113507D01*
X158460295Y-29995738D01*
X158762126Y-29935700D01*
X159069874Y-29935700D01*
X159371705Y-29995738D01*
X159371705Y-29995738D01*
G37*
G36*
X117126000Y-30276000D02*
G01*
X115574000Y-30276000D01*
X115574000Y-25824000D01*
X117126000Y-25824000D01*
X117126000Y-30276000D01*
X117126000Y-30276000D01*
G37*
G36*
X123026000Y-30276000D02*
G01*
X121474000Y-30276000D01*
X121474000Y-25824000D01*
X123026000Y-25824000D01*
X123026000Y-30276000D01*
X123026000Y-30276000D01*
G37*
G36*
X150664499Y-28478445D02*
G01*
X150701995Y-28489820D01*
X150736554Y-28508292D01*
X150766847Y-28533153D01*
X150791708Y-28563446D01*
X150810180Y-28598005D01*
X150821555Y-28635501D01*
X150826000Y-28680638D01*
X150826000Y-29319362D01*
X150821555Y-29364499D01*
X150810180Y-29401995D01*
X150791708Y-29436554D01*
X150766847Y-29466847D01*
X150736554Y-29491708D01*
X150701995Y-29510180D01*
X150664499Y-29521555D01*
X150619362Y-29526000D01*
X149880638Y-29526000D01*
X149835501Y-29521555D01*
X149798005Y-29510180D01*
X149763446Y-29491708D01*
X149733153Y-29466847D01*
X149708292Y-29436554D01*
X149689820Y-29401995D01*
X149678445Y-29364499D01*
X149674000Y-29319362D01*
X149674000Y-28680638D01*
X149678445Y-28635501D01*
X149689820Y-28598005D01*
X149708292Y-28563446D01*
X149733153Y-28533153D01*
X149763446Y-28508292D01*
X149798005Y-28489820D01*
X149835501Y-28478445D01*
X149880638Y-28474000D01*
X150619362Y-28474000D01*
X150664499Y-28478445D01*
X150664499Y-28478445D01*
G37*
G36*
X135414499Y-28478445D02*
G01*
X135451995Y-28489820D01*
X135486554Y-28508292D01*
X135516847Y-28533153D01*
X135541708Y-28563446D01*
X135560180Y-28598005D01*
X135571555Y-28635501D01*
X135576000Y-28680638D01*
X135576000Y-29319362D01*
X135571555Y-29364499D01*
X135560180Y-29401995D01*
X135541708Y-29436554D01*
X135516847Y-29466847D01*
X135486554Y-29491708D01*
X135451995Y-29510180D01*
X135414499Y-29521555D01*
X135369362Y-29526000D01*
X134630638Y-29526000D01*
X134585501Y-29521555D01*
X134548005Y-29510180D01*
X134513446Y-29491708D01*
X134483153Y-29466847D01*
X134458292Y-29436554D01*
X134439820Y-29401995D01*
X134428445Y-29364499D01*
X134424000Y-29319362D01*
X134424000Y-28680638D01*
X134428445Y-28635501D01*
X134439820Y-28598005D01*
X134458292Y-28563446D01*
X134483153Y-28533153D01*
X134513446Y-28508292D01*
X134548005Y-28489820D01*
X134585501Y-28478445D01*
X134630638Y-28474000D01*
X135369362Y-28474000D01*
X135414499Y-28478445D01*
X135414499Y-28478445D01*
G37*
G36*
X133664499Y-28478445D02*
G01*
X133701995Y-28489820D01*
X133736554Y-28508292D01*
X133766847Y-28533153D01*
X133791708Y-28563446D01*
X133810180Y-28598005D01*
X133821555Y-28635501D01*
X133826000Y-28680638D01*
X133826000Y-29319362D01*
X133821555Y-29364499D01*
X133810180Y-29401995D01*
X133791708Y-29436554D01*
X133766847Y-29466847D01*
X133736554Y-29491708D01*
X133701995Y-29510180D01*
X133664499Y-29521555D01*
X133619362Y-29526000D01*
X132880638Y-29526000D01*
X132835501Y-29521555D01*
X132798005Y-29510180D01*
X132763446Y-29491708D01*
X132733153Y-29466847D01*
X132708292Y-29436554D01*
X132689820Y-29401995D01*
X132678445Y-29364499D01*
X132674000Y-29319362D01*
X132674000Y-28680638D01*
X132678445Y-28635501D01*
X132689820Y-28598005D01*
X132708292Y-28563446D01*
X132733153Y-28533153D01*
X132763446Y-28508292D01*
X132798005Y-28489820D01*
X132835501Y-28478445D01*
X132880638Y-28474000D01*
X133619362Y-28474000D01*
X133664499Y-28478445D01*
X133664499Y-28478445D01*
G37*
G36*
X141314499Y-28478445D02*
G01*
X141351995Y-28489820D01*
X141386554Y-28508292D01*
X141416847Y-28533153D01*
X141441708Y-28563446D01*
X141460180Y-28598005D01*
X141471555Y-28635501D01*
X141476000Y-28680638D01*
X141476000Y-29319362D01*
X141471555Y-29364499D01*
X141460180Y-29401995D01*
X141441708Y-29436554D01*
X141416847Y-29466847D01*
X141386554Y-29491708D01*
X141351995Y-29510180D01*
X141314499Y-29521555D01*
X141269362Y-29526000D01*
X140530638Y-29526000D01*
X140485501Y-29521555D01*
X140448005Y-29510180D01*
X140413446Y-29491708D01*
X140383153Y-29466847D01*
X140358292Y-29436554D01*
X140339820Y-29401995D01*
X140328445Y-29364499D01*
X140324000Y-29319362D01*
X140324000Y-28680638D01*
X140328445Y-28635501D01*
X140339820Y-28598005D01*
X140358292Y-28563446D01*
X140383153Y-28533153D01*
X140413446Y-28508292D01*
X140448005Y-28489820D01*
X140485501Y-28478445D01*
X140530638Y-28474000D01*
X141269362Y-28474000D01*
X141314499Y-28478445D01*
X141314499Y-28478445D01*
G37*
G36*
X143064499Y-28478445D02*
G01*
X143101995Y-28489820D01*
X143136554Y-28508292D01*
X143166847Y-28533153D01*
X143191708Y-28563446D01*
X143210180Y-28598005D01*
X143221555Y-28635501D01*
X143226000Y-28680638D01*
X143226000Y-29319362D01*
X143221555Y-29364499D01*
X143210180Y-29401995D01*
X143191708Y-29436554D01*
X143166847Y-29466847D01*
X143136554Y-29491708D01*
X143101995Y-29510180D01*
X143064499Y-29521555D01*
X143019362Y-29526000D01*
X142280638Y-29526000D01*
X142235501Y-29521555D01*
X142198005Y-29510180D01*
X142163446Y-29491708D01*
X142133153Y-29466847D01*
X142108292Y-29436554D01*
X142089820Y-29401995D01*
X142078445Y-29364499D01*
X142074000Y-29319362D01*
X142074000Y-28680638D01*
X142078445Y-28635501D01*
X142089820Y-28598005D01*
X142108292Y-28563446D01*
X142133153Y-28533153D01*
X142163446Y-28508292D01*
X142198005Y-28489820D01*
X142235501Y-28478445D01*
X142280638Y-28474000D01*
X143019362Y-28474000D01*
X143064499Y-28478445D01*
X143064499Y-28478445D01*
G37*
G36*
X152414499Y-28478445D02*
G01*
X152451995Y-28489820D01*
X152486554Y-28508292D01*
X152516847Y-28533153D01*
X152541708Y-28563446D01*
X152560180Y-28598005D01*
X152571555Y-28635501D01*
X152576000Y-28680638D01*
X152576000Y-29319362D01*
X152571555Y-29364499D01*
X152560180Y-29401995D01*
X152541708Y-29436554D01*
X152516847Y-29466847D01*
X152486554Y-29491708D01*
X152451995Y-29510180D01*
X152414499Y-29521555D01*
X152369362Y-29526000D01*
X151630638Y-29526000D01*
X151585501Y-29521555D01*
X151548005Y-29510180D01*
X151513446Y-29491708D01*
X151483153Y-29466847D01*
X151458292Y-29436554D01*
X151439820Y-29401995D01*
X151428445Y-29364499D01*
X151424000Y-29319362D01*
X151424000Y-28680638D01*
X151428445Y-28635501D01*
X151439820Y-28598005D01*
X151458292Y-28563446D01*
X151483153Y-28533153D01*
X151513446Y-28508292D01*
X151548005Y-28489820D01*
X151585501Y-28478445D01*
X151630638Y-28474000D01*
X152369362Y-28474000D01*
X152414499Y-28478445D01*
X152414499Y-28478445D01*
G37*
G36*
X126064499Y-28378445D02*
G01*
X126101995Y-28389820D01*
X126136554Y-28408292D01*
X126166847Y-28433153D01*
X126191708Y-28463446D01*
X126210180Y-28498005D01*
X126221555Y-28535501D01*
X126226000Y-28580638D01*
X126226000Y-29219362D01*
X126221555Y-29264499D01*
X126210180Y-29301995D01*
X126191708Y-29336554D01*
X126166847Y-29366847D01*
X126136554Y-29391708D01*
X126101995Y-29410180D01*
X126064499Y-29421555D01*
X126019362Y-29426000D01*
X125280638Y-29426000D01*
X125235501Y-29421555D01*
X125198005Y-29410180D01*
X125163446Y-29391708D01*
X125133153Y-29366847D01*
X125108292Y-29336554D01*
X125089820Y-29301995D01*
X125078445Y-29264499D01*
X125074000Y-29219362D01*
X125074000Y-28580638D01*
X125078445Y-28535501D01*
X125089820Y-28498005D01*
X125108292Y-28463446D01*
X125133153Y-28433153D01*
X125163446Y-28408292D01*
X125198005Y-28389820D01*
X125235501Y-28378445D01*
X125280638Y-28374000D01*
X126019362Y-28374000D01*
X126064499Y-28378445D01*
X126064499Y-28378445D01*
G37*
G36*
X127814499Y-28378445D02*
G01*
X127851995Y-28389820D01*
X127886554Y-28408292D01*
X127916847Y-28433153D01*
X127941708Y-28463446D01*
X127960180Y-28498005D01*
X127971555Y-28535501D01*
X127976000Y-28580638D01*
X127976000Y-29219362D01*
X127971555Y-29264499D01*
X127960180Y-29301995D01*
X127941708Y-29336554D01*
X127916847Y-29366847D01*
X127886554Y-29391708D01*
X127851995Y-29410180D01*
X127814499Y-29421555D01*
X127769362Y-29426000D01*
X127030638Y-29426000D01*
X126985501Y-29421555D01*
X126948005Y-29410180D01*
X126913446Y-29391708D01*
X126883153Y-29366847D01*
X126858292Y-29336554D01*
X126839820Y-29301995D01*
X126828445Y-29264499D01*
X126824000Y-29219362D01*
X126824000Y-28580638D01*
X126828445Y-28535501D01*
X126839820Y-28498005D01*
X126858292Y-28463446D01*
X126883153Y-28433153D01*
X126913446Y-28408292D01*
X126948005Y-28389820D01*
X126985501Y-28378445D01*
X127030638Y-28374000D01*
X127769362Y-28374000D01*
X127814499Y-28378445D01*
X127814499Y-28378445D01*
G37*
G36*
X114614499Y-27928445D02*
G01*
X114651995Y-27939820D01*
X114686554Y-27958292D01*
X114716847Y-27983153D01*
X114741708Y-28013446D01*
X114760180Y-28048005D01*
X114771555Y-28085501D01*
X114776000Y-28130638D01*
X114776000Y-28769362D01*
X114771555Y-28814499D01*
X114760180Y-28851995D01*
X114741708Y-28886554D01*
X114716847Y-28916847D01*
X114686554Y-28941708D01*
X114651995Y-28960180D01*
X114614499Y-28971555D01*
X114569362Y-28976000D01*
X113830638Y-28976000D01*
X113785501Y-28971555D01*
X113748005Y-28960180D01*
X113713446Y-28941708D01*
X113683153Y-28916847D01*
X113658292Y-28886554D01*
X113639820Y-28851995D01*
X113628445Y-28814499D01*
X113624000Y-28769362D01*
X113624000Y-28130638D01*
X113628445Y-28085501D01*
X113639820Y-28048005D01*
X113658292Y-28013446D01*
X113683153Y-27983153D01*
X113713446Y-27958292D01*
X113748005Y-27939820D01*
X113785501Y-27928445D01*
X113830638Y-27924000D01*
X114569362Y-27924000D01*
X114614499Y-27928445D01*
X114614499Y-27928445D01*
G37*
G36*
X112864499Y-27928445D02*
G01*
X112901995Y-27939820D01*
X112936554Y-27958292D01*
X112966847Y-27983153D01*
X112991708Y-28013446D01*
X113010180Y-28048005D01*
X113021555Y-28085501D01*
X113026000Y-28130638D01*
X113026000Y-28769362D01*
X113021555Y-28814499D01*
X113010180Y-28851995D01*
X112991708Y-28886554D01*
X112966847Y-28916847D01*
X112936554Y-28941708D01*
X112901995Y-28960180D01*
X112864499Y-28971555D01*
X112819362Y-28976000D01*
X112080638Y-28976000D01*
X112035501Y-28971555D01*
X111998005Y-28960180D01*
X111963446Y-28941708D01*
X111933153Y-28916847D01*
X111908292Y-28886554D01*
X111889820Y-28851995D01*
X111878445Y-28814499D01*
X111874000Y-28769362D01*
X111874000Y-28130638D01*
X111878445Y-28085501D01*
X111889820Y-28048005D01*
X111908292Y-28013446D01*
X111933153Y-27983153D01*
X111963446Y-27958292D01*
X111998005Y-27939820D01*
X112035501Y-27928445D01*
X112080638Y-27924000D01*
X112819362Y-27924000D01*
X112864499Y-27928445D01*
X112864499Y-27928445D01*
G37*
G36*
X106425256Y-24941298D02*
G01*
X106531579Y-24962447D01*
X106832042Y-25086903D01*
X107102451Y-25267585D01*
X107332415Y-25497549D01*
X107492411Y-25737000D01*
X107513098Y-25767960D01*
X107637553Y-26068422D01*
X107699864Y-26381677D01*
X107701000Y-26387391D01*
X107701000Y-26712609D01*
X107637553Y-27031579D01*
X107513097Y-27332042D01*
X107332415Y-27602451D01*
X107102451Y-27832415D01*
X106832042Y-28013097D01*
X106832041Y-28013098D01*
X106832040Y-28013098D01*
X106764956Y-28040885D01*
X106531579Y-28137553D01*
X106425256Y-28158702D01*
X106212611Y-28201000D01*
X105887389Y-28201000D01*
X105674744Y-28158702D01*
X105568421Y-28137553D01*
X105335044Y-28040885D01*
X105267960Y-28013098D01*
X105267959Y-28013098D01*
X105267958Y-28013097D01*
X104997549Y-27832415D01*
X104767585Y-27602451D01*
X104586903Y-27332042D01*
X104462447Y-27031579D01*
X104399000Y-26712609D01*
X104399000Y-26387391D01*
X104400137Y-26381677D01*
X104462447Y-26068422D01*
X104586902Y-25767960D01*
X104607589Y-25737000D01*
X104767585Y-25497549D01*
X104997549Y-25267585D01*
X105267958Y-25086903D01*
X105568421Y-24962447D01*
X105674744Y-24941298D01*
X105887389Y-24899000D01*
X106212611Y-24899000D01*
X106425256Y-24941298D01*
X106425256Y-24941298D01*
G37*
G36*
X159325256Y-24941298D02*
G01*
X159431579Y-24962447D01*
X159732042Y-25086903D01*
X160002451Y-25267585D01*
X160232415Y-25497549D01*
X160392411Y-25737000D01*
X160413098Y-25767960D01*
X160537553Y-26068422D01*
X160599864Y-26381677D01*
X160601000Y-26387391D01*
X160601000Y-26712609D01*
X160537553Y-27031579D01*
X160413097Y-27332042D01*
X160232415Y-27602451D01*
X160002451Y-27832415D01*
X159732042Y-28013097D01*
X159732041Y-28013098D01*
X159732040Y-28013098D01*
X159664956Y-28040885D01*
X159431579Y-28137553D01*
X159325256Y-28158702D01*
X159112611Y-28201000D01*
X158787389Y-28201000D01*
X158574744Y-28158702D01*
X158468421Y-28137553D01*
X158235044Y-28040885D01*
X158167960Y-28013098D01*
X158167959Y-28013098D01*
X158167958Y-28013097D01*
X157897549Y-27832415D01*
X157667585Y-27602451D01*
X157486903Y-27332042D01*
X157362447Y-27031579D01*
X157299000Y-26712609D01*
X157299000Y-26387391D01*
X157300137Y-26381677D01*
X157362447Y-26068422D01*
X157486902Y-25767960D01*
X157507589Y-25737000D01*
X157667585Y-25497549D01*
X157897549Y-25267585D01*
X158167958Y-25086903D01*
X158468421Y-24962447D01*
X158574744Y-24941298D01*
X158787389Y-24899000D01*
X159112611Y-24899000D01*
X159325256Y-24941298D01*
X159325256Y-24941298D01*
G37*
G36*
X150664499Y-26978445D02*
G01*
X150701995Y-26989820D01*
X150736554Y-27008292D01*
X150766847Y-27033153D01*
X150791708Y-27063446D01*
X150810180Y-27098005D01*
X150821555Y-27135501D01*
X150826000Y-27180638D01*
X150826000Y-27819362D01*
X150821555Y-27864499D01*
X150810180Y-27901995D01*
X150791708Y-27936554D01*
X150766847Y-27966847D01*
X150736554Y-27991708D01*
X150701995Y-28010180D01*
X150664499Y-28021555D01*
X150619362Y-28026000D01*
X149880638Y-28026000D01*
X149835501Y-28021555D01*
X149798005Y-28010180D01*
X149763446Y-27991708D01*
X149733153Y-27966847D01*
X149708292Y-27936554D01*
X149689820Y-27901995D01*
X149678445Y-27864499D01*
X149674000Y-27819362D01*
X149674000Y-27180638D01*
X149678445Y-27135501D01*
X149689820Y-27098005D01*
X149708292Y-27063446D01*
X149733153Y-27033153D01*
X149763446Y-27008292D01*
X149798005Y-26989820D01*
X149835501Y-26978445D01*
X149880638Y-26974000D01*
X150619362Y-26974000D01*
X150664499Y-26978445D01*
X150664499Y-26978445D01*
G37*
G36*
X135414499Y-26978445D02*
G01*
X135451995Y-26989820D01*
X135486554Y-27008292D01*
X135516847Y-27033153D01*
X135541708Y-27063446D01*
X135560180Y-27098005D01*
X135571555Y-27135501D01*
X135576000Y-27180638D01*
X135576000Y-27819362D01*
X135571555Y-27864499D01*
X135560180Y-27901995D01*
X135541708Y-27936554D01*
X135516847Y-27966847D01*
X135486554Y-27991708D01*
X135451995Y-28010180D01*
X135414499Y-28021555D01*
X135369362Y-28026000D01*
X134630638Y-28026000D01*
X134585501Y-28021555D01*
X134548005Y-28010180D01*
X134513446Y-27991708D01*
X134483153Y-27966847D01*
X134458292Y-27936554D01*
X134439820Y-27901995D01*
X134428445Y-27864499D01*
X134424000Y-27819362D01*
X134424000Y-27180638D01*
X134428445Y-27135501D01*
X134439820Y-27098005D01*
X134458292Y-27063446D01*
X134483153Y-27033153D01*
X134513446Y-27008292D01*
X134548005Y-26989820D01*
X134585501Y-26978445D01*
X134630638Y-26974000D01*
X135369362Y-26974000D01*
X135414499Y-26978445D01*
X135414499Y-26978445D01*
G37*
G36*
X143039499Y-26978445D02*
G01*
X143076995Y-26989820D01*
X143111554Y-27008292D01*
X143141847Y-27033153D01*
X143166708Y-27063446D01*
X143185180Y-27098005D01*
X143196555Y-27135501D01*
X143201000Y-27180638D01*
X143201000Y-27819362D01*
X143196555Y-27864499D01*
X143185180Y-27901995D01*
X143166708Y-27936554D01*
X143141847Y-27966847D01*
X143111554Y-27991708D01*
X143076995Y-28010180D01*
X143039499Y-28021555D01*
X142994362Y-28026000D01*
X142255638Y-28026000D01*
X142210501Y-28021555D01*
X142173005Y-28010180D01*
X142138446Y-27991708D01*
X142108153Y-27966847D01*
X142083292Y-27936554D01*
X142064820Y-27901995D01*
X142053445Y-27864499D01*
X142049000Y-27819362D01*
X142049000Y-27180638D01*
X142053445Y-27135501D01*
X142064820Y-27098005D01*
X142083292Y-27063446D01*
X142108153Y-27033153D01*
X142138446Y-27008292D01*
X142173005Y-26989820D01*
X142210501Y-26978445D01*
X142255638Y-26974000D01*
X142994362Y-26974000D01*
X143039499Y-26978445D01*
X143039499Y-26978445D01*
G37*
G36*
X152414499Y-26978445D02*
G01*
X152451995Y-26989820D01*
X152486554Y-27008292D01*
X152516847Y-27033153D01*
X152541708Y-27063446D01*
X152560180Y-27098005D01*
X152571555Y-27135501D01*
X152576000Y-27180638D01*
X152576000Y-27819362D01*
X152571555Y-27864499D01*
X152560180Y-27901995D01*
X152541708Y-27936554D01*
X152516847Y-27966847D01*
X152486554Y-27991708D01*
X152451995Y-28010180D01*
X152414499Y-28021555D01*
X152369362Y-28026000D01*
X151630638Y-28026000D01*
X151585501Y-28021555D01*
X151548005Y-28010180D01*
X151513446Y-27991708D01*
X151483153Y-27966847D01*
X151458292Y-27936554D01*
X151439820Y-27901995D01*
X151428445Y-27864499D01*
X151424000Y-27819362D01*
X151424000Y-27180638D01*
X151428445Y-27135501D01*
X151439820Y-27098005D01*
X151458292Y-27063446D01*
X151483153Y-27033153D01*
X151513446Y-27008292D01*
X151548005Y-26989820D01*
X151585501Y-26978445D01*
X151630638Y-26974000D01*
X152369362Y-26974000D01*
X152414499Y-26978445D01*
X152414499Y-26978445D01*
G37*
G36*
X133664499Y-26978445D02*
G01*
X133701995Y-26989820D01*
X133736554Y-27008292D01*
X133766847Y-27033153D01*
X133791708Y-27063446D01*
X133810180Y-27098005D01*
X133821555Y-27135501D01*
X133826000Y-27180638D01*
X133826000Y-27819362D01*
X133821555Y-27864499D01*
X133810180Y-27901995D01*
X133791708Y-27936554D01*
X133766847Y-27966847D01*
X133736554Y-27991708D01*
X133701995Y-28010180D01*
X133664499Y-28021555D01*
X133619362Y-28026000D01*
X132880638Y-28026000D01*
X132835501Y-28021555D01*
X132798005Y-28010180D01*
X132763446Y-27991708D01*
X132733153Y-27966847D01*
X132708292Y-27936554D01*
X132689820Y-27901995D01*
X132678445Y-27864499D01*
X132674000Y-27819362D01*
X132674000Y-27180638D01*
X132678445Y-27135501D01*
X132689820Y-27098005D01*
X132708292Y-27063446D01*
X132733153Y-27033153D01*
X132763446Y-27008292D01*
X132798005Y-26989820D01*
X132835501Y-26978445D01*
X132880638Y-26974000D01*
X133619362Y-26974000D01*
X133664499Y-26978445D01*
X133664499Y-26978445D01*
G37*
G36*
X141289499Y-26978445D02*
G01*
X141326995Y-26989820D01*
X141361554Y-27008292D01*
X141391847Y-27033153D01*
X141416708Y-27063446D01*
X141435180Y-27098005D01*
X141446555Y-27135501D01*
X141451000Y-27180638D01*
X141451000Y-27819362D01*
X141446555Y-27864499D01*
X141435180Y-27901995D01*
X141416708Y-27936554D01*
X141391847Y-27966847D01*
X141361554Y-27991708D01*
X141326995Y-28010180D01*
X141289499Y-28021555D01*
X141244362Y-28026000D01*
X140505638Y-28026000D01*
X140460501Y-28021555D01*
X140423005Y-28010180D01*
X140388446Y-27991708D01*
X140358153Y-27966847D01*
X140333292Y-27936554D01*
X140314820Y-27901995D01*
X140303445Y-27864499D01*
X140299000Y-27819362D01*
X140299000Y-27180638D01*
X140303445Y-27135501D01*
X140314820Y-27098005D01*
X140333292Y-27063446D01*
X140358153Y-27033153D01*
X140388446Y-27008292D01*
X140423005Y-26989820D01*
X140460501Y-26978445D01*
X140505638Y-26974000D01*
X141244362Y-26974000D01*
X141289499Y-26978445D01*
X141289499Y-26978445D01*
G37*
G36*
X126064499Y-26878445D02*
G01*
X126101995Y-26889820D01*
X126136554Y-26908292D01*
X126166847Y-26933153D01*
X126191708Y-26963446D01*
X126210180Y-26998005D01*
X126221555Y-27035501D01*
X126226000Y-27080638D01*
X126226000Y-27719362D01*
X126221555Y-27764499D01*
X126210180Y-27801995D01*
X126191708Y-27836554D01*
X126166847Y-27866847D01*
X126136554Y-27891708D01*
X126101995Y-27910180D01*
X126064499Y-27921555D01*
X126019362Y-27926000D01*
X125280638Y-27926000D01*
X125235501Y-27921555D01*
X125198005Y-27910180D01*
X125163446Y-27891708D01*
X125133153Y-27866847D01*
X125108292Y-27836554D01*
X125089820Y-27801995D01*
X125078445Y-27764499D01*
X125074000Y-27719362D01*
X125074000Y-27080638D01*
X125078445Y-27035501D01*
X125089820Y-26998005D01*
X125108292Y-26963446D01*
X125133153Y-26933153D01*
X125163446Y-26908292D01*
X125198005Y-26889820D01*
X125235501Y-26878445D01*
X125280638Y-26874000D01*
X126019362Y-26874000D01*
X126064499Y-26878445D01*
X126064499Y-26878445D01*
G37*
G36*
X127814499Y-26878445D02*
G01*
X127851995Y-26889820D01*
X127886554Y-26908292D01*
X127916847Y-26933153D01*
X127941708Y-26963446D01*
X127960180Y-26998005D01*
X127971555Y-27035501D01*
X127976000Y-27080638D01*
X127976000Y-27719362D01*
X127971555Y-27764499D01*
X127960180Y-27801995D01*
X127941708Y-27836554D01*
X127916847Y-27866847D01*
X127886554Y-27891708D01*
X127851995Y-27910180D01*
X127814499Y-27921555D01*
X127769362Y-27926000D01*
X127030638Y-27926000D01*
X126985501Y-27921555D01*
X126948005Y-27910180D01*
X126913446Y-27891708D01*
X126883153Y-27866847D01*
X126858292Y-27836554D01*
X126839820Y-27801995D01*
X126828445Y-27764499D01*
X126824000Y-27719362D01*
X126824000Y-27080638D01*
X126828445Y-27035501D01*
X126839820Y-26998005D01*
X126858292Y-26963446D01*
X126883153Y-26933153D01*
X126913446Y-26908292D01*
X126948005Y-26889820D01*
X126985501Y-26878445D01*
X127030638Y-26874000D01*
X127769362Y-26874000D01*
X127814499Y-26878445D01*
X127814499Y-26878445D01*
G37*
G36*
X112864499Y-26428445D02*
G01*
X112901995Y-26439820D01*
X112936554Y-26458292D01*
X112966847Y-26483153D01*
X112991708Y-26513446D01*
X113010180Y-26548005D01*
X113021555Y-26585501D01*
X113026000Y-26630638D01*
X113026000Y-27269362D01*
X113021555Y-27314499D01*
X113010180Y-27351995D01*
X112991708Y-27386554D01*
X112966847Y-27416847D01*
X112936554Y-27441708D01*
X112901995Y-27460180D01*
X112864499Y-27471555D01*
X112819362Y-27476000D01*
X112080638Y-27476000D01*
X112035501Y-27471555D01*
X111998005Y-27460180D01*
X111963446Y-27441708D01*
X111933153Y-27416847D01*
X111908292Y-27386554D01*
X111889820Y-27351995D01*
X111878445Y-27314499D01*
X111874000Y-27269362D01*
X111874000Y-26630638D01*
X111878445Y-26585501D01*
X111889820Y-26548005D01*
X111908292Y-26513446D01*
X111933153Y-26483153D01*
X111963446Y-26458292D01*
X111998005Y-26439820D01*
X112035501Y-26428445D01*
X112080638Y-26424000D01*
X112819362Y-26424000D01*
X112864499Y-26428445D01*
X112864499Y-26428445D01*
G37*
G36*
X114614499Y-26428445D02*
G01*
X114651995Y-26439820D01*
X114686554Y-26458292D01*
X114716847Y-26483153D01*
X114741708Y-26513446D01*
X114760180Y-26548005D01*
X114771555Y-26585501D01*
X114776000Y-26630638D01*
X114776000Y-27269362D01*
X114771555Y-27314499D01*
X114760180Y-27351995D01*
X114741708Y-27386554D01*
X114716847Y-27416847D01*
X114686554Y-27441708D01*
X114651995Y-27460180D01*
X114614499Y-27471555D01*
X114569362Y-27476000D01*
X113830638Y-27476000D01*
X113785501Y-27471555D01*
X113748005Y-27460180D01*
X113713446Y-27441708D01*
X113683153Y-27416847D01*
X113658292Y-27386554D01*
X113639820Y-27351995D01*
X113628445Y-27314499D01*
X113624000Y-27269362D01*
X113624000Y-26630638D01*
X113628445Y-26585501D01*
X113639820Y-26548005D01*
X113658292Y-26513446D01*
X113683153Y-26483153D01*
X113713446Y-26458292D01*
X113748005Y-26439820D01*
X113785501Y-26428445D01*
X113830638Y-26424000D01*
X114569362Y-26424000D01*
X114614499Y-26428445D01*
X114614499Y-26428445D01*
G37*
G36*
X133664499Y-25478445D02*
G01*
X133701995Y-25489820D01*
X133736554Y-25508292D01*
X133766847Y-25533153D01*
X133791708Y-25563446D01*
X133810180Y-25598005D01*
X133821555Y-25635501D01*
X133826000Y-25680638D01*
X133826000Y-26319362D01*
X133821555Y-26364499D01*
X133810180Y-26401995D01*
X133791708Y-26436554D01*
X133766847Y-26466847D01*
X133736554Y-26491708D01*
X133701995Y-26510180D01*
X133664499Y-26521555D01*
X133619362Y-26526000D01*
X132880638Y-26526000D01*
X132835501Y-26521555D01*
X132798005Y-26510180D01*
X132763446Y-26491708D01*
X132733153Y-26466847D01*
X132708292Y-26436554D01*
X132689820Y-26401995D01*
X132678445Y-26364499D01*
X132674000Y-26319362D01*
X132674000Y-25680638D01*
X132678445Y-25635501D01*
X132689820Y-25598005D01*
X132708292Y-25563446D01*
X132733153Y-25533153D01*
X132763446Y-25508292D01*
X132798005Y-25489820D01*
X132835501Y-25478445D01*
X132880638Y-25474000D01*
X133619362Y-25474000D01*
X133664499Y-25478445D01*
X133664499Y-25478445D01*
G37*
G36*
X141289499Y-25478445D02*
G01*
X141326995Y-25489820D01*
X141361554Y-25508292D01*
X141391847Y-25533153D01*
X141416708Y-25563446D01*
X141435180Y-25598005D01*
X141446555Y-25635501D01*
X141451000Y-25680638D01*
X141451000Y-26319362D01*
X141446555Y-26364499D01*
X141435180Y-26401995D01*
X141416708Y-26436554D01*
X141391847Y-26466847D01*
X141361554Y-26491708D01*
X141326995Y-26510180D01*
X141289499Y-26521555D01*
X141244362Y-26526000D01*
X140505638Y-26526000D01*
X140460501Y-26521555D01*
X140423005Y-26510180D01*
X140388446Y-26491708D01*
X140358153Y-26466847D01*
X140333292Y-26436554D01*
X140314820Y-26401995D01*
X140303445Y-26364499D01*
X140299000Y-26319362D01*
X140299000Y-25680638D01*
X140303445Y-25635501D01*
X140314820Y-25598005D01*
X140333292Y-25563446D01*
X140358153Y-25533153D01*
X140388446Y-25508292D01*
X140423005Y-25489820D01*
X140460501Y-25478445D01*
X140505638Y-25474000D01*
X141244362Y-25474000D01*
X141289499Y-25478445D01*
X141289499Y-25478445D01*
G37*
G36*
X143039499Y-25478445D02*
G01*
X143076995Y-25489820D01*
X143111554Y-25508292D01*
X143141847Y-25533153D01*
X143166708Y-25563446D01*
X143185180Y-25598005D01*
X143196555Y-25635501D01*
X143201000Y-25680638D01*
X143201000Y-26319362D01*
X143196555Y-26364499D01*
X143185180Y-26401995D01*
X143166708Y-26436554D01*
X143141847Y-26466847D01*
X143111554Y-26491708D01*
X143076995Y-26510180D01*
X143039499Y-26521555D01*
X142994362Y-26526000D01*
X142255638Y-26526000D01*
X142210501Y-26521555D01*
X142173005Y-26510180D01*
X142138446Y-26491708D01*
X142108153Y-26466847D01*
X142083292Y-26436554D01*
X142064820Y-26401995D01*
X142053445Y-26364499D01*
X142049000Y-26319362D01*
X142049000Y-25680638D01*
X142053445Y-25635501D01*
X142064820Y-25598005D01*
X142083292Y-25563446D01*
X142108153Y-25533153D01*
X142138446Y-25508292D01*
X142173005Y-25489820D01*
X142210501Y-25478445D01*
X142255638Y-25474000D01*
X142994362Y-25474000D01*
X143039499Y-25478445D01*
X143039499Y-25478445D01*
G37*
G36*
X152414499Y-25478445D02*
G01*
X152451995Y-25489820D01*
X152486554Y-25508292D01*
X152516847Y-25533153D01*
X152541708Y-25563446D01*
X152560180Y-25598005D01*
X152571555Y-25635501D01*
X152576000Y-25680638D01*
X152576000Y-26319362D01*
X152571555Y-26364499D01*
X152560180Y-26401995D01*
X152541708Y-26436554D01*
X152516847Y-26466847D01*
X152486554Y-26491708D01*
X152451995Y-26510180D01*
X152414499Y-26521555D01*
X152369362Y-26526000D01*
X151630638Y-26526000D01*
X151585501Y-26521555D01*
X151548005Y-26510180D01*
X151513446Y-26491708D01*
X151483153Y-26466847D01*
X151458292Y-26436554D01*
X151439820Y-26401995D01*
X151428445Y-26364499D01*
X151424000Y-26319362D01*
X151424000Y-25680638D01*
X151428445Y-25635501D01*
X151439820Y-25598005D01*
X151458292Y-25563446D01*
X151483153Y-25533153D01*
X151513446Y-25508292D01*
X151548005Y-25489820D01*
X151585501Y-25478445D01*
X151630638Y-25474000D01*
X152369362Y-25474000D01*
X152414499Y-25478445D01*
X152414499Y-25478445D01*
G37*
G36*
X150664499Y-25478445D02*
G01*
X150701995Y-25489820D01*
X150736554Y-25508292D01*
X150766847Y-25533153D01*
X150791708Y-25563446D01*
X150810180Y-25598005D01*
X150821555Y-25635501D01*
X150826000Y-25680638D01*
X150826000Y-26319362D01*
X150821555Y-26364499D01*
X150810180Y-26401995D01*
X150791708Y-26436554D01*
X150766847Y-26466847D01*
X150736554Y-26491708D01*
X150701995Y-26510180D01*
X150664499Y-26521555D01*
X150619362Y-26526000D01*
X149880638Y-26526000D01*
X149835501Y-26521555D01*
X149798005Y-26510180D01*
X149763446Y-26491708D01*
X149733153Y-26466847D01*
X149708292Y-26436554D01*
X149689820Y-26401995D01*
X149678445Y-26364499D01*
X149674000Y-26319362D01*
X149674000Y-25680638D01*
X149678445Y-25635501D01*
X149689820Y-25598005D01*
X149708292Y-25563446D01*
X149733153Y-25533153D01*
X149763446Y-25508292D01*
X149798005Y-25489820D01*
X149835501Y-25478445D01*
X149880638Y-25474000D01*
X150619362Y-25474000D01*
X150664499Y-25478445D01*
X150664499Y-25478445D01*
G37*
G36*
X135414499Y-25478445D02*
G01*
X135451995Y-25489820D01*
X135486554Y-25508292D01*
X135516847Y-25533153D01*
X135541708Y-25563446D01*
X135560180Y-25598005D01*
X135571555Y-25635501D01*
X135576000Y-25680638D01*
X135576000Y-26319362D01*
X135571555Y-26364499D01*
X135560180Y-26401995D01*
X135541708Y-26436554D01*
X135516847Y-26466847D01*
X135486554Y-26491708D01*
X135451995Y-26510180D01*
X135414499Y-26521555D01*
X135369362Y-26526000D01*
X134630638Y-26526000D01*
X134585501Y-26521555D01*
X134548005Y-26510180D01*
X134513446Y-26491708D01*
X134483153Y-26466847D01*
X134458292Y-26436554D01*
X134439820Y-26401995D01*
X134428445Y-26364499D01*
X134424000Y-26319362D01*
X134424000Y-25680638D01*
X134428445Y-25635501D01*
X134439820Y-25598005D01*
X134458292Y-25563446D01*
X134483153Y-25533153D01*
X134513446Y-25508292D01*
X134548005Y-25489820D01*
X134585501Y-25478445D01*
X134630638Y-25474000D01*
X135369362Y-25474000D01*
X135414499Y-25478445D01*
X135414499Y-25478445D01*
G37*
G36*
X126064499Y-25378445D02*
G01*
X126101995Y-25389820D01*
X126136554Y-25408292D01*
X126166847Y-25433153D01*
X126191708Y-25463446D01*
X126210180Y-25498005D01*
X126221555Y-25535501D01*
X126226000Y-25580638D01*
X126226000Y-26219362D01*
X126221555Y-26264499D01*
X126210180Y-26301995D01*
X126191708Y-26336554D01*
X126166847Y-26366847D01*
X126136554Y-26391708D01*
X126101995Y-26410180D01*
X126064499Y-26421555D01*
X126019362Y-26426000D01*
X125280638Y-26426000D01*
X125235501Y-26421555D01*
X125198005Y-26410180D01*
X125163446Y-26391708D01*
X125133153Y-26366847D01*
X125108292Y-26336554D01*
X125089820Y-26301995D01*
X125078445Y-26264499D01*
X125074000Y-26219362D01*
X125074000Y-25580638D01*
X125078445Y-25535501D01*
X125089820Y-25498005D01*
X125108292Y-25463446D01*
X125133153Y-25433153D01*
X125163446Y-25408292D01*
X125198005Y-25389820D01*
X125235501Y-25378445D01*
X125280638Y-25374000D01*
X126019362Y-25374000D01*
X126064499Y-25378445D01*
X126064499Y-25378445D01*
G37*
G36*
X127814499Y-25378445D02*
G01*
X127851995Y-25389820D01*
X127886554Y-25408292D01*
X127916847Y-25433153D01*
X127941708Y-25463446D01*
X127960180Y-25498005D01*
X127971555Y-25535501D01*
X127976000Y-25580638D01*
X127976000Y-26219362D01*
X127971555Y-26264499D01*
X127960180Y-26301995D01*
X127941708Y-26336554D01*
X127916847Y-26366847D01*
X127886554Y-26391708D01*
X127851995Y-26410180D01*
X127814499Y-26421555D01*
X127769362Y-26426000D01*
X127030638Y-26426000D01*
X126985501Y-26421555D01*
X126948005Y-26410180D01*
X126913446Y-26391708D01*
X126883153Y-26366847D01*
X126858292Y-26336554D01*
X126839820Y-26301995D01*
X126828445Y-26264499D01*
X126824000Y-26219362D01*
X126824000Y-25580638D01*
X126828445Y-25535501D01*
X126839820Y-25498005D01*
X126858292Y-25463446D01*
X126883153Y-25433153D01*
X126913446Y-25408292D01*
X126948005Y-25389820D01*
X126985501Y-25378445D01*
X127030638Y-25374000D01*
X127769362Y-25374000D01*
X127814499Y-25378445D01*
X127814499Y-25378445D01*
G37*
M02*
