G04 #@! TF.GenerationSoftware,KiCad,Pcbnew,(5.1.0)-1*
G04 #@! TF.CreationDate,2019-07-31T11:01:25-04:00*
G04 #@! TF.ProjectId,Inline SCART Splitter,496e6c69-6e65-4205-9343-415254205370,rev?*
G04 #@! TF.SameCoordinates,Original*
G04 #@! TF.FileFunction,Paste,Bot*
G04 #@! TF.FilePolarity,Positive*
%FSLAX46Y46*%
G04 Gerber Fmt 4.6, Leading zero omitted, Abs format (unit mm)*
G04 Created by KiCad (PCBNEW (5.1.0)-1) date 2019-07-31 11:01:25*
%MOMM*%
%LPD*%
G04 APERTURE LIST*
%ADD10C,0.100000*%
%ADD11C,2.250000*%
%ADD12C,0.950000*%
%ADD13C,1.600000*%
%ADD14R,1.450000X0.450000*%
G04 APERTURE END LIST*
D10*
G36*
X125199505Y-58076204D02*
G01*
X125223773Y-58079804D01*
X125247572Y-58085765D01*
X125270671Y-58094030D01*
X125292850Y-58104520D01*
X125313893Y-58117132D01*
X125333599Y-58131747D01*
X125351777Y-58148223D01*
X125368253Y-58166401D01*
X125382868Y-58186107D01*
X125395480Y-58207150D01*
X125405970Y-58229329D01*
X125414235Y-58252428D01*
X125420196Y-58276227D01*
X125423796Y-58300495D01*
X125425000Y-58324999D01*
X125425000Y-60375001D01*
X125423796Y-60399505D01*
X125420196Y-60423773D01*
X125414235Y-60447572D01*
X125405970Y-60470671D01*
X125395480Y-60492850D01*
X125382868Y-60513893D01*
X125368253Y-60533599D01*
X125351777Y-60551777D01*
X125333599Y-60568253D01*
X125313893Y-60582868D01*
X125292850Y-60595480D01*
X125270671Y-60605970D01*
X125247572Y-60614235D01*
X125223773Y-60620196D01*
X125199505Y-60623796D01*
X125175001Y-60625000D01*
X123424999Y-60625000D01*
X123400495Y-60623796D01*
X123376227Y-60620196D01*
X123352428Y-60614235D01*
X123329329Y-60605970D01*
X123307150Y-60595480D01*
X123286107Y-60582868D01*
X123266401Y-60568253D01*
X123248223Y-60551777D01*
X123231747Y-60533599D01*
X123217132Y-60513893D01*
X123204520Y-60492850D01*
X123194030Y-60470671D01*
X123185765Y-60447572D01*
X123179804Y-60423773D01*
X123176204Y-60399505D01*
X123175000Y-60375001D01*
X123175000Y-58324999D01*
X123176204Y-58300495D01*
X123179804Y-58276227D01*
X123185765Y-58252428D01*
X123194030Y-58229329D01*
X123204520Y-58207150D01*
X123217132Y-58186107D01*
X123231747Y-58166401D01*
X123248223Y-58148223D01*
X123266401Y-58131747D01*
X123286107Y-58117132D01*
X123307150Y-58104520D01*
X123329329Y-58094030D01*
X123352428Y-58085765D01*
X123376227Y-58079804D01*
X123400495Y-58076204D01*
X123424999Y-58075000D01*
X125175001Y-58075000D01*
X125199505Y-58076204D01*
X125199505Y-58076204D01*
G37*
D11*
X124300000Y-59350000D03*
D10*
G36*
X131599505Y-58076204D02*
G01*
X131623773Y-58079804D01*
X131647572Y-58085765D01*
X131670671Y-58094030D01*
X131692850Y-58104520D01*
X131713893Y-58117132D01*
X131733599Y-58131747D01*
X131751777Y-58148223D01*
X131768253Y-58166401D01*
X131782868Y-58186107D01*
X131795480Y-58207150D01*
X131805970Y-58229329D01*
X131814235Y-58252428D01*
X131820196Y-58276227D01*
X131823796Y-58300495D01*
X131825000Y-58324999D01*
X131825000Y-60375001D01*
X131823796Y-60399505D01*
X131820196Y-60423773D01*
X131814235Y-60447572D01*
X131805970Y-60470671D01*
X131795480Y-60492850D01*
X131782868Y-60513893D01*
X131768253Y-60533599D01*
X131751777Y-60551777D01*
X131733599Y-60568253D01*
X131713893Y-60582868D01*
X131692850Y-60595480D01*
X131670671Y-60605970D01*
X131647572Y-60614235D01*
X131623773Y-60620196D01*
X131599505Y-60623796D01*
X131575001Y-60625000D01*
X129824999Y-60625000D01*
X129800495Y-60623796D01*
X129776227Y-60620196D01*
X129752428Y-60614235D01*
X129729329Y-60605970D01*
X129707150Y-60595480D01*
X129686107Y-60582868D01*
X129666401Y-60568253D01*
X129648223Y-60551777D01*
X129631747Y-60533599D01*
X129617132Y-60513893D01*
X129604520Y-60492850D01*
X129594030Y-60470671D01*
X129585765Y-60447572D01*
X129579804Y-60423773D01*
X129576204Y-60399505D01*
X129575000Y-60375001D01*
X129575000Y-58324999D01*
X129576204Y-58300495D01*
X129579804Y-58276227D01*
X129585765Y-58252428D01*
X129594030Y-58229329D01*
X129604520Y-58207150D01*
X129617132Y-58186107D01*
X129631747Y-58166401D01*
X129648223Y-58148223D01*
X129666401Y-58131747D01*
X129686107Y-58117132D01*
X129707150Y-58104520D01*
X129729329Y-58094030D01*
X129752428Y-58085765D01*
X129776227Y-58079804D01*
X129800495Y-58076204D01*
X129824999Y-58075000D01*
X131575001Y-58075000D01*
X131599505Y-58076204D01*
X131599505Y-58076204D01*
G37*
D11*
X130700000Y-59350000D03*
D10*
G36*
X114510779Y-27976144D02*
G01*
X114533834Y-27979563D01*
X114556443Y-27985227D01*
X114578387Y-27993079D01*
X114599457Y-28003044D01*
X114619448Y-28015026D01*
X114638168Y-28028910D01*
X114655438Y-28044562D01*
X114671090Y-28061832D01*
X114684974Y-28080552D01*
X114696956Y-28100543D01*
X114706921Y-28121613D01*
X114714773Y-28143557D01*
X114720437Y-28166166D01*
X114723856Y-28189221D01*
X114725000Y-28212500D01*
X114725000Y-28687500D01*
X114723856Y-28710779D01*
X114720437Y-28733834D01*
X114714773Y-28756443D01*
X114706921Y-28778387D01*
X114696956Y-28799457D01*
X114684974Y-28819448D01*
X114671090Y-28838168D01*
X114655438Y-28855438D01*
X114638168Y-28871090D01*
X114619448Y-28884974D01*
X114599457Y-28896956D01*
X114578387Y-28906921D01*
X114556443Y-28914773D01*
X114533834Y-28920437D01*
X114510779Y-28923856D01*
X114487500Y-28925000D01*
X113912500Y-28925000D01*
X113889221Y-28923856D01*
X113866166Y-28920437D01*
X113843557Y-28914773D01*
X113821613Y-28906921D01*
X113800543Y-28896956D01*
X113780552Y-28884974D01*
X113761832Y-28871090D01*
X113744562Y-28855438D01*
X113728910Y-28838168D01*
X113715026Y-28819448D01*
X113703044Y-28799457D01*
X113693079Y-28778387D01*
X113685227Y-28756443D01*
X113679563Y-28733834D01*
X113676144Y-28710779D01*
X113675000Y-28687500D01*
X113675000Y-28212500D01*
X113676144Y-28189221D01*
X113679563Y-28166166D01*
X113685227Y-28143557D01*
X113693079Y-28121613D01*
X113703044Y-28100543D01*
X113715026Y-28080552D01*
X113728910Y-28061832D01*
X113744562Y-28044562D01*
X113761832Y-28028910D01*
X113780552Y-28015026D01*
X113800543Y-28003044D01*
X113821613Y-27993079D01*
X113843557Y-27985227D01*
X113866166Y-27979563D01*
X113889221Y-27976144D01*
X113912500Y-27975000D01*
X114487500Y-27975000D01*
X114510779Y-27976144D01*
X114510779Y-27976144D01*
G37*
D12*
X114200000Y-28450000D03*
D10*
G36*
X112760779Y-27976144D02*
G01*
X112783834Y-27979563D01*
X112806443Y-27985227D01*
X112828387Y-27993079D01*
X112849457Y-28003044D01*
X112869448Y-28015026D01*
X112888168Y-28028910D01*
X112905438Y-28044562D01*
X112921090Y-28061832D01*
X112934974Y-28080552D01*
X112946956Y-28100543D01*
X112956921Y-28121613D01*
X112964773Y-28143557D01*
X112970437Y-28166166D01*
X112973856Y-28189221D01*
X112975000Y-28212500D01*
X112975000Y-28687500D01*
X112973856Y-28710779D01*
X112970437Y-28733834D01*
X112964773Y-28756443D01*
X112956921Y-28778387D01*
X112946956Y-28799457D01*
X112934974Y-28819448D01*
X112921090Y-28838168D01*
X112905438Y-28855438D01*
X112888168Y-28871090D01*
X112869448Y-28884974D01*
X112849457Y-28896956D01*
X112828387Y-28906921D01*
X112806443Y-28914773D01*
X112783834Y-28920437D01*
X112760779Y-28923856D01*
X112737500Y-28925000D01*
X112162500Y-28925000D01*
X112139221Y-28923856D01*
X112116166Y-28920437D01*
X112093557Y-28914773D01*
X112071613Y-28906921D01*
X112050543Y-28896956D01*
X112030552Y-28884974D01*
X112011832Y-28871090D01*
X111994562Y-28855438D01*
X111978910Y-28838168D01*
X111965026Y-28819448D01*
X111953044Y-28799457D01*
X111943079Y-28778387D01*
X111935227Y-28756443D01*
X111929563Y-28733834D01*
X111926144Y-28710779D01*
X111925000Y-28687500D01*
X111925000Y-28212500D01*
X111926144Y-28189221D01*
X111929563Y-28166166D01*
X111935227Y-28143557D01*
X111943079Y-28121613D01*
X111953044Y-28100543D01*
X111965026Y-28080552D01*
X111978910Y-28061832D01*
X111994562Y-28044562D01*
X112011832Y-28028910D01*
X112030552Y-28015026D01*
X112050543Y-28003044D01*
X112071613Y-27993079D01*
X112093557Y-27985227D01*
X112116166Y-27979563D01*
X112139221Y-27976144D01*
X112162500Y-27975000D01*
X112737500Y-27975000D01*
X112760779Y-27976144D01*
X112760779Y-27976144D01*
G37*
D12*
X112450000Y-28450000D03*
D10*
G36*
X112760779Y-26476144D02*
G01*
X112783834Y-26479563D01*
X112806443Y-26485227D01*
X112828387Y-26493079D01*
X112849457Y-26503044D01*
X112869448Y-26515026D01*
X112888168Y-26528910D01*
X112905438Y-26544562D01*
X112921090Y-26561832D01*
X112934974Y-26580552D01*
X112946956Y-26600543D01*
X112956921Y-26621613D01*
X112964773Y-26643557D01*
X112970437Y-26666166D01*
X112973856Y-26689221D01*
X112975000Y-26712500D01*
X112975000Y-27187500D01*
X112973856Y-27210779D01*
X112970437Y-27233834D01*
X112964773Y-27256443D01*
X112956921Y-27278387D01*
X112946956Y-27299457D01*
X112934974Y-27319448D01*
X112921090Y-27338168D01*
X112905438Y-27355438D01*
X112888168Y-27371090D01*
X112869448Y-27384974D01*
X112849457Y-27396956D01*
X112828387Y-27406921D01*
X112806443Y-27414773D01*
X112783834Y-27420437D01*
X112760779Y-27423856D01*
X112737500Y-27425000D01*
X112162500Y-27425000D01*
X112139221Y-27423856D01*
X112116166Y-27420437D01*
X112093557Y-27414773D01*
X112071613Y-27406921D01*
X112050543Y-27396956D01*
X112030552Y-27384974D01*
X112011832Y-27371090D01*
X111994562Y-27355438D01*
X111978910Y-27338168D01*
X111965026Y-27319448D01*
X111953044Y-27299457D01*
X111943079Y-27278387D01*
X111935227Y-27256443D01*
X111929563Y-27233834D01*
X111926144Y-27210779D01*
X111925000Y-27187500D01*
X111925000Y-26712500D01*
X111926144Y-26689221D01*
X111929563Y-26666166D01*
X111935227Y-26643557D01*
X111943079Y-26621613D01*
X111953044Y-26600543D01*
X111965026Y-26580552D01*
X111978910Y-26561832D01*
X111994562Y-26544562D01*
X112011832Y-26528910D01*
X112030552Y-26515026D01*
X112050543Y-26503044D01*
X112071613Y-26493079D01*
X112093557Y-26485227D01*
X112116166Y-26479563D01*
X112139221Y-26476144D01*
X112162500Y-26475000D01*
X112737500Y-26475000D01*
X112760779Y-26476144D01*
X112760779Y-26476144D01*
G37*
D12*
X112450000Y-26950000D03*
D10*
G36*
X114510779Y-26476144D02*
G01*
X114533834Y-26479563D01*
X114556443Y-26485227D01*
X114578387Y-26493079D01*
X114599457Y-26503044D01*
X114619448Y-26515026D01*
X114638168Y-26528910D01*
X114655438Y-26544562D01*
X114671090Y-26561832D01*
X114684974Y-26580552D01*
X114696956Y-26600543D01*
X114706921Y-26621613D01*
X114714773Y-26643557D01*
X114720437Y-26666166D01*
X114723856Y-26689221D01*
X114725000Y-26712500D01*
X114725000Y-27187500D01*
X114723856Y-27210779D01*
X114720437Y-27233834D01*
X114714773Y-27256443D01*
X114706921Y-27278387D01*
X114696956Y-27299457D01*
X114684974Y-27319448D01*
X114671090Y-27338168D01*
X114655438Y-27355438D01*
X114638168Y-27371090D01*
X114619448Y-27384974D01*
X114599457Y-27396956D01*
X114578387Y-27406921D01*
X114556443Y-27414773D01*
X114533834Y-27420437D01*
X114510779Y-27423856D01*
X114487500Y-27425000D01*
X113912500Y-27425000D01*
X113889221Y-27423856D01*
X113866166Y-27420437D01*
X113843557Y-27414773D01*
X113821613Y-27406921D01*
X113800543Y-27396956D01*
X113780552Y-27384974D01*
X113761832Y-27371090D01*
X113744562Y-27355438D01*
X113728910Y-27338168D01*
X113715026Y-27319448D01*
X113703044Y-27299457D01*
X113693079Y-27278387D01*
X113685227Y-27256443D01*
X113679563Y-27233834D01*
X113676144Y-27210779D01*
X113675000Y-27187500D01*
X113675000Y-26712500D01*
X113676144Y-26689221D01*
X113679563Y-26666166D01*
X113685227Y-26643557D01*
X113693079Y-26621613D01*
X113703044Y-26600543D01*
X113715026Y-26580552D01*
X113728910Y-26561832D01*
X113744562Y-26544562D01*
X113761832Y-26528910D01*
X113780552Y-26515026D01*
X113800543Y-26503044D01*
X113821613Y-26493079D01*
X113843557Y-26485227D01*
X113866166Y-26479563D01*
X113889221Y-26476144D01*
X113912500Y-26475000D01*
X114487500Y-26475000D01*
X114510779Y-26476144D01*
X114510779Y-26476144D01*
G37*
D12*
X114200000Y-26950000D03*
D10*
G36*
X110274504Y-39301204D02*
G01*
X110298773Y-39304804D01*
X110322571Y-39310765D01*
X110345671Y-39319030D01*
X110367849Y-39329520D01*
X110388893Y-39342133D01*
X110408598Y-39356747D01*
X110426777Y-39373223D01*
X110443253Y-39391402D01*
X110457867Y-39411107D01*
X110470480Y-39432151D01*
X110480970Y-39454329D01*
X110489235Y-39477429D01*
X110495196Y-39501227D01*
X110498796Y-39525496D01*
X110500000Y-39550000D01*
X110500000Y-41650000D01*
X110498796Y-41674504D01*
X110495196Y-41698773D01*
X110489235Y-41722571D01*
X110480970Y-41745671D01*
X110470480Y-41767849D01*
X110457867Y-41788893D01*
X110443253Y-41808598D01*
X110426777Y-41826777D01*
X110408598Y-41843253D01*
X110388893Y-41857867D01*
X110367849Y-41870480D01*
X110345671Y-41880970D01*
X110322571Y-41889235D01*
X110298773Y-41895196D01*
X110274504Y-41898796D01*
X110250000Y-41900000D01*
X109150000Y-41900000D01*
X109125496Y-41898796D01*
X109101227Y-41895196D01*
X109077429Y-41889235D01*
X109054329Y-41880970D01*
X109032151Y-41870480D01*
X109011107Y-41857867D01*
X108991402Y-41843253D01*
X108973223Y-41826777D01*
X108956747Y-41808598D01*
X108942133Y-41788893D01*
X108929520Y-41767849D01*
X108919030Y-41745671D01*
X108910765Y-41722571D01*
X108904804Y-41698773D01*
X108901204Y-41674504D01*
X108900000Y-41650000D01*
X108900000Y-39550000D01*
X108901204Y-39525496D01*
X108904804Y-39501227D01*
X108910765Y-39477429D01*
X108919030Y-39454329D01*
X108929520Y-39432151D01*
X108942133Y-39411107D01*
X108956747Y-39391402D01*
X108973223Y-39373223D01*
X108991402Y-39356747D01*
X109011107Y-39342133D01*
X109032151Y-39329520D01*
X109054329Y-39319030D01*
X109077429Y-39310765D01*
X109101227Y-39304804D01*
X109125496Y-39301204D01*
X109150000Y-39300000D01*
X110250000Y-39300000D01*
X110274504Y-39301204D01*
X110274504Y-39301204D01*
G37*
D13*
X109700000Y-40600000D03*
D10*
G36*
X110274504Y-35701204D02*
G01*
X110298773Y-35704804D01*
X110322571Y-35710765D01*
X110345671Y-35719030D01*
X110367849Y-35729520D01*
X110388893Y-35742133D01*
X110408598Y-35756747D01*
X110426777Y-35773223D01*
X110443253Y-35791402D01*
X110457867Y-35811107D01*
X110470480Y-35832151D01*
X110480970Y-35854329D01*
X110489235Y-35877429D01*
X110495196Y-35901227D01*
X110498796Y-35925496D01*
X110500000Y-35950000D01*
X110500000Y-38050000D01*
X110498796Y-38074504D01*
X110495196Y-38098773D01*
X110489235Y-38122571D01*
X110480970Y-38145671D01*
X110470480Y-38167849D01*
X110457867Y-38188893D01*
X110443253Y-38208598D01*
X110426777Y-38226777D01*
X110408598Y-38243253D01*
X110388893Y-38257867D01*
X110367849Y-38270480D01*
X110345671Y-38280970D01*
X110322571Y-38289235D01*
X110298773Y-38295196D01*
X110274504Y-38298796D01*
X110250000Y-38300000D01*
X109150000Y-38300000D01*
X109125496Y-38298796D01*
X109101227Y-38295196D01*
X109077429Y-38289235D01*
X109054329Y-38280970D01*
X109032151Y-38270480D01*
X109011107Y-38257867D01*
X108991402Y-38243253D01*
X108973223Y-38226777D01*
X108956747Y-38208598D01*
X108942133Y-38188893D01*
X108929520Y-38167849D01*
X108919030Y-38145671D01*
X108910765Y-38122571D01*
X108904804Y-38098773D01*
X108901204Y-38074504D01*
X108900000Y-38050000D01*
X108900000Y-35950000D01*
X108901204Y-35925496D01*
X108904804Y-35901227D01*
X108910765Y-35877429D01*
X108919030Y-35854329D01*
X108929520Y-35832151D01*
X108942133Y-35811107D01*
X108956747Y-35791402D01*
X108973223Y-35773223D01*
X108991402Y-35756747D01*
X109011107Y-35742133D01*
X109032151Y-35729520D01*
X109054329Y-35719030D01*
X109077429Y-35710765D01*
X109101227Y-35704804D01*
X109125496Y-35701204D01*
X109150000Y-35700000D01*
X110250000Y-35700000D01*
X110274504Y-35701204D01*
X110274504Y-35701204D01*
G37*
D13*
X109700000Y-37000000D03*
D10*
G36*
X150560779Y-25526144D02*
G01*
X150583834Y-25529563D01*
X150606443Y-25535227D01*
X150628387Y-25543079D01*
X150649457Y-25553044D01*
X150669448Y-25565026D01*
X150688168Y-25578910D01*
X150705438Y-25594562D01*
X150721090Y-25611832D01*
X150734974Y-25630552D01*
X150746956Y-25650543D01*
X150756921Y-25671613D01*
X150764773Y-25693557D01*
X150770437Y-25716166D01*
X150773856Y-25739221D01*
X150775000Y-25762500D01*
X150775000Y-26237500D01*
X150773856Y-26260779D01*
X150770437Y-26283834D01*
X150764773Y-26306443D01*
X150756921Y-26328387D01*
X150746956Y-26349457D01*
X150734974Y-26369448D01*
X150721090Y-26388168D01*
X150705438Y-26405438D01*
X150688168Y-26421090D01*
X150669448Y-26434974D01*
X150649457Y-26446956D01*
X150628387Y-26456921D01*
X150606443Y-26464773D01*
X150583834Y-26470437D01*
X150560779Y-26473856D01*
X150537500Y-26475000D01*
X149962500Y-26475000D01*
X149939221Y-26473856D01*
X149916166Y-26470437D01*
X149893557Y-26464773D01*
X149871613Y-26456921D01*
X149850543Y-26446956D01*
X149830552Y-26434974D01*
X149811832Y-26421090D01*
X149794562Y-26405438D01*
X149778910Y-26388168D01*
X149765026Y-26369448D01*
X149753044Y-26349457D01*
X149743079Y-26328387D01*
X149735227Y-26306443D01*
X149729563Y-26283834D01*
X149726144Y-26260779D01*
X149725000Y-26237500D01*
X149725000Y-25762500D01*
X149726144Y-25739221D01*
X149729563Y-25716166D01*
X149735227Y-25693557D01*
X149743079Y-25671613D01*
X149753044Y-25650543D01*
X149765026Y-25630552D01*
X149778910Y-25611832D01*
X149794562Y-25594562D01*
X149811832Y-25578910D01*
X149830552Y-25565026D01*
X149850543Y-25553044D01*
X149871613Y-25543079D01*
X149893557Y-25535227D01*
X149916166Y-25529563D01*
X149939221Y-25526144D01*
X149962500Y-25525000D01*
X150537500Y-25525000D01*
X150560779Y-25526144D01*
X150560779Y-25526144D01*
G37*
D12*
X150250000Y-26000000D03*
D10*
G36*
X152310779Y-25526144D02*
G01*
X152333834Y-25529563D01*
X152356443Y-25535227D01*
X152378387Y-25543079D01*
X152399457Y-25553044D01*
X152419448Y-25565026D01*
X152438168Y-25578910D01*
X152455438Y-25594562D01*
X152471090Y-25611832D01*
X152484974Y-25630552D01*
X152496956Y-25650543D01*
X152506921Y-25671613D01*
X152514773Y-25693557D01*
X152520437Y-25716166D01*
X152523856Y-25739221D01*
X152525000Y-25762500D01*
X152525000Y-26237500D01*
X152523856Y-26260779D01*
X152520437Y-26283834D01*
X152514773Y-26306443D01*
X152506921Y-26328387D01*
X152496956Y-26349457D01*
X152484974Y-26369448D01*
X152471090Y-26388168D01*
X152455438Y-26405438D01*
X152438168Y-26421090D01*
X152419448Y-26434974D01*
X152399457Y-26446956D01*
X152378387Y-26456921D01*
X152356443Y-26464773D01*
X152333834Y-26470437D01*
X152310779Y-26473856D01*
X152287500Y-26475000D01*
X151712500Y-26475000D01*
X151689221Y-26473856D01*
X151666166Y-26470437D01*
X151643557Y-26464773D01*
X151621613Y-26456921D01*
X151600543Y-26446956D01*
X151580552Y-26434974D01*
X151561832Y-26421090D01*
X151544562Y-26405438D01*
X151528910Y-26388168D01*
X151515026Y-26369448D01*
X151503044Y-26349457D01*
X151493079Y-26328387D01*
X151485227Y-26306443D01*
X151479563Y-26283834D01*
X151476144Y-26260779D01*
X151475000Y-26237500D01*
X151475000Y-25762500D01*
X151476144Y-25739221D01*
X151479563Y-25716166D01*
X151485227Y-25693557D01*
X151493079Y-25671613D01*
X151503044Y-25650543D01*
X151515026Y-25630552D01*
X151528910Y-25611832D01*
X151544562Y-25594562D01*
X151561832Y-25578910D01*
X151580552Y-25565026D01*
X151600543Y-25553044D01*
X151621613Y-25543079D01*
X151643557Y-25535227D01*
X151666166Y-25529563D01*
X151689221Y-25526144D01*
X151712500Y-25525000D01*
X152287500Y-25525000D01*
X152310779Y-25526144D01*
X152310779Y-25526144D01*
G37*
D12*
X152000000Y-26000000D03*
D10*
G36*
X142935779Y-25526144D02*
G01*
X142958834Y-25529563D01*
X142981443Y-25535227D01*
X143003387Y-25543079D01*
X143024457Y-25553044D01*
X143044448Y-25565026D01*
X143063168Y-25578910D01*
X143080438Y-25594562D01*
X143096090Y-25611832D01*
X143109974Y-25630552D01*
X143121956Y-25650543D01*
X143131921Y-25671613D01*
X143139773Y-25693557D01*
X143145437Y-25716166D01*
X143148856Y-25739221D01*
X143150000Y-25762500D01*
X143150000Y-26237500D01*
X143148856Y-26260779D01*
X143145437Y-26283834D01*
X143139773Y-26306443D01*
X143131921Y-26328387D01*
X143121956Y-26349457D01*
X143109974Y-26369448D01*
X143096090Y-26388168D01*
X143080438Y-26405438D01*
X143063168Y-26421090D01*
X143044448Y-26434974D01*
X143024457Y-26446956D01*
X143003387Y-26456921D01*
X142981443Y-26464773D01*
X142958834Y-26470437D01*
X142935779Y-26473856D01*
X142912500Y-26475000D01*
X142337500Y-26475000D01*
X142314221Y-26473856D01*
X142291166Y-26470437D01*
X142268557Y-26464773D01*
X142246613Y-26456921D01*
X142225543Y-26446956D01*
X142205552Y-26434974D01*
X142186832Y-26421090D01*
X142169562Y-26405438D01*
X142153910Y-26388168D01*
X142140026Y-26369448D01*
X142128044Y-26349457D01*
X142118079Y-26328387D01*
X142110227Y-26306443D01*
X142104563Y-26283834D01*
X142101144Y-26260779D01*
X142100000Y-26237500D01*
X142100000Y-25762500D01*
X142101144Y-25739221D01*
X142104563Y-25716166D01*
X142110227Y-25693557D01*
X142118079Y-25671613D01*
X142128044Y-25650543D01*
X142140026Y-25630552D01*
X142153910Y-25611832D01*
X142169562Y-25594562D01*
X142186832Y-25578910D01*
X142205552Y-25565026D01*
X142225543Y-25553044D01*
X142246613Y-25543079D01*
X142268557Y-25535227D01*
X142291166Y-25529563D01*
X142314221Y-25526144D01*
X142337500Y-25525000D01*
X142912500Y-25525000D01*
X142935779Y-25526144D01*
X142935779Y-25526144D01*
G37*
D12*
X142625000Y-26000000D03*
D10*
G36*
X141185779Y-25526144D02*
G01*
X141208834Y-25529563D01*
X141231443Y-25535227D01*
X141253387Y-25543079D01*
X141274457Y-25553044D01*
X141294448Y-25565026D01*
X141313168Y-25578910D01*
X141330438Y-25594562D01*
X141346090Y-25611832D01*
X141359974Y-25630552D01*
X141371956Y-25650543D01*
X141381921Y-25671613D01*
X141389773Y-25693557D01*
X141395437Y-25716166D01*
X141398856Y-25739221D01*
X141400000Y-25762500D01*
X141400000Y-26237500D01*
X141398856Y-26260779D01*
X141395437Y-26283834D01*
X141389773Y-26306443D01*
X141381921Y-26328387D01*
X141371956Y-26349457D01*
X141359974Y-26369448D01*
X141346090Y-26388168D01*
X141330438Y-26405438D01*
X141313168Y-26421090D01*
X141294448Y-26434974D01*
X141274457Y-26446956D01*
X141253387Y-26456921D01*
X141231443Y-26464773D01*
X141208834Y-26470437D01*
X141185779Y-26473856D01*
X141162500Y-26475000D01*
X140587500Y-26475000D01*
X140564221Y-26473856D01*
X140541166Y-26470437D01*
X140518557Y-26464773D01*
X140496613Y-26456921D01*
X140475543Y-26446956D01*
X140455552Y-26434974D01*
X140436832Y-26421090D01*
X140419562Y-26405438D01*
X140403910Y-26388168D01*
X140390026Y-26369448D01*
X140378044Y-26349457D01*
X140368079Y-26328387D01*
X140360227Y-26306443D01*
X140354563Y-26283834D01*
X140351144Y-26260779D01*
X140350000Y-26237500D01*
X140350000Y-25762500D01*
X140351144Y-25739221D01*
X140354563Y-25716166D01*
X140360227Y-25693557D01*
X140368079Y-25671613D01*
X140378044Y-25650543D01*
X140390026Y-25630552D01*
X140403910Y-25611832D01*
X140419562Y-25594562D01*
X140436832Y-25578910D01*
X140455552Y-25565026D01*
X140475543Y-25553044D01*
X140496613Y-25543079D01*
X140518557Y-25535227D01*
X140541166Y-25529563D01*
X140564221Y-25526144D01*
X140587500Y-25525000D01*
X141162500Y-25525000D01*
X141185779Y-25526144D01*
X141185779Y-25526144D01*
G37*
D12*
X140875000Y-26000000D03*
D10*
G36*
X133560779Y-25526144D02*
G01*
X133583834Y-25529563D01*
X133606443Y-25535227D01*
X133628387Y-25543079D01*
X133649457Y-25553044D01*
X133669448Y-25565026D01*
X133688168Y-25578910D01*
X133705438Y-25594562D01*
X133721090Y-25611832D01*
X133734974Y-25630552D01*
X133746956Y-25650543D01*
X133756921Y-25671613D01*
X133764773Y-25693557D01*
X133770437Y-25716166D01*
X133773856Y-25739221D01*
X133775000Y-25762500D01*
X133775000Y-26237500D01*
X133773856Y-26260779D01*
X133770437Y-26283834D01*
X133764773Y-26306443D01*
X133756921Y-26328387D01*
X133746956Y-26349457D01*
X133734974Y-26369448D01*
X133721090Y-26388168D01*
X133705438Y-26405438D01*
X133688168Y-26421090D01*
X133669448Y-26434974D01*
X133649457Y-26446956D01*
X133628387Y-26456921D01*
X133606443Y-26464773D01*
X133583834Y-26470437D01*
X133560779Y-26473856D01*
X133537500Y-26475000D01*
X132962500Y-26475000D01*
X132939221Y-26473856D01*
X132916166Y-26470437D01*
X132893557Y-26464773D01*
X132871613Y-26456921D01*
X132850543Y-26446956D01*
X132830552Y-26434974D01*
X132811832Y-26421090D01*
X132794562Y-26405438D01*
X132778910Y-26388168D01*
X132765026Y-26369448D01*
X132753044Y-26349457D01*
X132743079Y-26328387D01*
X132735227Y-26306443D01*
X132729563Y-26283834D01*
X132726144Y-26260779D01*
X132725000Y-26237500D01*
X132725000Y-25762500D01*
X132726144Y-25739221D01*
X132729563Y-25716166D01*
X132735227Y-25693557D01*
X132743079Y-25671613D01*
X132753044Y-25650543D01*
X132765026Y-25630552D01*
X132778910Y-25611832D01*
X132794562Y-25594562D01*
X132811832Y-25578910D01*
X132830552Y-25565026D01*
X132850543Y-25553044D01*
X132871613Y-25543079D01*
X132893557Y-25535227D01*
X132916166Y-25529563D01*
X132939221Y-25526144D01*
X132962500Y-25525000D01*
X133537500Y-25525000D01*
X133560779Y-25526144D01*
X133560779Y-25526144D01*
G37*
D12*
X133250000Y-26000000D03*
D10*
G36*
X135310779Y-25526144D02*
G01*
X135333834Y-25529563D01*
X135356443Y-25535227D01*
X135378387Y-25543079D01*
X135399457Y-25553044D01*
X135419448Y-25565026D01*
X135438168Y-25578910D01*
X135455438Y-25594562D01*
X135471090Y-25611832D01*
X135484974Y-25630552D01*
X135496956Y-25650543D01*
X135506921Y-25671613D01*
X135514773Y-25693557D01*
X135520437Y-25716166D01*
X135523856Y-25739221D01*
X135525000Y-25762500D01*
X135525000Y-26237500D01*
X135523856Y-26260779D01*
X135520437Y-26283834D01*
X135514773Y-26306443D01*
X135506921Y-26328387D01*
X135496956Y-26349457D01*
X135484974Y-26369448D01*
X135471090Y-26388168D01*
X135455438Y-26405438D01*
X135438168Y-26421090D01*
X135419448Y-26434974D01*
X135399457Y-26446956D01*
X135378387Y-26456921D01*
X135356443Y-26464773D01*
X135333834Y-26470437D01*
X135310779Y-26473856D01*
X135287500Y-26475000D01*
X134712500Y-26475000D01*
X134689221Y-26473856D01*
X134666166Y-26470437D01*
X134643557Y-26464773D01*
X134621613Y-26456921D01*
X134600543Y-26446956D01*
X134580552Y-26434974D01*
X134561832Y-26421090D01*
X134544562Y-26405438D01*
X134528910Y-26388168D01*
X134515026Y-26369448D01*
X134503044Y-26349457D01*
X134493079Y-26328387D01*
X134485227Y-26306443D01*
X134479563Y-26283834D01*
X134476144Y-26260779D01*
X134475000Y-26237500D01*
X134475000Y-25762500D01*
X134476144Y-25739221D01*
X134479563Y-25716166D01*
X134485227Y-25693557D01*
X134493079Y-25671613D01*
X134503044Y-25650543D01*
X134515026Y-25630552D01*
X134528910Y-25611832D01*
X134544562Y-25594562D01*
X134561832Y-25578910D01*
X134580552Y-25565026D01*
X134600543Y-25553044D01*
X134621613Y-25543079D01*
X134643557Y-25535227D01*
X134666166Y-25529563D01*
X134689221Y-25526144D01*
X134712500Y-25525000D01*
X135287500Y-25525000D01*
X135310779Y-25526144D01*
X135310779Y-25526144D01*
G37*
D12*
X135000000Y-26000000D03*
D10*
G36*
X127710779Y-25426144D02*
G01*
X127733834Y-25429563D01*
X127756443Y-25435227D01*
X127778387Y-25443079D01*
X127799457Y-25453044D01*
X127819448Y-25465026D01*
X127838168Y-25478910D01*
X127855438Y-25494562D01*
X127871090Y-25511832D01*
X127884974Y-25530552D01*
X127896956Y-25550543D01*
X127906921Y-25571613D01*
X127914773Y-25593557D01*
X127920437Y-25616166D01*
X127923856Y-25639221D01*
X127925000Y-25662500D01*
X127925000Y-26137500D01*
X127923856Y-26160779D01*
X127920437Y-26183834D01*
X127914773Y-26206443D01*
X127906921Y-26228387D01*
X127896956Y-26249457D01*
X127884974Y-26269448D01*
X127871090Y-26288168D01*
X127855438Y-26305438D01*
X127838168Y-26321090D01*
X127819448Y-26334974D01*
X127799457Y-26346956D01*
X127778387Y-26356921D01*
X127756443Y-26364773D01*
X127733834Y-26370437D01*
X127710779Y-26373856D01*
X127687500Y-26375000D01*
X127112500Y-26375000D01*
X127089221Y-26373856D01*
X127066166Y-26370437D01*
X127043557Y-26364773D01*
X127021613Y-26356921D01*
X127000543Y-26346956D01*
X126980552Y-26334974D01*
X126961832Y-26321090D01*
X126944562Y-26305438D01*
X126928910Y-26288168D01*
X126915026Y-26269448D01*
X126903044Y-26249457D01*
X126893079Y-26228387D01*
X126885227Y-26206443D01*
X126879563Y-26183834D01*
X126876144Y-26160779D01*
X126875000Y-26137500D01*
X126875000Y-25662500D01*
X126876144Y-25639221D01*
X126879563Y-25616166D01*
X126885227Y-25593557D01*
X126893079Y-25571613D01*
X126903044Y-25550543D01*
X126915026Y-25530552D01*
X126928910Y-25511832D01*
X126944562Y-25494562D01*
X126961832Y-25478910D01*
X126980552Y-25465026D01*
X127000543Y-25453044D01*
X127021613Y-25443079D01*
X127043557Y-25435227D01*
X127066166Y-25429563D01*
X127089221Y-25426144D01*
X127112500Y-25425000D01*
X127687500Y-25425000D01*
X127710779Y-25426144D01*
X127710779Y-25426144D01*
G37*
D12*
X127400000Y-25900000D03*
D10*
G36*
X125960779Y-25426144D02*
G01*
X125983834Y-25429563D01*
X126006443Y-25435227D01*
X126028387Y-25443079D01*
X126049457Y-25453044D01*
X126069448Y-25465026D01*
X126088168Y-25478910D01*
X126105438Y-25494562D01*
X126121090Y-25511832D01*
X126134974Y-25530552D01*
X126146956Y-25550543D01*
X126156921Y-25571613D01*
X126164773Y-25593557D01*
X126170437Y-25616166D01*
X126173856Y-25639221D01*
X126175000Y-25662500D01*
X126175000Y-26137500D01*
X126173856Y-26160779D01*
X126170437Y-26183834D01*
X126164773Y-26206443D01*
X126156921Y-26228387D01*
X126146956Y-26249457D01*
X126134974Y-26269448D01*
X126121090Y-26288168D01*
X126105438Y-26305438D01*
X126088168Y-26321090D01*
X126069448Y-26334974D01*
X126049457Y-26346956D01*
X126028387Y-26356921D01*
X126006443Y-26364773D01*
X125983834Y-26370437D01*
X125960779Y-26373856D01*
X125937500Y-26375000D01*
X125362500Y-26375000D01*
X125339221Y-26373856D01*
X125316166Y-26370437D01*
X125293557Y-26364773D01*
X125271613Y-26356921D01*
X125250543Y-26346956D01*
X125230552Y-26334974D01*
X125211832Y-26321090D01*
X125194562Y-26305438D01*
X125178910Y-26288168D01*
X125165026Y-26269448D01*
X125153044Y-26249457D01*
X125143079Y-26228387D01*
X125135227Y-26206443D01*
X125129563Y-26183834D01*
X125126144Y-26160779D01*
X125125000Y-26137500D01*
X125125000Y-25662500D01*
X125126144Y-25639221D01*
X125129563Y-25616166D01*
X125135227Y-25593557D01*
X125143079Y-25571613D01*
X125153044Y-25550543D01*
X125165026Y-25530552D01*
X125178910Y-25511832D01*
X125194562Y-25494562D01*
X125211832Y-25478910D01*
X125230552Y-25465026D01*
X125250543Y-25453044D01*
X125271613Y-25443079D01*
X125293557Y-25435227D01*
X125316166Y-25429563D01*
X125339221Y-25426144D01*
X125362500Y-25425000D01*
X125937500Y-25425000D01*
X125960779Y-25426144D01*
X125960779Y-25426144D01*
G37*
D12*
X125650000Y-25900000D03*
D10*
G36*
X156099505Y-58076204D02*
G01*
X156123773Y-58079804D01*
X156147572Y-58085765D01*
X156170671Y-58094030D01*
X156192850Y-58104520D01*
X156213893Y-58117132D01*
X156233599Y-58131747D01*
X156251777Y-58148223D01*
X156268253Y-58166401D01*
X156282868Y-58186107D01*
X156295480Y-58207150D01*
X156305970Y-58229329D01*
X156314235Y-58252428D01*
X156320196Y-58276227D01*
X156323796Y-58300495D01*
X156325000Y-58324999D01*
X156325000Y-60375001D01*
X156323796Y-60399505D01*
X156320196Y-60423773D01*
X156314235Y-60447572D01*
X156305970Y-60470671D01*
X156295480Y-60492850D01*
X156282868Y-60513893D01*
X156268253Y-60533599D01*
X156251777Y-60551777D01*
X156233599Y-60568253D01*
X156213893Y-60582868D01*
X156192850Y-60595480D01*
X156170671Y-60605970D01*
X156147572Y-60614235D01*
X156123773Y-60620196D01*
X156099505Y-60623796D01*
X156075001Y-60625000D01*
X154324999Y-60625000D01*
X154300495Y-60623796D01*
X154276227Y-60620196D01*
X154252428Y-60614235D01*
X154229329Y-60605970D01*
X154207150Y-60595480D01*
X154186107Y-60582868D01*
X154166401Y-60568253D01*
X154148223Y-60551777D01*
X154131747Y-60533599D01*
X154117132Y-60513893D01*
X154104520Y-60492850D01*
X154094030Y-60470671D01*
X154085765Y-60447572D01*
X154079804Y-60423773D01*
X154076204Y-60399505D01*
X154075000Y-60375001D01*
X154075000Y-58324999D01*
X154076204Y-58300495D01*
X154079804Y-58276227D01*
X154085765Y-58252428D01*
X154094030Y-58229329D01*
X154104520Y-58207150D01*
X154117132Y-58186107D01*
X154131747Y-58166401D01*
X154148223Y-58148223D01*
X154166401Y-58131747D01*
X154186107Y-58117132D01*
X154207150Y-58104520D01*
X154229329Y-58094030D01*
X154252428Y-58085765D01*
X154276227Y-58079804D01*
X154300495Y-58076204D01*
X154324999Y-58075000D01*
X156075001Y-58075000D01*
X156099505Y-58076204D01*
X156099505Y-58076204D01*
G37*
D11*
X155200000Y-59350000D03*
D10*
G36*
X149699505Y-58076204D02*
G01*
X149723773Y-58079804D01*
X149747572Y-58085765D01*
X149770671Y-58094030D01*
X149792850Y-58104520D01*
X149813893Y-58117132D01*
X149833599Y-58131747D01*
X149851777Y-58148223D01*
X149868253Y-58166401D01*
X149882868Y-58186107D01*
X149895480Y-58207150D01*
X149905970Y-58229329D01*
X149914235Y-58252428D01*
X149920196Y-58276227D01*
X149923796Y-58300495D01*
X149925000Y-58324999D01*
X149925000Y-60375001D01*
X149923796Y-60399505D01*
X149920196Y-60423773D01*
X149914235Y-60447572D01*
X149905970Y-60470671D01*
X149895480Y-60492850D01*
X149882868Y-60513893D01*
X149868253Y-60533599D01*
X149851777Y-60551777D01*
X149833599Y-60568253D01*
X149813893Y-60582868D01*
X149792850Y-60595480D01*
X149770671Y-60605970D01*
X149747572Y-60614235D01*
X149723773Y-60620196D01*
X149699505Y-60623796D01*
X149675001Y-60625000D01*
X147924999Y-60625000D01*
X147900495Y-60623796D01*
X147876227Y-60620196D01*
X147852428Y-60614235D01*
X147829329Y-60605970D01*
X147807150Y-60595480D01*
X147786107Y-60582868D01*
X147766401Y-60568253D01*
X147748223Y-60551777D01*
X147731747Y-60533599D01*
X147717132Y-60513893D01*
X147704520Y-60492850D01*
X147694030Y-60470671D01*
X147685765Y-60447572D01*
X147679804Y-60423773D01*
X147676204Y-60399505D01*
X147675000Y-60375001D01*
X147675000Y-58324999D01*
X147676204Y-58300495D01*
X147679804Y-58276227D01*
X147685765Y-58252428D01*
X147694030Y-58229329D01*
X147704520Y-58207150D01*
X147717132Y-58186107D01*
X147731747Y-58166401D01*
X147748223Y-58148223D01*
X147766401Y-58131747D01*
X147786107Y-58117132D01*
X147807150Y-58104520D01*
X147829329Y-58094030D01*
X147852428Y-58085765D01*
X147876227Y-58079804D01*
X147900495Y-58076204D01*
X147924999Y-58075000D01*
X149675001Y-58075000D01*
X149699505Y-58076204D01*
X149699505Y-58076204D01*
G37*
D11*
X148800000Y-59350000D03*
D10*
G36*
X138349505Y-58076204D02*
G01*
X138373773Y-58079804D01*
X138397572Y-58085765D01*
X138420671Y-58094030D01*
X138442850Y-58104520D01*
X138463893Y-58117132D01*
X138483599Y-58131747D01*
X138501777Y-58148223D01*
X138518253Y-58166401D01*
X138532868Y-58186107D01*
X138545480Y-58207150D01*
X138555970Y-58229329D01*
X138564235Y-58252428D01*
X138570196Y-58276227D01*
X138573796Y-58300495D01*
X138575000Y-58324999D01*
X138575000Y-60375001D01*
X138573796Y-60399505D01*
X138570196Y-60423773D01*
X138564235Y-60447572D01*
X138555970Y-60470671D01*
X138545480Y-60492850D01*
X138532868Y-60513893D01*
X138518253Y-60533599D01*
X138501777Y-60551777D01*
X138483599Y-60568253D01*
X138463893Y-60582868D01*
X138442850Y-60595480D01*
X138420671Y-60605970D01*
X138397572Y-60614235D01*
X138373773Y-60620196D01*
X138349505Y-60623796D01*
X138325001Y-60625000D01*
X136574999Y-60625000D01*
X136550495Y-60623796D01*
X136526227Y-60620196D01*
X136502428Y-60614235D01*
X136479329Y-60605970D01*
X136457150Y-60595480D01*
X136436107Y-60582868D01*
X136416401Y-60568253D01*
X136398223Y-60551777D01*
X136381747Y-60533599D01*
X136367132Y-60513893D01*
X136354520Y-60492850D01*
X136344030Y-60470671D01*
X136335765Y-60447572D01*
X136329804Y-60423773D01*
X136326204Y-60399505D01*
X136325000Y-60375001D01*
X136325000Y-58324999D01*
X136326204Y-58300495D01*
X136329804Y-58276227D01*
X136335765Y-58252428D01*
X136344030Y-58229329D01*
X136354520Y-58207150D01*
X136367132Y-58186107D01*
X136381747Y-58166401D01*
X136398223Y-58148223D01*
X136416401Y-58131747D01*
X136436107Y-58117132D01*
X136457150Y-58104520D01*
X136479329Y-58094030D01*
X136502428Y-58085765D01*
X136526227Y-58079804D01*
X136550495Y-58076204D01*
X136574999Y-58075000D01*
X138325001Y-58075000D01*
X138349505Y-58076204D01*
X138349505Y-58076204D01*
G37*
D11*
X137450000Y-59350000D03*
D10*
G36*
X144749505Y-58076204D02*
G01*
X144773773Y-58079804D01*
X144797572Y-58085765D01*
X144820671Y-58094030D01*
X144842850Y-58104520D01*
X144863893Y-58117132D01*
X144883599Y-58131747D01*
X144901777Y-58148223D01*
X144918253Y-58166401D01*
X144932868Y-58186107D01*
X144945480Y-58207150D01*
X144955970Y-58229329D01*
X144964235Y-58252428D01*
X144970196Y-58276227D01*
X144973796Y-58300495D01*
X144975000Y-58324999D01*
X144975000Y-60375001D01*
X144973796Y-60399505D01*
X144970196Y-60423773D01*
X144964235Y-60447572D01*
X144955970Y-60470671D01*
X144945480Y-60492850D01*
X144932868Y-60513893D01*
X144918253Y-60533599D01*
X144901777Y-60551777D01*
X144883599Y-60568253D01*
X144863893Y-60582868D01*
X144842850Y-60595480D01*
X144820671Y-60605970D01*
X144797572Y-60614235D01*
X144773773Y-60620196D01*
X144749505Y-60623796D01*
X144725001Y-60625000D01*
X142974999Y-60625000D01*
X142950495Y-60623796D01*
X142926227Y-60620196D01*
X142902428Y-60614235D01*
X142879329Y-60605970D01*
X142857150Y-60595480D01*
X142836107Y-60582868D01*
X142816401Y-60568253D01*
X142798223Y-60551777D01*
X142781747Y-60533599D01*
X142767132Y-60513893D01*
X142754520Y-60492850D01*
X142744030Y-60470671D01*
X142735765Y-60447572D01*
X142729804Y-60423773D01*
X142726204Y-60399505D01*
X142725000Y-60375001D01*
X142725000Y-58324999D01*
X142726204Y-58300495D01*
X142729804Y-58276227D01*
X142735765Y-58252428D01*
X142744030Y-58229329D01*
X142754520Y-58207150D01*
X142767132Y-58186107D01*
X142781747Y-58166401D01*
X142798223Y-58148223D01*
X142816401Y-58131747D01*
X142836107Y-58117132D01*
X142857150Y-58104520D01*
X142879329Y-58094030D01*
X142902428Y-58085765D01*
X142926227Y-58079804D01*
X142950495Y-58076204D01*
X142974999Y-58075000D01*
X144725001Y-58075000D01*
X144749505Y-58076204D01*
X144749505Y-58076204D01*
G37*
D11*
X143850000Y-59350000D03*
D10*
G36*
X118549505Y-58076204D02*
G01*
X118573773Y-58079804D01*
X118597572Y-58085765D01*
X118620671Y-58094030D01*
X118642850Y-58104520D01*
X118663893Y-58117132D01*
X118683599Y-58131747D01*
X118701777Y-58148223D01*
X118718253Y-58166401D01*
X118732868Y-58186107D01*
X118745480Y-58207150D01*
X118755970Y-58229329D01*
X118764235Y-58252428D01*
X118770196Y-58276227D01*
X118773796Y-58300495D01*
X118775000Y-58324999D01*
X118775000Y-60375001D01*
X118773796Y-60399505D01*
X118770196Y-60423773D01*
X118764235Y-60447572D01*
X118755970Y-60470671D01*
X118745480Y-60492850D01*
X118732868Y-60513893D01*
X118718253Y-60533599D01*
X118701777Y-60551777D01*
X118683599Y-60568253D01*
X118663893Y-60582868D01*
X118642850Y-60595480D01*
X118620671Y-60605970D01*
X118597572Y-60614235D01*
X118573773Y-60620196D01*
X118549505Y-60623796D01*
X118525001Y-60625000D01*
X116774999Y-60625000D01*
X116750495Y-60623796D01*
X116726227Y-60620196D01*
X116702428Y-60614235D01*
X116679329Y-60605970D01*
X116657150Y-60595480D01*
X116636107Y-60582868D01*
X116616401Y-60568253D01*
X116598223Y-60551777D01*
X116581747Y-60533599D01*
X116567132Y-60513893D01*
X116554520Y-60492850D01*
X116544030Y-60470671D01*
X116535765Y-60447572D01*
X116529804Y-60423773D01*
X116526204Y-60399505D01*
X116525000Y-60375001D01*
X116525000Y-58324999D01*
X116526204Y-58300495D01*
X116529804Y-58276227D01*
X116535765Y-58252428D01*
X116544030Y-58229329D01*
X116554520Y-58207150D01*
X116567132Y-58186107D01*
X116581747Y-58166401D01*
X116598223Y-58148223D01*
X116616401Y-58131747D01*
X116636107Y-58117132D01*
X116657150Y-58104520D01*
X116679329Y-58094030D01*
X116702428Y-58085765D01*
X116726227Y-58079804D01*
X116750495Y-58076204D01*
X116774999Y-58075000D01*
X118525001Y-58075000D01*
X118549505Y-58076204D01*
X118549505Y-58076204D01*
G37*
D11*
X117650000Y-59350000D03*
D10*
G36*
X112149505Y-58076204D02*
G01*
X112173773Y-58079804D01*
X112197572Y-58085765D01*
X112220671Y-58094030D01*
X112242850Y-58104520D01*
X112263893Y-58117132D01*
X112283599Y-58131747D01*
X112301777Y-58148223D01*
X112318253Y-58166401D01*
X112332868Y-58186107D01*
X112345480Y-58207150D01*
X112355970Y-58229329D01*
X112364235Y-58252428D01*
X112370196Y-58276227D01*
X112373796Y-58300495D01*
X112375000Y-58324999D01*
X112375000Y-60375001D01*
X112373796Y-60399505D01*
X112370196Y-60423773D01*
X112364235Y-60447572D01*
X112355970Y-60470671D01*
X112345480Y-60492850D01*
X112332868Y-60513893D01*
X112318253Y-60533599D01*
X112301777Y-60551777D01*
X112283599Y-60568253D01*
X112263893Y-60582868D01*
X112242850Y-60595480D01*
X112220671Y-60605970D01*
X112197572Y-60614235D01*
X112173773Y-60620196D01*
X112149505Y-60623796D01*
X112125001Y-60625000D01*
X110374999Y-60625000D01*
X110350495Y-60623796D01*
X110326227Y-60620196D01*
X110302428Y-60614235D01*
X110279329Y-60605970D01*
X110257150Y-60595480D01*
X110236107Y-60582868D01*
X110216401Y-60568253D01*
X110198223Y-60551777D01*
X110181747Y-60533599D01*
X110167132Y-60513893D01*
X110154520Y-60492850D01*
X110144030Y-60470671D01*
X110135765Y-60447572D01*
X110129804Y-60423773D01*
X110126204Y-60399505D01*
X110125000Y-60375001D01*
X110125000Y-58324999D01*
X110126204Y-58300495D01*
X110129804Y-58276227D01*
X110135765Y-58252428D01*
X110144030Y-58229329D01*
X110154520Y-58207150D01*
X110167132Y-58186107D01*
X110181747Y-58166401D01*
X110198223Y-58148223D01*
X110216401Y-58131747D01*
X110236107Y-58117132D01*
X110257150Y-58104520D01*
X110279329Y-58094030D01*
X110302428Y-58085765D01*
X110326227Y-58079804D01*
X110350495Y-58076204D01*
X110374999Y-58075000D01*
X112125001Y-58075000D01*
X112149505Y-58076204D01*
X112149505Y-58076204D01*
G37*
D11*
X111250000Y-59350000D03*
D10*
G36*
X149399505Y-43426204D02*
G01*
X149423773Y-43429804D01*
X149447572Y-43435765D01*
X149470671Y-43444030D01*
X149492850Y-43454520D01*
X149513893Y-43467132D01*
X149533599Y-43481747D01*
X149551777Y-43498223D01*
X149568253Y-43516401D01*
X149582868Y-43536107D01*
X149595480Y-43557150D01*
X149605970Y-43579329D01*
X149614235Y-43602428D01*
X149620196Y-43626227D01*
X149623796Y-43650495D01*
X149625000Y-43674999D01*
X149625000Y-45725001D01*
X149623796Y-45749505D01*
X149620196Y-45773773D01*
X149614235Y-45797572D01*
X149605970Y-45820671D01*
X149595480Y-45842850D01*
X149582868Y-45863893D01*
X149568253Y-45883599D01*
X149551777Y-45901777D01*
X149533599Y-45918253D01*
X149513893Y-45932868D01*
X149492850Y-45945480D01*
X149470671Y-45955970D01*
X149447572Y-45964235D01*
X149423773Y-45970196D01*
X149399505Y-45973796D01*
X149375001Y-45975000D01*
X147624999Y-45975000D01*
X147600495Y-45973796D01*
X147576227Y-45970196D01*
X147552428Y-45964235D01*
X147529329Y-45955970D01*
X147507150Y-45945480D01*
X147486107Y-45932868D01*
X147466401Y-45918253D01*
X147448223Y-45901777D01*
X147431747Y-45883599D01*
X147417132Y-45863893D01*
X147404520Y-45842850D01*
X147394030Y-45820671D01*
X147385765Y-45797572D01*
X147379804Y-45773773D01*
X147376204Y-45749505D01*
X147375000Y-45725001D01*
X147375000Y-43674999D01*
X147376204Y-43650495D01*
X147379804Y-43626227D01*
X147385765Y-43602428D01*
X147394030Y-43579329D01*
X147404520Y-43557150D01*
X147417132Y-43536107D01*
X147431747Y-43516401D01*
X147448223Y-43498223D01*
X147466401Y-43481747D01*
X147486107Y-43467132D01*
X147507150Y-43454520D01*
X147529329Y-43444030D01*
X147552428Y-43435765D01*
X147576227Y-43429804D01*
X147600495Y-43426204D01*
X147624999Y-43425000D01*
X149375001Y-43425000D01*
X149399505Y-43426204D01*
X149399505Y-43426204D01*
G37*
D11*
X148500000Y-44700000D03*
D10*
G36*
X155799505Y-43426204D02*
G01*
X155823773Y-43429804D01*
X155847572Y-43435765D01*
X155870671Y-43444030D01*
X155892850Y-43454520D01*
X155913893Y-43467132D01*
X155933599Y-43481747D01*
X155951777Y-43498223D01*
X155968253Y-43516401D01*
X155982868Y-43536107D01*
X155995480Y-43557150D01*
X156005970Y-43579329D01*
X156014235Y-43602428D01*
X156020196Y-43626227D01*
X156023796Y-43650495D01*
X156025000Y-43674999D01*
X156025000Y-45725001D01*
X156023796Y-45749505D01*
X156020196Y-45773773D01*
X156014235Y-45797572D01*
X156005970Y-45820671D01*
X155995480Y-45842850D01*
X155982868Y-45863893D01*
X155968253Y-45883599D01*
X155951777Y-45901777D01*
X155933599Y-45918253D01*
X155913893Y-45932868D01*
X155892850Y-45945480D01*
X155870671Y-45955970D01*
X155847572Y-45964235D01*
X155823773Y-45970196D01*
X155799505Y-45973796D01*
X155775001Y-45975000D01*
X154024999Y-45975000D01*
X154000495Y-45973796D01*
X153976227Y-45970196D01*
X153952428Y-45964235D01*
X153929329Y-45955970D01*
X153907150Y-45945480D01*
X153886107Y-45932868D01*
X153866401Y-45918253D01*
X153848223Y-45901777D01*
X153831747Y-45883599D01*
X153817132Y-45863893D01*
X153804520Y-45842850D01*
X153794030Y-45820671D01*
X153785765Y-45797572D01*
X153779804Y-45773773D01*
X153776204Y-45749505D01*
X153775000Y-45725001D01*
X153775000Y-43674999D01*
X153776204Y-43650495D01*
X153779804Y-43626227D01*
X153785765Y-43602428D01*
X153794030Y-43579329D01*
X153804520Y-43557150D01*
X153817132Y-43536107D01*
X153831747Y-43516401D01*
X153848223Y-43498223D01*
X153866401Y-43481747D01*
X153886107Y-43467132D01*
X153907150Y-43454520D01*
X153929329Y-43444030D01*
X153952428Y-43435765D01*
X153976227Y-43429804D01*
X154000495Y-43426204D01*
X154024999Y-43425000D01*
X155775001Y-43425000D01*
X155799505Y-43426204D01*
X155799505Y-43426204D01*
G37*
D11*
X154900000Y-44700000D03*
D10*
G36*
X144749505Y-43426204D02*
G01*
X144773773Y-43429804D01*
X144797572Y-43435765D01*
X144820671Y-43444030D01*
X144842850Y-43454520D01*
X144863893Y-43467132D01*
X144883599Y-43481747D01*
X144901777Y-43498223D01*
X144918253Y-43516401D01*
X144932868Y-43536107D01*
X144945480Y-43557150D01*
X144955970Y-43579329D01*
X144964235Y-43602428D01*
X144970196Y-43626227D01*
X144973796Y-43650495D01*
X144975000Y-43674999D01*
X144975000Y-45725001D01*
X144973796Y-45749505D01*
X144970196Y-45773773D01*
X144964235Y-45797572D01*
X144955970Y-45820671D01*
X144945480Y-45842850D01*
X144932868Y-45863893D01*
X144918253Y-45883599D01*
X144901777Y-45901777D01*
X144883599Y-45918253D01*
X144863893Y-45932868D01*
X144842850Y-45945480D01*
X144820671Y-45955970D01*
X144797572Y-45964235D01*
X144773773Y-45970196D01*
X144749505Y-45973796D01*
X144725001Y-45975000D01*
X142974999Y-45975000D01*
X142950495Y-45973796D01*
X142926227Y-45970196D01*
X142902428Y-45964235D01*
X142879329Y-45955970D01*
X142857150Y-45945480D01*
X142836107Y-45932868D01*
X142816401Y-45918253D01*
X142798223Y-45901777D01*
X142781747Y-45883599D01*
X142767132Y-45863893D01*
X142754520Y-45842850D01*
X142744030Y-45820671D01*
X142735765Y-45797572D01*
X142729804Y-45773773D01*
X142726204Y-45749505D01*
X142725000Y-45725001D01*
X142725000Y-43674999D01*
X142726204Y-43650495D01*
X142729804Y-43626227D01*
X142735765Y-43602428D01*
X142744030Y-43579329D01*
X142754520Y-43557150D01*
X142767132Y-43536107D01*
X142781747Y-43516401D01*
X142798223Y-43498223D01*
X142816401Y-43481747D01*
X142836107Y-43467132D01*
X142857150Y-43454520D01*
X142879329Y-43444030D01*
X142902428Y-43435765D01*
X142926227Y-43429804D01*
X142950495Y-43426204D01*
X142974999Y-43425000D01*
X144725001Y-43425000D01*
X144749505Y-43426204D01*
X144749505Y-43426204D01*
G37*
D11*
X143850000Y-44700000D03*
D10*
G36*
X138349505Y-43426204D02*
G01*
X138373773Y-43429804D01*
X138397572Y-43435765D01*
X138420671Y-43444030D01*
X138442850Y-43454520D01*
X138463893Y-43467132D01*
X138483599Y-43481747D01*
X138501777Y-43498223D01*
X138518253Y-43516401D01*
X138532868Y-43536107D01*
X138545480Y-43557150D01*
X138555970Y-43579329D01*
X138564235Y-43602428D01*
X138570196Y-43626227D01*
X138573796Y-43650495D01*
X138575000Y-43674999D01*
X138575000Y-45725001D01*
X138573796Y-45749505D01*
X138570196Y-45773773D01*
X138564235Y-45797572D01*
X138555970Y-45820671D01*
X138545480Y-45842850D01*
X138532868Y-45863893D01*
X138518253Y-45883599D01*
X138501777Y-45901777D01*
X138483599Y-45918253D01*
X138463893Y-45932868D01*
X138442850Y-45945480D01*
X138420671Y-45955970D01*
X138397572Y-45964235D01*
X138373773Y-45970196D01*
X138349505Y-45973796D01*
X138325001Y-45975000D01*
X136574999Y-45975000D01*
X136550495Y-45973796D01*
X136526227Y-45970196D01*
X136502428Y-45964235D01*
X136479329Y-45955970D01*
X136457150Y-45945480D01*
X136436107Y-45932868D01*
X136416401Y-45918253D01*
X136398223Y-45901777D01*
X136381747Y-45883599D01*
X136367132Y-45863893D01*
X136354520Y-45842850D01*
X136344030Y-45820671D01*
X136335765Y-45797572D01*
X136329804Y-45773773D01*
X136326204Y-45749505D01*
X136325000Y-45725001D01*
X136325000Y-43674999D01*
X136326204Y-43650495D01*
X136329804Y-43626227D01*
X136335765Y-43602428D01*
X136344030Y-43579329D01*
X136354520Y-43557150D01*
X136367132Y-43536107D01*
X136381747Y-43516401D01*
X136398223Y-43498223D01*
X136416401Y-43481747D01*
X136436107Y-43467132D01*
X136457150Y-43454520D01*
X136479329Y-43444030D01*
X136502428Y-43435765D01*
X136526227Y-43429804D01*
X136550495Y-43426204D01*
X136574999Y-43425000D01*
X138325001Y-43425000D01*
X138349505Y-43426204D01*
X138349505Y-43426204D01*
G37*
D11*
X137450000Y-44700000D03*
D10*
G36*
X125199505Y-43426204D02*
G01*
X125223773Y-43429804D01*
X125247572Y-43435765D01*
X125270671Y-43444030D01*
X125292850Y-43454520D01*
X125313893Y-43467132D01*
X125333599Y-43481747D01*
X125351777Y-43498223D01*
X125368253Y-43516401D01*
X125382868Y-43536107D01*
X125395480Y-43557150D01*
X125405970Y-43579329D01*
X125414235Y-43602428D01*
X125420196Y-43626227D01*
X125423796Y-43650495D01*
X125425000Y-43674999D01*
X125425000Y-45725001D01*
X125423796Y-45749505D01*
X125420196Y-45773773D01*
X125414235Y-45797572D01*
X125405970Y-45820671D01*
X125395480Y-45842850D01*
X125382868Y-45863893D01*
X125368253Y-45883599D01*
X125351777Y-45901777D01*
X125333599Y-45918253D01*
X125313893Y-45932868D01*
X125292850Y-45945480D01*
X125270671Y-45955970D01*
X125247572Y-45964235D01*
X125223773Y-45970196D01*
X125199505Y-45973796D01*
X125175001Y-45975000D01*
X123424999Y-45975000D01*
X123400495Y-45973796D01*
X123376227Y-45970196D01*
X123352428Y-45964235D01*
X123329329Y-45955970D01*
X123307150Y-45945480D01*
X123286107Y-45932868D01*
X123266401Y-45918253D01*
X123248223Y-45901777D01*
X123231747Y-45883599D01*
X123217132Y-45863893D01*
X123204520Y-45842850D01*
X123194030Y-45820671D01*
X123185765Y-45797572D01*
X123179804Y-45773773D01*
X123176204Y-45749505D01*
X123175000Y-45725001D01*
X123175000Y-43674999D01*
X123176204Y-43650495D01*
X123179804Y-43626227D01*
X123185765Y-43602428D01*
X123194030Y-43579329D01*
X123204520Y-43557150D01*
X123217132Y-43536107D01*
X123231747Y-43516401D01*
X123248223Y-43498223D01*
X123266401Y-43481747D01*
X123286107Y-43467132D01*
X123307150Y-43454520D01*
X123329329Y-43444030D01*
X123352428Y-43435765D01*
X123376227Y-43429804D01*
X123400495Y-43426204D01*
X123424999Y-43425000D01*
X125175001Y-43425000D01*
X125199505Y-43426204D01*
X125199505Y-43426204D01*
G37*
D11*
X124300000Y-44700000D03*
D10*
G36*
X131599505Y-43426204D02*
G01*
X131623773Y-43429804D01*
X131647572Y-43435765D01*
X131670671Y-43444030D01*
X131692850Y-43454520D01*
X131713893Y-43467132D01*
X131733599Y-43481747D01*
X131751777Y-43498223D01*
X131768253Y-43516401D01*
X131782868Y-43536107D01*
X131795480Y-43557150D01*
X131805970Y-43579329D01*
X131814235Y-43602428D01*
X131820196Y-43626227D01*
X131823796Y-43650495D01*
X131825000Y-43674999D01*
X131825000Y-45725001D01*
X131823796Y-45749505D01*
X131820196Y-45773773D01*
X131814235Y-45797572D01*
X131805970Y-45820671D01*
X131795480Y-45842850D01*
X131782868Y-45863893D01*
X131768253Y-45883599D01*
X131751777Y-45901777D01*
X131733599Y-45918253D01*
X131713893Y-45932868D01*
X131692850Y-45945480D01*
X131670671Y-45955970D01*
X131647572Y-45964235D01*
X131623773Y-45970196D01*
X131599505Y-45973796D01*
X131575001Y-45975000D01*
X129824999Y-45975000D01*
X129800495Y-45973796D01*
X129776227Y-45970196D01*
X129752428Y-45964235D01*
X129729329Y-45955970D01*
X129707150Y-45945480D01*
X129686107Y-45932868D01*
X129666401Y-45918253D01*
X129648223Y-45901777D01*
X129631747Y-45883599D01*
X129617132Y-45863893D01*
X129604520Y-45842850D01*
X129594030Y-45820671D01*
X129585765Y-45797572D01*
X129579804Y-45773773D01*
X129576204Y-45749505D01*
X129575000Y-45725001D01*
X129575000Y-43674999D01*
X129576204Y-43650495D01*
X129579804Y-43626227D01*
X129585765Y-43602428D01*
X129594030Y-43579329D01*
X129604520Y-43557150D01*
X129617132Y-43536107D01*
X129631747Y-43516401D01*
X129648223Y-43498223D01*
X129666401Y-43481747D01*
X129686107Y-43467132D01*
X129707150Y-43454520D01*
X129729329Y-43444030D01*
X129752428Y-43435765D01*
X129776227Y-43429804D01*
X129800495Y-43426204D01*
X129824999Y-43425000D01*
X131575001Y-43425000D01*
X131599505Y-43426204D01*
X131599505Y-43426204D01*
G37*
D11*
X130700000Y-44700000D03*
D10*
G36*
X118399505Y-43426204D02*
G01*
X118423773Y-43429804D01*
X118447572Y-43435765D01*
X118470671Y-43444030D01*
X118492850Y-43454520D01*
X118513893Y-43467132D01*
X118533599Y-43481747D01*
X118551777Y-43498223D01*
X118568253Y-43516401D01*
X118582868Y-43536107D01*
X118595480Y-43557150D01*
X118605970Y-43579329D01*
X118614235Y-43602428D01*
X118620196Y-43626227D01*
X118623796Y-43650495D01*
X118625000Y-43674999D01*
X118625000Y-45725001D01*
X118623796Y-45749505D01*
X118620196Y-45773773D01*
X118614235Y-45797572D01*
X118605970Y-45820671D01*
X118595480Y-45842850D01*
X118582868Y-45863893D01*
X118568253Y-45883599D01*
X118551777Y-45901777D01*
X118533599Y-45918253D01*
X118513893Y-45932868D01*
X118492850Y-45945480D01*
X118470671Y-45955970D01*
X118447572Y-45964235D01*
X118423773Y-45970196D01*
X118399505Y-45973796D01*
X118375001Y-45975000D01*
X116624999Y-45975000D01*
X116600495Y-45973796D01*
X116576227Y-45970196D01*
X116552428Y-45964235D01*
X116529329Y-45955970D01*
X116507150Y-45945480D01*
X116486107Y-45932868D01*
X116466401Y-45918253D01*
X116448223Y-45901777D01*
X116431747Y-45883599D01*
X116417132Y-45863893D01*
X116404520Y-45842850D01*
X116394030Y-45820671D01*
X116385765Y-45797572D01*
X116379804Y-45773773D01*
X116376204Y-45749505D01*
X116375000Y-45725001D01*
X116375000Y-43674999D01*
X116376204Y-43650495D01*
X116379804Y-43626227D01*
X116385765Y-43602428D01*
X116394030Y-43579329D01*
X116404520Y-43557150D01*
X116417132Y-43536107D01*
X116431747Y-43516401D01*
X116448223Y-43498223D01*
X116466401Y-43481747D01*
X116486107Y-43467132D01*
X116507150Y-43454520D01*
X116529329Y-43444030D01*
X116552428Y-43435765D01*
X116576227Y-43429804D01*
X116600495Y-43426204D01*
X116624999Y-43425000D01*
X118375001Y-43425000D01*
X118399505Y-43426204D01*
X118399505Y-43426204D01*
G37*
D11*
X117500000Y-44700000D03*
D10*
G36*
X111999505Y-43426204D02*
G01*
X112023773Y-43429804D01*
X112047572Y-43435765D01*
X112070671Y-43444030D01*
X112092850Y-43454520D01*
X112113893Y-43467132D01*
X112133599Y-43481747D01*
X112151777Y-43498223D01*
X112168253Y-43516401D01*
X112182868Y-43536107D01*
X112195480Y-43557150D01*
X112205970Y-43579329D01*
X112214235Y-43602428D01*
X112220196Y-43626227D01*
X112223796Y-43650495D01*
X112225000Y-43674999D01*
X112225000Y-45725001D01*
X112223796Y-45749505D01*
X112220196Y-45773773D01*
X112214235Y-45797572D01*
X112205970Y-45820671D01*
X112195480Y-45842850D01*
X112182868Y-45863893D01*
X112168253Y-45883599D01*
X112151777Y-45901777D01*
X112133599Y-45918253D01*
X112113893Y-45932868D01*
X112092850Y-45945480D01*
X112070671Y-45955970D01*
X112047572Y-45964235D01*
X112023773Y-45970196D01*
X111999505Y-45973796D01*
X111975001Y-45975000D01*
X110224999Y-45975000D01*
X110200495Y-45973796D01*
X110176227Y-45970196D01*
X110152428Y-45964235D01*
X110129329Y-45955970D01*
X110107150Y-45945480D01*
X110086107Y-45932868D01*
X110066401Y-45918253D01*
X110048223Y-45901777D01*
X110031747Y-45883599D01*
X110017132Y-45863893D01*
X110004520Y-45842850D01*
X109994030Y-45820671D01*
X109985765Y-45797572D01*
X109979804Y-45773773D01*
X109976204Y-45749505D01*
X109975000Y-45725001D01*
X109975000Y-43674999D01*
X109976204Y-43650495D01*
X109979804Y-43626227D01*
X109985765Y-43602428D01*
X109994030Y-43579329D01*
X110004520Y-43557150D01*
X110017132Y-43536107D01*
X110031747Y-43516401D01*
X110048223Y-43498223D01*
X110066401Y-43481747D01*
X110086107Y-43467132D01*
X110107150Y-43454520D01*
X110129329Y-43444030D01*
X110152428Y-43435765D01*
X110176227Y-43429804D01*
X110200495Y-43426204D01*
X110224999Y-43425000D01*
X111975001Y-43425000D01*
X111999505Y-43426204D01*
X111999505Y-43426204D01*
G37*
D11*
X111100000Y-44700000D03*
D10*
G36*
X111360779Y-33726144D02*
G01*
X111383834Y-33729563D01*
X111406443Y-33735227D01*
X111428387Y-33743079D01*
X111449457Y-33753044D01*
X111469448Y-33765026D01*
X111488168Y-33778910D01*
X111505438Y-33794562D01*
X111521090Y-33811832D01*
X111534974Y-33830552D01*
X111546956Y-33850543D01*
X111556921Y-33871613D01*
X111564773Y-33893557D01*
X111570437Y-33916166D01*
X111573856Y-33939221D01*
X111575000Y-33962500D01*
X111575000Y-34437500D01*
X111573856Y-34460779D01*
X111570437Y-34483834D01*
X111564773Y-34506443D01*
X111556921Y-34528387D01*
X111546956Y-34549457D01*
X111534974Y-34569448D01*
X111521090Y-34588168D01*
X111505438Y-34605438D01*
X111488168Y-34621090D01*
X111469448Y-34634974D01*
X111449457Y-34646956D01*
X111428387Y-34656921D01*
X111406443Y-34664773D01*
X111383834Y-34670437D01*
X111360779Y-34673856D01*
X111337500Y-34675000D01*
X110762500Y-34675000D01*
X110739221Y-34673856D01*
X110716166Y-34670437D01*
X110693557Y-34664773D01*
X110671613Y-34656921D01*
X110650543Y-34646956D01*
X110630552Y-34634974D01*
X110611832Y-34621090D01*
X110594562Y-34605438D01*
X110578910Y-34588168D01*
X110565026Y-34569448D01*
X110553044Y-34549457D01*
X110543079Y-34528387D01*
X110535227Y-34506443D01*
X110529563Y-34483834D01*
X110526144Y-34460779D01*
X110525000Y-34437500D01*
X110525000Y-33962500D01*
X110526144Y-33939221D01*
X110529563Y-33916166D01*
X110535227Y-33893557D01*
X110543079Y-33871613D01*
X110553044Y-33850543D01*
X110565026Y-33830552D01*
X110578910Y-33811832D01*
X110594562Y-33794562D01*
X110611832Y-33778910D01*
X110630552Y-33765026D01*
X110650543Y-33753044D01*
X110671613Y-33743079D01*
X110693557Y-33735227D01*
X110716166Y-33729563D01*
X110739221Y-33726144D01*
X110762500Y-33725000D01*
X111337500Y-33725000D01*
X111360779Y-33726144D01*
X111360779Y-33726144D01*
G37*
D12*
X111050000Y-34200000D03*
D10*
G36*
X113110779Y-33726144D02*
G01*
X113133834Y-33729563D01*
X113156443Y-33735227D01*
X113178387Y-33743079D01*
X113199457Y-33753044D01*
X113219448Y-33765026D01*
X113238168Y-33778910D01*
X113255438Y-33794562D01*
X113271090Y-33811832D01*
X113284974Y-33830552D01*
X113296956Y-33850543D01*
X113306921Y-33871613D01*
X113314773Y-33893557D01*
X113320437Y-33916166D01*
X113323856Y-33939221D01*
X113325000Y-33962500D01*
X113325000Y-34437500D01*
X113323856Y-34460779D01*
X113320437Y-34483834D01*
X113314773Y-34506443D01*
X113306921Y-34528387D01*
X113296956Y-34549457D01*
X113284974Y-34569448D01*
X113271090Y-34588168D01*
X113255438Y-34605438D01*
X113238168Y-34621090D01*
X113219448Y-34634974D01*
X113199457Y-34646956D01*
X113178387Y-34656921D01*
X113156443Y-34664773D01*
X113133834Y-34670437D01*
X113110779Y-34673856D01*
X113087500Y-34675000D01*
X112512500Y-34675000D01*
X112489221Y-34673856D01*
X112466166Y-34670437D01*
X112443557Y-34664773D01*
X112421613Y-34656921D01*
X112400543Y-34646956D01*
X112380552Y-34634974D01*
X112361832Y-34621090D01*
X112344562Y-34605438D01*
X112328910Y-34588168D01*
X112315026Y-34569448D01*
X112303044Y-34549457D01*
X112293079Y-34528387D01*
X112285227Y-34506443D01*
X112279563Y-34483834D01*
X112276144Y-34460779D01*
X112275000Y-34437500D01*
X112275000Y-33962500D01*
X112276144Y-33939221D01*
X112279563Y-33916166D01*
X112285227Y-33893557D01*
X112293079Y-33871613D01*
X112303044Y-33850543D01*
X112315026Y-33830552D01*
X112328910Y-33811832D01*
X112344562Y-33794562D01*
X112361832Y-33778910D01*
X112380552Y-33765026D01*
X112400543Y-33753044D01*
X112421613Y-33743079D01*
X112443557Y-33735227D01*
X112466166Y-33729563D01*
X112489221Y-33726144D01*
X112512500Y-33725000D01*
X113087500Y-33725000D01*
X113110779Y-33726144D01*
X113110779Y-33726144D01*
G37*
D12*
X112800000Y-34200000D03*
D10*
G36*
X150560779Y-27026144D02*
G01*
X150583834Y-27029563D01*
X150606443Y-27035227D01*
X150628387Y-27043079D01*
X150649457Y-27053044D01*
X150669448Y-27065026D01*
X150688168Y-27078910D01*
X150705438Y-27094562D01*
X150721090Y-27111832D01*
X150734974Y-27130552D01*
X150746956Y-27150543D01*
X150756921Y-27171613D01*
X150764773Y-27193557D01*
X150770437Y-27216166D01*
X150773856Y-27239221D01*
X150775000Y-27262500D01*
X150775000Y-27737500D01*
X150773856Y-27760779D01*
X150770437Y-27783834D01*
X150764773Y-27806443D01*
X150756921Y-27828387D01*
X150746956Y-27849457D01*
X150734974Y-27869448D01*
X150721090Y-27888168D01*
X150705438Y-27905438D01*
X150688168Y-27921090D01*
X150669448Y-27934974D01*
X150649457Y-27946956D01*
X150628387Y-27956921D01*
X150606443Y-27964773D01*
X150583834Y-27970437D01*
X150560779Y-27973856D01*
X150537500Y-27975000D01*
X149962500Y-27975000D01*
X149939221Y-27973856D01*
X149916166Y-27970437D01*
X149893557Y-27964773D01*
X149871613Y-27956921D01*
X149850543Y-27946956D01*
X149830552Y-27934974D01*
X149811832Y-27921090D01*
X149794562Y-27905438D01*
X149778910Y-27888168D01*
X149765026Y-27869448D01*
X149753044Y-27849457D01*
X149743079Y-27828387D01*
X149735227Y-27806443D01*
X149729563Y-27783834D01*
X149726144Y-27760779D01*
X149725000Y-27737500D01*
X149725000Y-27262500D01*
X149726144Y-27239221D01*
X149729563Y-27216166D01*
X149735227Y-27193557D01*
X149743079Y-27171613D01*
X149753044Y-27150543D01*
X149765026Y-27130552D01*
X149778910Y-27111832D01*
X149794562Y-27094562D01*
X149811832Y-27078910D01*
X149830552Y-27065026D01*
X149850543Y-27053044D01*
X149871613Y-27043079D01*
X149893557Y-27035227D01*
X149916166Y-27029563D01*
X149939221Y-27026144D01*
X149962500Y-27025000D01*
X150537500Y-27025000D01*
X150560779Y-27026144D01*
X150560779Y-27026144D01*
G37*
D12*
X150250000Y-27500000D03*
D10*
G36*
X152310779Y-27026144D02*
G01*
X152333834Y-27029563D01*
X152356443Y-27035227D01*
X152378387Y-27043079D01*
X152399457Y-27053044D01*
X152419448Y-27065026D01*
X152438168Y-27078910D01*
X152455438Y-27094562D01*
X152471090Y-27111832D01*
X152484974Y-27130552D01*
X152496956Y-27150543D01*
X152506921Y-27171613D01*
X152514773Y-27193557D01*
X152520437Y-27216166D01*
X152523856Y-27239221D01*
X152525000Y-27262500D01*
X152525000Y-27737500D01*
X152523856Y-27760779D01*
X152520437Y-27783834D01*
X152514773Y-27806443D01*
X152506921Y-27828387D01*
X152496956Y-27849457D01*
X152484974Y-27869448D01*
X152471090Y-27888168D01*
X152455438Y-27905438D01*
X152438168Y-27921090D01*
X152419448Y-27934974D01*
X152399457Y-27946956D01*
X152378387Y-27956921D01*
X152356443Y-27964773D01*
X152333834Y-27970437D01*
X152310779Y-27973856D01*
X152287500Y-27975000D01*
X151712500Y-27975000D01*
X151689221Y-27973856D01*
X151666166Y-27970437D01*
X151643557Y-27964773D01*
X151621613Y-27956921D01*
X151600543Y-27946956D01*
X151580552Y-27934974D01*
X151561832Y-27921090D01*
X151544562Y-27905438D01*
X151528910Y-27888168D01*
X151515026Y-27869448D01*
X151503044Y-27849457D01*
X151493079Y-27828387D01*
X151485227Y-27806443D01*
X151479563Y-27783834D01*
X151476144Y-27760779D01*
X151475000Y-27737500D01*
X151475000Y-27262500D01*
X151476144Y-27239221D01*
X151479563Y-27216166D01*
X151485227Y-27193557D01*
X151493079Y-27171613D01*
X151503044Y-27150543D01*
X151515026Y-27130552D01*
X151528910Y-27111832D01*
X151544562Y-27094562D01*
X151561832Y-27078910D01*
X151580552Y-27065026D01*
X151600543Y-27053044D01*
X151621613Y-27043079D01*
X151643557Y-27035227D01*
X151666166Y-27029563D01*
X151689221Y-27026144D01*
X151712500Y-27025000D01*
X152287500Y-27025000D01*
X152310779Y-27026144D01*
X152310779Y-27026144D01*
G37*
D12*
X152000000Y-27500000D03*
D10*
G36*
X142935779Y-27026144D02*
G01*
X142958834Y-27029563D01*
X142981443Y-27035227D01*
X143003387Y-27043079D01*
X143024457Y-27053044D01*
X143044448Y-27065026D01*
X143063168Y-27078910D01*
X143080438Y-27094562D01*
X143096090Y-27111832D01*
X143109974Y-27130552D01*
X143121956Y-27150543D01*
X143131921Y-27171613D01*
X143139773Y-27193557D01*
X143145437Y-27216166D01*
X143148856Y-27239221D01*
X143150000Y-27262500D01*
X143150000Y-27737500D01*
X143148856Y-27760779D01*
X143145437Y-27783834D01*
X143139773Y-27806443D01*
X143131921Y-27828387D01*
X143121956Y-27849457D01*
X143109974Y-27869448D01*
X143096090Y-27888168D01*
X143080438Y-27905438D01*
X143063168Y-27921090D01*
X143044448Y-27934974D01*
X143024457Y-27946956D01*
X143003387Y-27956921D01*
X142981443Y-27964773D01*
X142958834Y-27970437D01*
X142935779Y-27973856D01*
X142912500Y-27975000D01*
X142337500Y-27975000D01*
X142314221Y-27973856D01*
X142291166Y-27970437D01*
X142268557Y-27964773D01*
X142246613Y-27956921D01*
X142225543Y-27946956D01*
X142205552Y-27934974D01*
X142186832Y-27921090D01*
X142169562Y-27905438D01*
X142153910Y-27888168D01*
X142140026Y-27869448D01*
X142128044Y-27849457D01*
X142118079Y-27828387D01*
X142110227Y-27806443D01*
X142104563Y-27783834D01*
X142101144Y-27760779D01*
X142100000Y-27737500D01*
X142100000Y-27262500D01*
X142101144Y-27239221D01*
X142104563Y-27216166D01*
X142110227Y-27193557D01*
X142118079Y-27171613D01*
X142128044Y-27150543D01*
X142140026Y-27130552D01*
X142153910Y-27111832D01*
X142169562Y-27094562D01*
X142186832Y-27078910D01*
X142205552Y-27065026D01*
X142225543Y-27053044D01*
X142246613Y-27043079D01*
X142268557Y-27035227D01*
X142291166Y-27029563D01*
X142314221Y-27026144D01*
X142337500Y-27025000D01*
X142912500Y-27025000D01*
X142935779Y-27026144D01*
X142935779Y-27026144D01*
G37*
D12*
X142625000Y-27500000D03*
D10*
G36*
X141185779Y-27026144D02*
G01*
X141208834Y-27029563D01*
X141231443Y-27035227D01*
X141253387Y-27043079D01*
X141274457Y-27053044D01*
X141294448Y-27065026D01*
X141313168Y-27078910D01*
X141330438Y-27094562D01*
X141346090Y-27111832D01*
X141359974Y-27130552D01*
X141371956Y-27150543D01*
X141381921Y-27171613D01*
X141389773Y-27193557D01*
X141395437Y-27216166D01*
X141398856Y-27239221D01*
X141400000Y-27262500D01*
X141400000Y-27737500D01*
X141398856Y-27760779D01*
X141395437Y-27783834D01*
X141389773Y-27806443D01*
X141381921Y-27828387D01*
X141371956Y-27849457D01*
X141359974Y-27869448D01*
X141346090Y-27888168D01*
X141330438Y-27905438D01*
X141313168Y-27921090D01*
X141294448Y-27934974D01*
X141274457Y-27946956D01*
X141253387Y-27956921D01*
X141231443Y-27964773D01*
X141208834Y-27970437D01*
X141185779Y-27973856D01*
X141162500Y-27975000D01*
X140587500Y-27975000D01*
X140564221Y-27973856D01*
X140541166Y-27970437D01*
X140518557Y-27964773D01*
X140496613Y-27956921D01*
X140475543Y-27946956D01*
X140455552Y-27934974D01*
X140436832Y-27921090D01*
X140419562Y-27905438D01*
X140403910Y-27888168D01*
X140390026Y-27869448D01*
X140378044Y-27849457D01*
X140368079Y-27828387D01*
X140360227Y-27806443D01*
X140354563Y-27783834D01*
X140351144Y-27760779D01*
X140350000Y-27737500D01*
X140350000Y-27262500D01*
X140351144Y-27239221D01*
X140354563Y-27216166D01*
X140360227Y-27193557D01*
X140368079Y-27171613D01*
X140378044Y-27150543D01*
X140390026Y-27130552D01*
X140403910Y-27111832D01*
X140419562Y-27094562D01*
X140436832Y-27078910D01*
X140455552Y-27065026D01*
X140475543Y-27053044D01*
X140496613Y-27043079D01*
X140518557Y-27035227D01*
X140541166Y-27029563D01*
X140564221Y-27026144D01*
X140587500Y-27025000D01*
X141162500Y-27025000D01*
X141185779Y-27026144D01*
X141185779Y-27026144D01*
G37*
D12*
X140875000Y-27500000D03*
D10*
G36*
X133560779Y-27026144D02*
G01*
X133583834Y-27029563D01*
X133606443Y-27035227D01*
X133628387Y-27043079D01*
X133649457Y-27053044D01*
X133669448Y-27065026D01*
X133688168Y-27078910D01*
X133705438Y-27094562D01*
X133721090Y-27111832D01*
X133734974Y-27130552D01*
X133746956Y-27150543D01*
X133756921Y-27171613D01*
X133764773Y-27193557D01*
X133770437Y-27216166D01*
X133773856Y-27239221D01*
X133775000Y-27262500D01*
X133775000Y-27737500D01*
X133773856Y-27760779D01*
X133770437Y-27783834D01*
X133764773Y-27806443D01*
X133756921Y-27828387D01*
X133746956Y-27849457D01*
X133734974Y-27869448D01*
X133721090Y-27888168D01*
X133705438Y-27905438D01*
X133688168Y-27921090D01*
X133669448Y-27934974D01*
X133649457Y-27946956D01*
X133628387Y-27956921D01*
X133606443Y-27964773D01*
X133583834Y-27970437D01*
X133560779Y-27973856D01*
X133537500Y-27975000D01*
X132962500Y-27975000D01*
X132939221Y-27973856D01*
X132916166Y-27970437D01*
X132893557Y-27964773D01*
X132871613Y-27956921D01*
X132850543Y-27946956D01*
X132830552Y-27934974D01*
X132811832Y-27921090D01*
X132794562Y-27905438D01*
X132778910Y-27888168D01*
X132765026Y-27869448D01*
X132753044Y-27849457D01*
X132743079Y-27828387D01*
X132735227Y-27806443D01*
X132729563Y-27783834D01*
X132726144Y-27760779D01*
X132725000Y-27737500D01*
X132725000Y-27262500D01*
X132726144Y-27239221D01*
X132729563Y-27216166D01*
X132735227Y-27193557D01*
X132743079Y-27171613D01*
X132753044Y-27150543D01*
X132765026Y-27130552D01*
X132778910Y-27111832D01*
X132794562Y-27094562D01*
X132811832Y-27078910D01*
X132830552Y-27065026D01*
X132850543Y-27053044D01*
X132871613Y-27043079D01*
X132893557Y-27035227D01*
X132916166Y-27029563D01*
X132939221Y-27026144D01*
X132962500Y-27025000D01*
X133537500Y-27025000D01*
X133560779Y-27026144D01*
X133560779Y-27026144D01*
G37*
D12*
X133250000Y-27500000D03*
D10*
G36*
X135310779Y-27026144D02*
G01*
X135333834Y-27029563D01*
X135356443Y-27035227D01*
X135378387Y-27043079D01*
X135399457Y-27053044D01*
X135419448Y-27065026D01*
X135438168Y-27078910D01*
X135455438Y-27094562D01*
X135471090Y-27111832D01*
X135484974Y-27130552D01*
X135496956Y-27150543D01*
X135506921Y-27171613D01*
X135514773Y-27193557D01*
X135520437Y-27216166D01*
X135523856Y-27239221D01*
X135525000Y-27262500D01*
X135525000Y-27737500D01*
X135523856Y-27760779D01*
X135520437Y-27783834D01*
X135514773Y-27806443D01*
X135506921Y-27828387D01*
X135496956Y-27849457D01*
X135484974Y-27869448D01*
X135471090Y-27888168D01*
X135455438Y-27905438D01*
X135438168Y-27921090D01*
X135419448Y-27934974D01*
X135399457Y-27946956D01*
X135378387Y-27956921D01*
X135356443Y-27964773D01*
X135333834Y-27970437D01*
X135310779Y-27973856D01*
X135287500Y-27975000D01*
X134712500Y-27975000D01*
X134689221Y-27973856D01*
X134666166Y-27970437D01*
X134643557Y-27964773D01*
X134621613Y-27956921D01*
X134600543Y-27946956D01*
X134580552Y-27934974D01*
X134561832Y-27921090D01*
X134544562Y-27905438D01*
X134528910Y-27888168D01*
X134515026Y-27869448D01*
X134503044Y-27849457D01*
X134493079Y-27828387D01*
X134485227Y-27806443D01*
X134479563Y-27783834D01*
X134476144Y-27760779D01*
X134475000Y-27737500D01*
X134475000Y-27262500D01*
X134476144Y-27239221D01*
X134479563Y-27216166D01*
X134485227Y-27193557D01*
X134493079Y-27171613D01*
X134503044Y-27150543D01*
X134515026Y-27130552D01*
X134528910Y-27111832D01*
X134544562Y-27094562D01*
X134561832Y-27078910D01*
X134580552Y-27065026D01*
X134600543Y-27053044D01*
X134621613Y-27043079D01*
X134643557Y-27035227D01*
X134666166Y-27029563D01*
X134689221Y-27026144D01*
X134712500Y-27025000D01*
X135287500Y-27025000D01*
X135310779Y-27026144D01*
X135310779Y-27026144D01*
G37*
D12*
X135000000Y-27500000D03*
D10*
G36*
X127710779Y-26926144D02*
G01*
X127733834Y-26929563D01*
X127756443Y-26935227D01*
X127778387Y-26943079D01*
X127799457Y-26953044D01*
X127819448Y-26965026D01*
X127838168Y-26978910D01*
X127855438Y-26994562D01*
X127871090Y-27011832D01*
X127884974Y-27030552D01*
X127896956Y-27050543D01*
X127906921Y-27071613D01*
X127914773Y-27093557D01*
X127920437Y-27116166D01*
X127923856Y-27139221D01*
X127925000Y-27162500D01*
X127925000Y-27637500D01*
X127923856Y-27660779D01*
X127920437Y-27683834D01*
X127914773Y-27706443D01*
X127906921Y-27728387D01*
X127896956Y-27749457D01*
X127884974Y-27769448D01*
X127871090Y-27788168D01*
X127855438Y-27805438D01*
X127838168Y-27821090D01*
X127819448Y-27834974D01*
X127799457Y-27846956D01*
X127778387Y-27856921D01*
X127756443Y-27864773D01*
X127733834Y-27870437D01*
X127710779Y-27873856D01*
X127687500Y-27875000D01*
X127112500Y-27875000D01*
X127089221Y-27873856D01*
X127066166Y-27870437D01*
X127043557Y-27864773D01*
X127021613Y-27856921D01*
X127000543Y-27846956D01*
X126980552Y-27834974D01*
X126961832Y-27821090D01*
X126944562Y-27805438D01*
X126928910Y-27788168D01*
X126915026Y-27769448D01*
X126903044Y-27749457D01*
X126893079Y-27728387D01*
X126885227Y-27706443D01*
X126879563Y-27683834D01*
X126876144Y-27660779D01*
X126875000Y-27637500D01*
X126875000Y-27162500D01*
X126876144Y-27139221D01*
X126879563Y-27116166D01*
X126885227Y-27093557D01*
X126893079Y-27071613D01*
X126903044Y-27050543D01*
X126915026Y-27030552D01*
X126928910Y-27011832D01*
X126944562Y-26994562D01*
X126961832Y-26978910D01*
X126980552Y-26965026D01*
X127000543Y-26953044D01*
X127021613Y-26943079D01*
X127043557Y-26935227D01*
X127066166Y-26929563D01*
X127089221Y-26926144D01*
X127112500Y-26925000D01*
X127687500Y-26925000D01*
X127710779Y-26926144D01*
X127710779Y-26926144D01*
G37*
D12*
X127400000Y-27400000D03*
D10*
G36*
X125960779Y-26926144D02*
G01*
X125983834Y-26929563D01*
X126006443Y-26935227D01*
X126028387Y-26943079D01*
X126049457Y-26953044D01*
X126069448Y-26965026D01*
X126088168Y-26978910D01*
X126105438Y-26994562D01*
X126121090Y-27011832D01*
X126134974Y-27030552D01*
X126146956Y-27050543D01*
X126156921Y-27071613D01*
X126164773Y-27093557D01*
X126170437Y-27116166D01*
X126173856Y-27139221D01*
X126175000Y-27162500D01*
X126175000Y-27637500D01*
X126173856Y-27660779D01*
X126170437Y-27683834D01*
X126164773Y-27706443D01*
X126156921Y-27728387D01*
X126146956Y-27749457D01*
X126134974Y-27769448D01*
X126121090Y-27788168D01*
X126105438Y-27805438D01*
X126088168Y-27821090D01*
X126069448Y-27834974D01*
X126049457Y-27846956D01*
X126028387Y-27856921D01*
X126006443Y-27864773D01*
X125983834Y-27870437D01*
X125960779Y-27873856D01*
X125937500Y-27875000D01*
X125362500Y-27875000D01*
X125339221Y-27873856D01*
X125316166Y-27870437D01*
X125293557Y-27864773D01*
X125271613Y-27856921D01*
X125250543Y-27846956D01*
X125230552Y-27834974D01*
X125211832Y-27821090D01*
X125194562Y-27805438D01*
X125178910Y-27788168D01*
X125165026Y-27769448D01*
X125153044Y-27749457D01*
X125143079Y-27728387D01*
X125135227Y-27706443D01*
X125129563Y-27683834D01*
X125126144Y-27660779D01*
X125125000Y-27637500D01*
X125125000Y-27162500D01*
X125126144Y-27139221D01*
X125129563Y-27116166D01*
X125135227Y-27093557D01*
X125143079Y-27071613D01*
X125153044Y-27050543D01*
X125165026Y-27030552D01*
X125178910Y-27011832D01*
X125194562Y-26994562D01*
X125211832Y-26978910D01*
X125230552Y-26965026D01*
X125250543Y-26953044D01*
X125271613Y-26943079D01*
X125293557Y-26935227D01*
X125316166Y-26929563D01*
X125339221Y-26926144D01*
X125362500Y-26925000D01*
X125937500Y-26925000D01*
X125960779Y-26926144D01*
X125960779Y-26926144D01*
G37*
D12*
X125650000Y-27400000D03*
D10*
G36*
X142960779Y-28526144D02*
G01*
X142983834Y-28529563D01*
X143006443Y-28535227D01*
X143028387Y-28543079D01*
X143049457Y-28553044D01*
X143069448Y-28565026D01*
X143088168Y-28578910D01*
X143105438Y-28594562D01*
X143121090Y-28611832D01*
X143134974Y-28630552D01*
X143146956Y-28650543D01*
X143156921Y-28671613D01*
X143164773Y-28693557D01*
X143170437Y-28716166D01*
X143173856Y-28739221D01*
X143175000Y-28762500D01*
X143175000Y-29237500D01*
X143173856Y-29260779D01*
X143170437Y-29283834D01*
X143164773Y-29306443D01*
X143156921Y-29328387D01*
X143146956Y-29349457D01*
X143134974Y-29369448D01*
X143121090Y-29388168D01*
X143105438Y-29405438D01*
X143088168Y-29421090D01*
X143069448Y-29434974D01*
X143049457Y-29446956D01*
X143028387Y-29456921D01*
X143006443Y-29464773D01*
X142983834Y-29470437D01*
X142960779Y-29473856D01*
X142937500Y-29475000D01*
X142362500Y-29475000D01*
X142339221Y-29473856D01*
X142316166Y-29470437D01*
X142293557Y-29464773D01*
X142271613Y-29456921D01*
X142250543Y-29446956D01*
X142230552Y-29434974D01*
X142211832Y-29421090D01*
X142194562Y-29405438D01*
X142178910Y-29388168D01*
X142165026Y-29369448D01*
X142153044Y-29349457D01*
X142143079Y-29328387D01*
X142135227Y-29306443D01*
X142129563Y-29283834D01*
X142126144Y-29260779D01*
X142125000Y-29237500D01*
X142125000Y-28762500D01*
X142126144Y-28739221D01*
X142129563Y-28716166D01*
X142135227Y-28693557D01*
X142143079Y-28671613D01*
X142153044Y-28650543D01*
X142165026Y-28630552D01*
X142178910Y-28611832D01*
X142194562Y-28594562D01*
X142211832Y-28578910D01*
X142230552Y-28565026D01*
X142250543Y-28553044D01*
X142271613Y-28543079D01*
X142293557Y-28535227D01*
X142316166Y-28529563D01*
X142339221Y-28526144D01*
X142362500Y-28525000D01*
X142937500Y-28525000D01*
X142960779Y-28526144D01*
X142960779Y-28526144D01*
G37*
D12*
X142650000Y-29000000D03*
D10*
G36*
X141210779Y-28526144D02*
G01*
X141233834Y-28529563D01*
X141256443Y-28535227D01*
X141278387Y-28543079D01*
X141299457Y-28553044D01*
X141319448Y-28565026D01*
X141338168Y-28578910D01*
X141355438Y-28594562D01*
X141371090Y-28611832D01*
X141384974Y-28630552D01*
X141396956Y-28650543D01*
X141406921Y-28671613D01*
X141414773Y-28693557D01*
X141420437Y-28716166D01*
X141423856Y-28739221D01*
X141425000Y-28762500D01*
X141425000Y-29237500D01*
X141423856Y-29260779D01*
X141420437Y-29283834D01*
X141414773Y-29306443D01*
X141406921Y-29328387D01*
X141396956Y-29349457D01*
X141384974Y-29369448D01*
X141371090Y-29388168D01*
X141355438Y-29405438D01*
X141338168Y-29421090D01*
X141319448Y-29434974D01*
X141299457Y-29446956D01*
X141278387Y-29456921D01*
X141256443Y-29464773D01*
X141233834Y-29470437D01*
X141210779Y-29473856D01*
X141187500Y-29475000D01*
X140612500Y-29475000D01*
X140589221Y-29473856D01*
X140566166Y-29470437D01*
X140543557Y-29464773D01*
X140521613Y-29456921D01*
X140500543Y-29446956D01*
X140480552Y-29434974D01*
X140461832Y-29421090D01*
X140444562Y-29405438D01*
X140428910Y-29388168D01*
X140415026Y-29369448D01*
X140403044Y-29349457D01*
X140393079Y-29328387D01*
X140385227Y-29306443D01*
X140379563Y-29283834D01*
X140376144Y-29260779D01*
X140375000Y-29237500D01*
X140375000Y-28762500D01*
X140376144Y-28739221D01*
X140379563Y-28716166D01*
X140385227Y-28693557D01*
X140393079Y-28671613D01*
X140403044Y-28650543D01*
X140415026Y-28630552D01*
X140428910Y-28611832D01*
X140444562Y-28594562D01*
X140461832Y-28578910D01*
X140480552Y-28565026D01*
X140500543Y-28553044D01*
X140521613Y-28543079D01*
X140543557Y-28535227D01*
X140566166Y-28529563D01*
X140589221Y-28526144D01*
X140612500Y-28525000D01*
X141187500Y-28525000D01*
X141210779Y-28526144D01*
X141210779Y-28526144D01*
G37*
D12*
X140900000Y-29000000D03*
D10*
G36*
X133560779Y-28526144D02*
G01*
X133583834Y-28529563D01*
X133606443Y-28535227D01*
X133628387Y-28543079D01*
X133649457Y-28553044D01*
X133669448Y-28565026D01*
X133688168Y-28578910D01*
X133705438Y-28594562D01*
X133721090Y-28611832D01*
X133734974Y-28630552D01*
X133746956Y-28650543D01*
X133756921Y-28671613D01*
X133764773Y-28693557D01*
X133770437Y-28716166D01*
X133773856Y-28739221D01*
X133775000Y-28762500D01*
X133775000Y-29237500D01*
X133773856Y-29260779D01*
X133770437Y-29283834D01*
X133764773Y-29306443D01*
X133756921Y-29328387D01*
X133746956Y-29349457D01*
X133734974Y-29369448D01*
X133721090Y-29388168D01*
X133705438Y-29405438D01*
X133688168Y-29421090D01*
X133669448Y-29434974D01*
X133649457Y-29446956D01*
X133628387Y-29456921D01*
X133606443Y-29464773D01*
X133583834Y-29470437D01*
X133560779Y-29473856D01*
X133537500Y-29475000D01*
X132962500Y-29475000D01*
X132939221Y-29473856D01*
X132916166Y-29470437D01*
X132893557Y-29464773D01*
X132871613Y-29456921D01*
X132850543Y-29446956D01*
X132830552Y-29434974D01*
X132811832Y-29421090D01*
X132794562Y-29405438D01*
X132778910Y-29388168D01*
X132765026Y-29369448D01*
X132753044Y-29349457D01*
X132743079Y-29328387D01*
X132735227Y-29306443D01*
X132729563Y-29283834D01*
X132726144Y-29260779D01*
X132725000Y-29237500D01*
X132725000Y-28762500D01*
X132726144Y-28739221D01*
X132729563Y-28716166D01*
X132735227Y-28693557D01*
X132743079Y-28671613D01*
X132753044Y-28650543D01*
X132765026Y-28630552D01*
X132778910Y-28611832D01*
X132794562Y-28594562D01*
X132811832Y-28578910D01*
X132830552Y-28565026D01*
X132850543Y-28553044D01*
X132871613Y-28543079D01*
X132893557Y-28535227D01*
X132916166Y-28529563D01*
X132939221Y-28526144D01*
X132962500Y-28525000D01*
X133537500Y-28525000D01*
X133560779Y-28526144D01*
X133560779Y-28526144D01*
G37*
D12*
X133250000Y-29000000D03*
D10*
G36*
X135310779Y-28526144D02*
G01*
X135333834Y-28529563D01*
X135356443Y-28535227D01*
X135378387Y-28543079D01*
X135399457Y-28553044D01*
X135419448Y-28565026D01*
X135438168Y-28578910D01*
X135455438Y-28594562D01*
X135471090Y-28611832D01*
X135484974Y-28630552D01*
X135496956Y-28650543D01*
X135506921Y-28671613D01*
X135514773Y-28693557D01*
X135520437Y-28716166D01*
X135523856Y-28739221D01*
X135525000Y-28762500D01*
X135525000Y-29237500D01*
X135523856Y-29260779D01*
X135520437Y-29283834D01*
X135514773Y-29306443D01*
X135506921Y-29328387D01*
X135496956Y-29349457D01*
X135484974Y-29369448D01*
X135471090Y-29388168D01*
X135455438Y-29405438D01*
X135438168Y-29421090D01*
X135419448Y-29434974D01*
X135399457Y-29446956D01*
X135378387Y-29456921D01*
X135356443Y-29464773D01*
X135333834Y-29470437D01*
X135310779Y-29473856D01*
X135287500Y-29475000D01*
X134712500Y-29475000D01*
X134689221Y-29473856D01*
X134666166Y-29470437D01*
X134643557Y-29464773D01*
X134621613Y-29456921D01*
X134600543Y-29446956D01*
X134580552Y-29434974D01*
X134561832Y-29421090D01*
X134544562Y-29405438D01*
X134528910Y-29388168D01*
X134515026Y-29369448D01*
X134503044Y-29349457D01*
X134493079Y-29328387D01*
X134485227Y-29306443D01*
X134479563Y-29283834D01*
X134476144Y-29260779D01*
X134475000Y-29237500D01*
X134475000Y-28762500D01*
X134476144Y-28739221D01*
X134479563Y-28716166D01*
X134485227Y-28693557D01*
X134493079Y-28671613D01*
X134503044Y-28650543D01*
X134515026Y-28630552D01*
X134528910Y-28611832D01*
X134544562Y-28594562D01*
X134561832Y-28578910D01*
X134580552Y-28565026D01*
X134600543Y-28553044D01*
X134621613Y-28543079D01*
X134643557Y-28535227D01*
X134666166Y-28529563D01*
X134689221Y-28526144D01*
X134712500Y-28525000D01*
X135287500Y-28525000D01*
X135310779Y-28526144D01*
X135310779Y-28526144D01*
G37*
D12*
X135000000Y-29000000D03*
D10*
G36*
X125960779Y-28426144D02*
G01*
X125983834Y-28429563D01*
X126006443Y-28435227D01*
X126028387Y-28443079D01*
X126049457Y-28453044D01*
X126069448Y-28465026D01*
X126088168Y-28478910D01*
X126105438Y-28494562D01*
X126121090Y-28511832D01*
X126134974Y-28530552D01*
X126146956Y-28550543D01*
X126156921Y-28571613D01*
X126164773Y-28593557D01*
X126170437Y-28616166D01*
X126173856Y-28639221D01*
X126175000Y-28662500D01*
X126175000Y-29137500D01*
X126173856Y-29160779D01*
X126170437Y-29183834D01*
X126164773Y-29206443D01*
X126156921Y-29228387D01*
X126146956Y-29249457D01*
X126134974Y-29269448D01*
X126121090Y-29288168D01*
X126105438Y-29305438D01*
X126088168Y-29321090D01*
X126069448Y-29334974D01*
X126049457Y-29346956D01*
X126028387Y-29356921D01*
X126006443Y-29364773D01*
X125983834Y-29370437D01*
X125960779Y-29373856D01*
X125937500Y-29375000D01*
X125362500Y-29375000D01*
X125339221Y-29373856D01*
X125316166Y-29370437D01*
X125293557Y-29364773D01*
X125271613Y-29356921D01*
X125250543Y-29346956D01*
X125230552Y-29334974D01*
X125211832Y-29321090D01*
X125194562Y-29305438D01*
X125178910Y-29288168D01*
X125165026Y-29269448D01*
X125153044Y-29249457D01*
X125143079Y-29228387D01*
X125135227Y-29206443D01*
X125129563Y-29183834D01*
X125126144Y-29160779D01*
X125125000Y-29137500D01*
X125125000Y-28662500D01*
X125126144Y-28639221D01*
X125129563Y-28616166D01*
X125135227Y-28593557D01*
X125143079Y-28571613D01*
X125153044Y-28550543D01*
X125165026Y-28530552D01*
X125178910Y-28511832D01*
X125194562Y-28494562D01*
X125211832Y-28478910D01*
X125230552Y-28465026D01*
X125250543Y-28453044D01*
X125271613Y-28443079D01*
X125293557Y-28435227D01*
X125316166Y-28429563D01*
X125339221Y-28426144D01*
X125362500Y-28425000D01*
X125937500Y-28425000D01*
X125960779Y-28426144D01*
X125960779Y-28426144D01*
G37*
D12*
X125650000Y-28900000D03*
D10*
G36*
X127710779Y-28426144D02*
G01*
X127733834Y-28429563D01*
X127756443Y-28435227D01*
X127778387Y-28443079D01*
X127799457Y-28453044D01*
X127819448Y-28465026D01*
X127838168Y-28478910D01*
X127855438Y-28494562D01*
X127871090Y-28511832D01*
X127884974Y-28530552D01*
X127896956Y-28550543D01*
X127906921Y-28571613D01*
X127914773Y-28593557D01*
X127920437Y-28616166D01*
X127923856Y-28639221D01*
X127925000Y-28662500D01*
X127925000Y-29137500D01*
X127923856Y-29160779D01*
X127920437Y-29183834D01*
X127914773Y-29206443D01*
X127906921Y-29228387D01*
X127896956Y-29249457D01*
X127884974Y-29269448D01*
X127871090Y-29288168D01*
X127855438Y-29305438D01*
X127838168Y-29321090D01*
X127819448Y-29334974D01*
X127799457Y-29346956D01*
X127778387Y-29356921D01*
X127756443Y-29364773D01*
X127733834Y-29370437D01*
X127710779Y-29373856D01*
X127687500Y-29375000D01*
X127112500Y-29375000D01*
X127089221Y-29373856D01*
X127066166Y-29370437D01*
X127043557Y-29364773D01*
X127021613Y-29356921D01*
X127000543Y-29346956D01*
X126980552Y-29334974D01*
X126961832Y-29321090D01*
X126944562Y-29305438D01*
X126928910Y-29288168D01*
X126915026Y-29269448D01*
X126903044Y-29249457D01*
X126893079Y-29228387D01*
X126885227Y-29206443D01*
X126879563Y-29183834D01*
X126876144Y-29160779D01*
X126875000Y-29137500D01*
X126875000Y-28662500D01*
X126876144Y-28639221D01*
X126879563Y-28616166D01*
X126885227Y-28593557D01*
X126893079Y-28571613D01*
X126903044Y-28550543D01*
X126915026Y-28530552D01*
X126928910Y-28511832D01*
X126944562Y-28494562D01*
X126961832Y-28478910D01*
X126980552Y-28465026D01*
X127000543Y-28453044D01*
X127021613Y-28443079D01*
X127043557Y-28435227D01*
X127066166Y-28429563D01*
X127089221Y-28426144D01*
X127112500Y-28425000D01*
X127687500Y-28425000D01*
X127710779Y-28426144D01*
X127710779Y-28426144D01*
G37*
D12*
X127400000Y-28900000D03*
D10*
G36*
X146560779Y-57801144D02*
G01*
X146583834Y-57804563D01*
X146606443Y-57810227D01*
X146628387Y-57818079D01*
X146649457Y-57828044D01*
X146669448Y-57840026D01*
X146688168Y-57853910D01*
X146705438Y-57869562D01*
X146721090Y-57886832D01*
X146734974Y-57905552D01*
X146746956Y-57925543D01*
X146756921Y-57946613D01*
X146764773Y-57968557D01*
X146770437Y-57991166D01*
X146773856Y-58014221D01*
X146775000Y-58037500D01*
X146775000Y-58612500D01*
X146773856Y-58635779D01*
X146770437Y-58658834D01*
X146764773Y-58681443D01*
X146756921Y-58703387D01*
X146746956Y-58724457D01*
X146734974Y-58744448D01*
X146721090Y-58763168D01*
X146705438Y-58780438D01*
X146688168Y-58796090D01*
X146669448Y-58809974D01*
X146649457Y-58821956D01*
X146628387Y-58831921D01*
X146606443Y-58839773D01*
X146583834Y-58845437D01*
X146560779Y-58848856D01*
X146537500Y-58850000D01*
X146062500Y-58850000D01*
X146039221Y-58848856D01*
X146016166Y-58845437D01*
X145993557Y-58839773D01*
X145971613Y-58831921D01*
X145950543Y-58821956D01*
X145930552Y-58809974D01*
X145911832Y-58796090D01*
X145894562Y-58780438D01*
X145878910Y-58763168D01*
X145865026Y-58744448D01*
X145853044Y-58724457D01*
X145843079Y-58703387D01*
X145835227Y-58681443D01*
X145829563Y-58658834D01*
X145826144Y-58635779D01*
X145825000Y-58612500D01*
X145825000Y-58037500D01*
X145826144Y-58014221D01*
X145829563Y-57991166D01*
X145835227Y-57968557D01*
X145843079Y-57946613D01*
X145853044Y-57925543D01*
X145865026Y-57905552D01*
X145878910Y-57886832D01*
X145894562Y-57869562D01*
X145911832Y-57853910D01*
X145930552Y-57840026D01*
X145950543Y-57828044D01*
X145971613Y-57818079D01*
X145993557Y-57810227D01*
X146016166Y-57804563D01*
X146039221Y-57801144D01*
X146062500Y-57800000D01*
X146537500Y-57800000D01*
X146560779Y-57801144D01*
X146560779Y-57801144D01*
G37*
D12*
X146300000Y-58325000D03*
D10*
G36*
X146560779Y-59551144D02*
G01*
X146583834Y-59554563D01*
X146606443Y-59560227D01*
X146628387Y-59568079D01*
X146649457Y-59578044D01*
X146669448Y-59590026D01*
X146688168Y-59603910D01*
X146705438Y-59619562D01*
X146721090Y-59636832D01*
X146734974Y-59655552D01*
X146746956Y-59675543D01*
X146756921Y-59696613D01*
X146764773Y-59718557D01*
X146770437Y-59741166D01*
X146773856Y-59764221D01*
X146775000Y-59787500D01*
X146775000Y-60362500D01*
X146773856Y-60385779D01*
X146770437Y-60408834D01*
X146764773Y-60431443D01*
X146756921Y-60453387D01*
X146746956Y-60474457D01*
X146734974Y-60494448D01*
X146721090Y-60513168D01*
X146705438Y-60530438D01*
X146688168Y-60546090D01*
X146669448Y-60559974D01*
X146649457Y-60571956D01*
X146628387Y-60581921D01*
X146606443Y-60589773D01*
X146583834Y-60595437D01*
X146560779Y-60598856D01*
X146537500Y-60600000D01*
X146062500Y-60600000D01*
X146039221Y-60598856D01*
X146016166Y-60595437D01*
X145993557Y-60589773D01*
X145971613Y-60581921D01*
X145950543Y-60571956D01*
X145930552Y-60559974D01*
X145911832Y-60546090D01*
X145894562Y-60530438D01*
X145878910Y-60513168D01*
X145865026Y-60494448D01*
X145853044Y-60474457D01*
X145843079Y-60453387D01*
X145835227Y-60431443D01*
X145829563Y-60408834D01*
X145826144Y-60385779D01*
X145825000Y-60362500D01*
X145825000Y-59787500D01*
X145826144Y-59764221D01*
X145829563Y-59741166D01*
X145835227Y-59718557D01*
X145843079Y-59696613D01*
X145853044Y-59675543D01*
X145865026Y-59655552D01*
X145878910Y-59636832D01*
X145894562Y-59619562D01*
X145911832Y-59603910D01*
X145930552Y-59590026D01*
X145950543Y-59578044D01*
X145971613Y-59568079D01*
X145993557Y-59560227D01*
X146016166Y-59554563D01*
X146039221Y-59551144D01*
X146062500Y-59550000D01*
X146537500Y-59550000D01*
X146560779Y-59551144D01*
X146560779Y-59551144D01*
G37*
D12*
X146300000Y-60075000D03*
D10*
G36*
X133460779Y-58876144D02*
G01*
X133483834Y-58879563D01*
X133506443Y-58885227D01*
X133528387Y-58893079D01*
X133549457Y-58903044D01*
X133569448Y-58915026D01*
X133588168Y-58928910D01*
X133605438Y-58944562D01*
X133621090Y-58961832D01*
X133634974Y-58980552D01*
X133646956Y-59000543D01*
X133656921Y-59021613D01*
X133664773Y-59043557D01*
X133670437Y-59066166D01*
X133673856Y-59089221D01*
X133675000Y-59112500D01*
X133675000Y-59587500D01*
X133673856Y-59610779D01*
X133670437Y-59633834D01*
X133664773Y-59656443D01*
X133656921Y-59678387D01*
X133646956Y-59699457D01*
X133634974Y-59719448D01*
X133621090Y-59738168D01*
X133605438Y-59755438D01*
X133588168Y-59771090D01*
X133569448Y-59784974D01*
X133549457Y-59796956D01*
X133528387Y-59806921D01*
X133506443Y-59814773D01*
X133483834Y-59820437D01*
X133460779Y-59823856D01*
X133437500Y-59825000D01*
X132862500Y-59825000D01*
X132839221Y-59823856D01*
X132816166Y-59820437D01*
X132793557Y-59814773D01*
X132771613Y-59806921D01*
X132750543Y-59796956D01*
X132730552Y-59784974D01*
X132711832Y-59771090D01*
X132694562Y-59755438D01*
X132678910Y-59738168D01*
X132665026Y-59719448D01*
X132653044Y-59699457D01*
X132643079Y-59678387D01*
X132635227Y-59656443D01*
X132629563Y-59633834D01*
X132626144Y-59610779D01*
X132625000Y-59587500D01*
X132625000Y-59112500D01*
X132626144Y-59089221D01*
X132629563Y-59066166D01*
X132635227Y-59043557D01*
X132643079Y-59021613D01*
X132653044Y-59000543D01*
X132665026Y-58980552D01*
X132678910Y-58961832D01*
X132694562Y-58944562D01*
X132711832Y-58928910D01*
X132730552Y-58915026D01*
X132750543Y-58903044D01*
X132771613Y-58893079D01*
X132793557Y-58885227D01*
X132816166Y-58879563D01*
X132839221Y-58876144D01*
X132862500Y-58875000D01*
X133437500Y-58875000D01*
X133460779Y-58876144D01*
X133460779Y-58876144D01*
G37*
D12*
X133150000Y-59350000D03*
D10*
G36*
X135210779Y-58876144D02*
G01*
X135233834Y-58879563D01*
X135256443Y-58885227D01*
X135278387Y-58893079D01*
X135299457Y-58903044D01*
X135319448Y-58915026D01*
X135338168Y-58928910D01*
X135355438Y-58944562D01*
X135371090Y-58961832D01*
X135384974Y-58980552D01*
X135396956Y-59000543D01*
X135406921Y-59021613D01*
X135414773Y-59043557D01*
X135420437Y-59066166D01*
X135423856Y-59089221D01*
X135425000Y-59112500D01*
X135425000Y-59587500D01*
X135423856Y-59610779D01*
X135420437Y-59633834D01*
X135414773Y-59656443D01*
X135406921Y-59678387D01*
X135396956Y-59699457D01*
X135384974Y-59719448D01*
X135371090Y-59738168D01*
X135355438Y-59755438D01*
X135338168Y-59771090D01*
X135319448Y-59784974D01*
X135299457Y-59796956D01*
X135278387Y-59806921D01*
X135256443Y-59814773D01*
X135233834Y-59820437D01*
X135210779Y-59823856D01*
X135187500Y-59825000D01*
X134612500Y-59825000D01*
X134589221Y-59823856D01*
X134566166Y-59820437D01*
X134543557Y-59814773D01*
X134521613Y-59806921D01*
X134500543Y-59796956D01*
X134480552Y-59784974D01*
X134461832Y-59771090D01*
X134444562Y-59755438D01*
X134428910Y-59738168D01*
X134415026Y-59719448D01*
X134403044Y-59699457D01*
X134393079Y-59678387D01*
X134385227Y-59656443D01*
X134379563Y-59633834D01*
X134376144Y-59610779D01*
X134375000Y-59587500D01*
X134375000Y-59112500D01*
X134376144Y-59089221D01*
X134379563Y-59066166D01*
X134385227Y-59043557D01*
X134393079Y-59021613D01*
X134403044Y-59000543D01*
X134415026Y-58980552D01*
X134428910Y-58961832D01*
X134444562Y-58944562D01*
X134461832Y-58928910D01*
X134480552Y-58915026D01*
X134500543Y-58903044D01*
X134521613Y-58893079D01*
X134543557Y-58885227D01*
X134566166Y-58879563D01*
X134589221Y-58876144D01*
X134612500Y-58875000D01*
X135187500Y-58875000D01*
X135210779Y-58876144D01*
X135210779Y-58876144D01*
G37*
D12*
X134900000Y-59350000D03*
D10*
G36*
X122185779Y-58876144D02*
G01*
X122208834Y-58879563D01*
X122231443Y-58885227D01*
X122253387Y-58893079D01*
X122274457Y-58903044D01*
X122294448Y-58915026D01*
X122313168Y-58928910D01*
X122330438Y-58944562D01*
X122346090Y-58961832D01*
X122359974Y-58980552D01*
X122371956Y-59000543D01*
X122381921Y-59021613D01*
X122389773Y-59043557D01*
X122395437Y-59066166D01*
X122398856Y-59089221D01*
X122400000Y-59112500D01*
X122400000Y-59587500D01*
X122398856Y-59610779D01*
X122395437Y-59633834D01*
X122389773Y-59656443D01*
X122381921Y-59678387D01*
X122371956Y-59699457D01*
X122359974Y-59719448D01*
X122346090Y-59738168D01*
X122330438Y-59755438D01*
X122313168Y-59771090D01*
X122294448Y-59784974D01*
X122274457Y-59796956D01*
X122253387Y-59806921D01*
X122231443Y-59814773D01*
X122208834Y-59820437D01*
X122185779Y-59823856D01*
X122162500Y-59825000D01*
X121587500Y-59825000D01*
X121564221Y-59823856D01*
X121541166Y-59820437D01*
X121518557Y-59814773D01*
X121496613Y-59806921D01*
X121475543Y-59796956D01*
X121455552Y-59784974D01*
X121436832Y-59771090D01*
X121419562Y-59755438D01*
X121403910Y-59738168D01*
X121390026Y-59719448D01*
X121378044Y-59699457D01*
X121368079Y-59678387D01*
X121360227Y-59656443D01*
X121354563Y-59633834D01*
X121351144Y-59610779D01*
X121350000Y-59587500D01*
X121350000Y-59112500D01*
X121351144Y-59089221D01*
X121354563Y-59066166D01*
X121360227Y-59043557D01*
X121368079Y-59021613D01*
X121378044Y-59000543D01*
X121390026Y-58980552D01*
X121403910Y-58961832D01*
X121419562Y-58944562D01*
X121436832Y-58928910D01*
X121455552Y-58915026D01*
X121475543Y-58903044D01*
X121496613Y-58893079D01*
X121518557Y-58885227D01*
X121541166Y-58879563D01*
X121564221Y-58876144D01*
X121587500Y-58875000D01*
X122162500Y-58875000D01*
X122185779Y-58876144D01*
X122185779Y-58876144D01*
G37*
D12*
X121875000Y-59350000D03*
D10*
G36*
X120435779Y-58876144D02*
G01*
X120458834Y-58879563D01*
X120481443Y-58885227D01*
X120503387Y-58893079D01*
X120524457Y-58903044D01*
X120544448Y-58915026D01*
X120563168Y-58928910D01*
X120580438Y-58944562D01*
X120596090Y-58961832D01*
X120609974Y-58980552D01*
X120621956Y-59000543D01*
X120631921Y-59021613D01*
X120639773Y-59043557D01*
X120645437Y-59066166D01*
X120648856Y-59089221D01*
X120650000Y-59112500D01*
X120650000Y-59587500D01*
X120648856Y-59610779D01*
X120645437Y-59633834D01*
X120639773Y-59656443D01*
X120631921Y-59678387D01*
X120621956Y-59699457D01*
X120609974Y-59719448D01*
X120596090Y-59738168D01*
X120580438Y-59755438D01*
X120563168Y-59771090D01*
X120544448Y-59784974D01*
X120524457Y-59796956D01*
X120503387Y-59806921D01*
X120481443Y-59814773D01*
X120458834Y-59820437D01*
X120435779Y-59823856D01*
X120412500Y-59825000D01*
X119837500Y-59825000D01*
X119814221Y-59823856D01*
X119791166Y-59820437D01*
X119768557Y-59814773D01*
X119746613Y-59806921D01*
X119725543Y-59796956D01*
X119705552Y-59784974D01*
X119686832Y-59771090D01*
X119669562Y-59755438D01*
X119653910Y-59738168D01*
X119640026Y-59719448D01*
X119628044Y-59699457D01*
X119618079Y-59678387D01*
X119610227Y-59656443D01*
X119604563Y-59633834D01*
X119601144Y-59610779D01*
X119600000Y-59587500D01*
X119600000Y-59112500D01*
X119601144Y-59089221D01*
X119604563Y-59066166D01*
X119610227Y-59043557D01*
X119618079Y-59021613D01*
X119628044Y-59000543D01*
X119640026Y-58980552D01*
X119653910Y-58961832D01*
X119669562Y-58944562D01*
X119686832Y-58928910D01*
X119705552Y-58915026D01*
X119725543Y-58903044D01*
X119746613Y-58893079D01*
X119768557Y-58885227D01*
X119791166Y-58879563D01*
X119814221Y-58876144D01*
X119837500Y-58875000D01*
X120412500Y-58875000D01*
X120435779Y-58876144D01*
X120435779Y-58876144D01*
G37*
D12*
X120125000Y-59350000D03*
D10*
G36*
X107260779Y-58876144D02*
G01*
X107283834Y-58879563D01*
X107306443Y-58885227D01*
X107328387Y-58893079D01*
X107349457Y-58903044D01*
X107369448Y-58915026D01*
X107388168Y-58928910D01*
X107405438Y-58944562D01*
X107421090Y-58961832D01*
X107434974Y-58980552D01*
X107446956Y-59000543D01*
X107456921Y-59021613D01*
X107464773Y-59043557D01*
X107470437Y-59066166D01*
X107473856Y-59089221D01*
X107475000Y-59112500D01*
X107475000Y-59587500D01*
X107473856Y-59610779D01*
X107470437Y-59633834D01*
X107464773Y-59656443D01*
X107456921Y-59678387D01*
X107446956Y-59699457D01*
X107434974Y-59719448D01*
X107421090Y-59738168D01*
X107405438Y-59755438D01*
X107388168Y-59771090D01*
X107369448Y-59784974D01*
X107349457Y-59796956D01*
X107328387Y-59806921D01*
X107306443Y-59814773D01*
X107283834Y-59820437D01*
X107260779Y-59823856D01*
X107237500Y-59825000D01*
X106662500Y-59825000D01*
X106639221Y-59823856D01*
X106616166Y-59820437D01*
X106593557Y-59814773D01*
X106571613Y-59806921D01*
X106550543Y-59796956D01*
X106530552Y-59784974D01*
X106511832Y-59771090D01*
X106494562Y-59755438D01*
X106478910Y-59738168D01*
X106465026Y-59719448D01*
X106453044Y-59699457D01*
X106443079Y-59678387D01*
X106435227Y-59656443D01*
X106429563Y-59633834D01*
X106426144Y-59610779D01*
X106425000Y-59587500D01*
X106425000Y-59112500D01*
X106426144Y-59089221D01*
X106429563Y-59066166D01*
X106435227Y-59043557D01*
X106443079Y-59021613D01*
X106453044Y-59000543D01*
X106465026Y-58980552D01*
X106478910Y-58961832D01*
X106494562Y-58944562D01*
X106511832Y-58928910D01*
X106530552Y-58915026D01*
X106550543Y-58903044D01*
X106571613Y-58893079D01*
X106593557Y-58885227D01*
X106616166Y-58879563D01*
X106639221Y-58876144D01*
X106662500Y-58875000D01*
X107237500Y-58875000D01*
X107260779Y-58876144D01*
X107260779Y-58876144D01*
G37*
D12*
X106950000Y-59350000D03*
D10*
G36*
X109010779Y-58876144D02*
G01*
X109033834Y-58879563D01*
X109056443Y-58885227D01*
X109078387Y-58893079D01*
X109099457Y-58903044D01*
X109119448Y-58915026D01*
X109138168Y-58928910D01*
X109155438Y-58944562D01*
X109171090Y-58961832D01*
X109184974Y-58980552D01*
X109196956Y-59000543D01*
X109206921Y-59021613D01*
X109214773Y-59043557D01*
X109220437Y-59066166D01*
X109223856Y-59089221D01*
X109225000Y-59112500D01*
X109225000Y-59587500D01*
X109223856Y-59610779D01*
X109220437Y-59633834D01*
X109214773Y-59656443D01*
X109206921Y-59678387D01*
X109196956Y-59699457D01*
X109184974Y-59719448D01*
X109171090Y-59738168D01*
X109155438Y-59755438D01*
X109138168Y-59771090D01*
X109119448Y-59784974D01*
X109099457Y-59796956D01*
X109078387Y-59806921D01*
X109056443Y-59814773D01*
X109033834Y-59820437D01*
X109010779Y-59823856D01*
X108987500Y-59825000D01*
X108412500Y-59825000D01*
X108389221Y-59823856D01*
X108366166Y-59820437D01*
X108343557Y-59814773D01*
X108321613Y-59806921D01*
X108300543Y-59796956D01*
X108280552Y-59784974D01*
X108261832Y-59771090D01*
X108244562Y-59755438D01*
X108228910Y-59738168D01*
X108215026Y-59719448D01*
X108203044Y-59699457D01*
X108193079Y-59678387D01*
X108185227Y-59656443D01*
X108179563Y-59633834D01*
X108176144Y-59610779D01*
X108175000Y-59587500D01*
X108175000Y-59112500D01*
X108176144Y-59089221D01*
X108179563Y-59066166D01*
X108185227Y-59043557D01*
X108193079Y-59021613D01*
X108203044Y-59000543D01*
X108215026Y-58980552D01*
X108228910Y-58961832D01*
X108244562Y-58944562D01*
X108261832Y-58928910D01*
X108280552Y-58915026D01*
X108300543Y-58903044D01*
X108321613Y-58893079D01*
X108343557Y-58885227D01*
X108366166Y-58879563D01*
X108389221Y-58876144D01*
X108412500Y-58875000D01*
X108987500Y-58875000D01*
X109010779Y-58876144D01*
X109010779Y-58876144D01*
G37*
D12*
X108700000Y-59350000D03*
D10*
G36*
X146360779Y-44851144D02*
G01*
X146383834Y-44854563D01*
X146406443Y-44860227D01*
X146428387Y-44868079D01*
X146449457Y-44878044D01*
X146469448Y-44890026D01*
X146488168Y-44903910D01*
X146505438Y-44919562D01*
X146521090Y-44936832D01*
X146534974Y-44955552D01*
X146546956Y-44975543D01*
X146556921Y-44996613D01*
X146564773Y-45018557D01*
X146570437Y-45041166D01*
X146573856Y-45064221D01*
X146575000Y-45087500D01*
X146575000Y-45662500D01*
X146573856Y-45685779D01*
X146570437Y-45708834D01*
X146564773Y-45731443D01*
X146556921Y-45753387D01*
X146546956Y-45774457D01*
X146534974Y-45794448D01*
X146521090Y-45813168D01*
X146505438Y-45830438D01*
X146488168Y-45846090D01*
X146469448Y-45859974D01*
X146449457Y-45871956D01*
X146428387Y-45881921D01*
X146406443Y-45889773D01*
X146383834Y-45895437D01*
X146360779Y-45898856D01*
X146337500Y-45900000D01*
X145862500Y-45900000D01*
X145839221Y-45898856D01*
X145816166Y-45895437D01*
X145793557Y-45889773D01*
X145771613Y-45881921D01*
X145750543Y-45871956D01*
X145730552Y-45859974D01*
X145711832Y-45846090D01*
X145694562Y-45830438D01*
X145678910Y-45813168D01*
X145665026Y-45794448D01*
X145653044Y-45774457D01*
X145643079Y-45753387D01*
X145635227Y-45731443D01*
X145629563Y-45708834D01*
X145626144Y-45685779D01*
X145625000Y-45662500D01*
X145625000Y-45087500D01*
X145626144Y-45064221D01*
X145629563Y-45041166D01*
X145635227Y-45018557D01*
X145643079Y-44996613D01*
X145653044Y-44975543D01*
X145665026Y-44955552D01*
X145678910Y-44936832D01*
X145694562Y-44919562D01*
X145711832Y-44903910D01*
X145730552Y-44890026D01*
X145750543Y-44878044D01*
X145771613Y-44868079D01*
X145793557Y-44860227D01*
X145816166Y-44854563D01*
X145839221Y-44851144D01*
X145862500Y-44850000D01*
X146337500Y-44850000D01*
X146360779Y-44851144D01*
X146360779Y-44851144D01*
G37*
D12*
X146100000Y-45375000D03*
D10*
G36*
X146360779Y-43101144D02*
G01*
X146383834Y-43104563D01*
X146406443Y-43110227D01*
X146428387Y-43118079D01*
X146449457Y-43128044D01*
X146469448Y-43140026D01*
X146488168Y-43153910D01*
X146505438Y-43169562D01*
X146521090Y-43186832D01*
X146534974Y-43205552D01*
X146546956Y-43225543D01*
X146556921Y-43246613D01*
X146564773Y-43268557D01*
X146570437Y-43291166D01*
X146573856Y-43314221D01*
X146575000Y-43337500D01*
X146575000Y-43912500D01*
X146573856Y-43935779D01*
X146570437Y-43958834D01*
X146564773Y-43981443D01*
X146556921Y-44003387D01*
X146546956Y-44024457D01*
X146534974Y-44044448D01*
X146521090Y-44063168D01*
X146505438Y-44080438D01*
X146488168Y-44096090D01*
X146469448Y-44109974D01*
X146449457Y-44121956D01*
X146428387Y-44131921D01*
X146406443Y-44139773D01*
X146383834Y-44145437D01*
X146360779Y-44148856D01*
X146337500Y-44150000D01*
X145862500Y-44150000D01*
X145839221Y-44148856D01*
X145816166Y-44145437D01*
X145793557Y-44139773D01*
X145771613Y-44131921D01*
X145750543Y-44121956D01*
X145730552Y-44109974D01*
X145711832Y-44096090D01*
X145694562Y-44080438D01*
X145678910Y-44063168D01*
X145665026Y-44044448D01*
X145653044Y-44024457D01*
X145643079Y-44003387D01*
X145635227Y-43981443D01*
X145629563Y-43958834D01*
X145626144Y-43935779D01*
X145625000Y-43912500D01*
X145625000Y-43337500D01*
X145626144Y-43314221D01*
X145629563Y-43291166D01*
X145635227Y-43268557D01*
X145643079Y-43246613D01*
X145653044Y-43225543D01*
X145665026Y-43205552D01*
X145678910Y-43186832D01*
X145694562Y-43169562D01*
X145711832Y-43153910D01*
X145730552Y-43140026D01*
X145750543Y-43128044D01*
X145771613Y-43118079D01*
X145793557Y-43110227D01*
X145816166Y-43104563D01*
X145839221Y-43101144D01*
X145862500Y-43100000D01*
X146337500Y-43100000D01*
X146360779Y-43101144D01*
X146360779Y-43101144D01*
G37*
D12*
X146100000Y-43625000D03*
D10*
G36*
X135210779Y-44226144D02*
G01*
X135233834Y-44229563D01*
X135256443Y-44235227D01*
X135278387Y-44243079D01*
X135299457Y-44253044D01*
X135319448Y-44265026D01*
X135338168Y-44278910D01*
X135355438Y-44294562D01*
X135371090Y-44311832D01*
X135384974Y-44330552D01*
X135396956Y-44350543D01*
X135406921Y-44371613D01*
X135414773Y-44393557D01*
X135420437Y-44416166D01*
X135423856Y-44439221D01*
X135425000Y-44462500D01*
X135425000Y-44937500D01*
X135423856Y-44960779D01*
X135420437Y-44983834D01*
X135414773Y-45006443D01*
X135406921Y-45028387D01*
X135396956Y-45049457D01*
X135384974Y-45069448D01*
X135371090Y-45088168D01*
X135355438Y-45105438D01*
X135338168Y-45121090D01*
X135319448Y-45134974D01*
X135299457Y-45146956D01*
X135278387Y-45156921D01*
X135256443Y-45164773D01*
X135233834Y-45170437D01*
X135210779Y-45173856D01*
X135187500Y-45175000D01*
X134612500Y-45175000D01*
X134589221Y-45173856D01*
X134566166Y-45170437D01*
X134543557Y-45164773D01*
X134521613Y-45156921D01*
X134500543Y-45146956D01*
X134480552Y-45134974D01*
X134461832Y-45121090D01*
X134444562Y-45105438D01*
X134428910Y-45088168D01*
X134415026Y-45069448D01*
X134403044Y-45049457D01*
X134393079Y-45028387D01*
X134385227Y-45006443D01*
X134379563Y-44983834D01*
X134376144Y-44960779D01*
X134375000Y-44937500D01*
X134375000Y-44462500D01*
X134376144Y-44439221D01*
X134379563Y-44416166D01*
X134385227Y-44393557D01*
X134393079Y-44371613D01*
X134403044Y-44350543D01*
X134415026Y-44330552D01*
X134428910Y-44311832D01*
X134444562Y-44294562D01*
X134461832Y-44278910D01*
X134480552Y-44265026D01*
X134500543Y-44253044D01*
X134521613Y-44243079D01*
X134543557Y-44235227D01*
X134566166Y-44229563D01*
X134589221Y-44226144D01*
X134612500Y-44225000D01*
X135187500Y-44225000D01*
X135210779Y-44226144D01*
X135210779Y-44226144D01*
G37*
D12*
X134900000Y-44700000D03*
D10*
G36*
X133460779Y-44226144D02*
G01*
X133483834Y-44229563D01*
X133506443Y-44235227D01*
X133528387Y-44243079D01*
X133549457Y-44253044D01*
X133569448Y-44265026D01*
X133588168Y-44278910D01*
X133605438Y-44294562D01*
X133621090Y-44311832D01*
X133634974Y-44330552D01*
X133646956Y-44350543D01*
X133656921Y-44371613D01*
X133664773Y-44393557D01*
X133670437Y-44416166D01*
X133673856Y-44439221D01*
X133675000Y-44462500D01*
X133675000Y-44937500D01*
X133673856Y-44960779D01*
X133670437Y-44983834D01*
X133664773Y-45006443D01*
X133656921Y-45028387D01*
X133646956Y-45049457D01*
X133634974Y-45069448D01*
X133621090Y-45088168D01*
X133605438Y-45105438D01*
X133588168Y-45121090D01*
X133569448Y-45134974D01*
X133549457Y-45146956D01*
X133528387Y-45156921D01*
X133506443Y-45164773D01*
X133483834Y-45170437D01*
X133460779Y-45173856D01*
X133437500Y-45175000D01*
X132862500Y-45175000D01*
X132839221Y-45173856D01*
X132816166Y-45170437D01*
X132793557Y-45164773D01*
X132771613Y-45156921D01*
X132750543Y-45146956D01*
X132730552Y-45134974D01*
X132711832Y-45121090D01*
X132694562Y-45105438D01*
X132678910Y-45088168D01*
X132665026Y-45069448D01*
X132653044Y-45049457D01*
X132643079Y-45028387D01*
X132635227Y-45006443D01*
X132629563Y-44983834D01*
X132626144Y-44960779D01*
X132625000Y-44937500D01*
X132625000Y-44462500D01*
X132626144Y-44439221D01*
X132629563Y-44416166D01*
X132635227Y-44393557D01*
X132643079Y-44371613D01*
X132653044Y-44350543D01*
X132665026Y-44330552D01*
X132678910Y-44311832D01*
X132694562Y-44294562D01*
X132711832Y-44278910D01*
X132730552Y-44265026D01*
X132750543Y-44253044D01*
X132771613Y-44243079D01*
X132793557Y-44235227D01*
X132816166Y-44229563D01*
X132839221Y-44226144D01*
X132862500Y-44225000D01*
X133437500Y-44225000D01*
X133460779Y-44226144D01*
X133460779Y-44226144D01*
G37*
D12*
X133150000Y-44700000D03*
D10*
G36*
X120235779Y-44226144D02*
G01*
X120258834Y-44229563D01*
X120281443Y-44235227D01*
X120303387Y-44243079D01*
X120324457Y-44253044D01*
X120344448Y-44265026D01*
X120363168Y-44278910D01*
X120380438Y-44294562D01*
X120396090Y-44311832D01*
X120409974Y-44330552D01*
X120421956Y-44350543D01*
X120431921Y-44371613D01*
X120439773Y-44393557D01*
X120445437Y-44416166D01*
X120448856Y-44439221D01*
X120450000Y-44462500D01*
X120450000Y-44937500D01*
X120448856Y-44960779D01*
X120445437Y-44983834D01*
X120439773Y-45006443D01*
X120431921Y-45028387D01*
X120421956Y-45049457D01*
X120409974Y-45069448D01*
X120396090Y-45088168D01*
X120380438Y-45105438D01*
X120363168Y-45121090D01*
X120344448Y-45134974D01*
X120324457Y-45146956D01*
X120303387Y-45156921D01*
X120281443Y-45164773D01*
X120258834Y-45170437D01*
X120235779Y-45173856D01*
X120212500Y-45175000D01*
X119637500Y-45175000D01*
X119614221Y-45173856D01*
X119591166Y-45170437D01*
X119568557Y-45164773D01*
X119546613Y-45156921D01*
X119525543Y-45146956D01*
X119505552Y-45134974D01*
X119486832Y-45121090D01*
X119469562Y-45105438D01*
X119453910Y-45088168D01*
X119440026Y-45069448D01*
X119428044Y-45049457D01*
X119418079Y-45028387D01*
X119410227Y-45006443D01*
X119404563Y-44983834D01*
X119401144Y-44960779D01*
X119400000Y-44937500D01*
X119400000Y-44462500D01*
X119401144Y-44439221D01*
X119404563Y-44416166D01*
X119410227Y-44393557D01*
X119418079Y-44371613D01*
X119428044Y-44350543D01*
X119440026Y-44330552D01*
X119453910Y-44311832D01*
X119469562Y-44294562D01*
X119486832Y-44278910D01*
X119505552Y-44265026D01*
X119525543Y-44253044D01*
X119546613Y-44243079D01*
X119568557Y-44235227D01*
X119591166Y-44229563D01*
X119614221Y-44226144D01*
X119637500Y-44225000D01*
X120212500Y-44225000D01*
X120235779Y-44226144D01*
X120235779Y-44226144D01*
G37*
D12*
X119925000Y-44700000D03*
D10*
G36*
X121985779Y-44226144D02*
G01*
X122008834Y-44229563D01*
X122031443Y-44235227D01*
X122053387Y-44243079D01*
X122074457Y-44253044D01*
X122094448Y-44265026D01*
X122113168Y-44278910D01*
X122130438Y-44294562D01*
X122146090Y-44311832D01*
X122159974Y-44330552D01*
X122171956Y-44350543D01*
X122181921Y-44371613D01*
X122189773Y-44393557D01*
X122195437Y-44416166D01*
X122198856Y-44439221D01*
X122200000Y-44462500D01*
X122200000Y-44937500D01*
X122198856Y-44960779D01*
X122195437Y-44983834D01*
X122189773Y-45006443D01*
X122181921Y-45028387D01*
X122171956Y-45049457D01*
X122159974Y-45069448D01*
X122146090Y-45088168D01*
X122130438Y-45105438D01*
X122113168Y-45121090D01*
X122094448Y-45134974D01*
X122074457Y-45146956D01*
X122053387Y-45156921D01*
X122031443Y-45164773D01*
X122008834Y-45170437D01*
X121985779Y-45173856D01*
X121962500Y-45175000D01*
X121387500Y-45175000D01*
X121364221Y-45173856D01*
X121341166Y-45170437D01*
X121318557Y-45164773D01*
X121296613Y-45156921D01*
X121275543Y-45146956D01*
X121255552Y-45134974D01*
X121236832Y-45121090D01*
X121219562Y-45105438D01*
X121203910Y-45088168D01*
X121190026Y-45069448D01*
X121178044Y-45049457D01*
X121168079Y-45028387D01*
X121160227Y-45006443D01*
X121154563Y-44983834D01*
X121151144Y-44960779D01*
X121150000Y-44937500D01*
X121150000Y-44462500D01*
X121151144Y-44439221D01*
X121154563Y-44416166D01*
X121160227Y-44393557D01*
X121168079Y-44371613D01*
X121178044Y-44350543D01*
X121190026Y-44330552D01*
X121203910Y-44311832D01*
X121219562Y-44294562D01*
X121236832Y-44278910D01*
X121255552Y-44265026D01*
X121275543Y-44253044D01*
X121296613Y-44243079D01*
X121318557Y-44235227D01*
X121341166Y-44229563D01*
X121364221Y-44226144D01*
X121387500Y-44225000D01*
X121962500Y-44225000D01*
X121985779Y-44226144D01*
X121985779Y-44226144D01*
G37*
D12*
X121675000Y-44700000D03*
D10*
G36*
X108985779Y-44226144D02*
G01*
X109008834Y-44229563D01*
X109031443Y-44235227D01*
X109053387Y-44243079D01*
X109074457Y-44253044D01*
X109094448Y-44265026D01*
X109113168Y-44278910D01*
X109130438Y-44294562D01*
X109146090Y-44311832D01*
X109159974Y-44330552D01*
X109171956Y-44350543D01*
X109181921Y-44371613D01*
X109189773Y-44393557D01*
X109195437Y-44416166D01*
X109198856Y-44439221D01*
X109200000Y-44462500D01*
X109200000Y-44937500D01*
X109198856Y-44960779D01*
X109195437Y-44983834D01*
X109189773Y-45006443D01*
X109181921Y-45028387D01*
X109171956Y-45049457D01*
X109159974Y-45069448D01*
X109146090Y-45088168D01*
X109130438Y-45105438D01*
X109113168Y-45121090D01*
X109094448Y-45134974D01*
X109074457Y-45146956D01*
X109053387Y-45156921D01*
X109031443Y-45164773D01*
X109008834Y-45170437D01*
X108985779Y-45173856D01*
X108962500Y-45175000D01*
X108387500Y-45175000D01*
X108364221Y-45173856D01*
X108341166Y-45170437D01*
X108318557Y-45164773D01*
X108296613Y-45156921D01*
X108275543Y-45146956D01*
X108255552Y-45134974D01*
X108236832Y-45121090D01*
X108219562Y-45105438D01*
X108203910Y-45088168D01*
X108190026Y-45069448D01*
X108178044Y-45049457D01*
X108168079Y-45028387D01*
X108160227Y-45006443D01*
X108154563Y-44983834D01*
X108151144Y-44960779D01*
X108150000Y-44937500D01*
X108150000Y-44462500D01*
X108151144Y-44439221D01*
X108154563Y-44416166D01*
X108160227Y-44393557D01*
X108168079Y-44371613D01*
X108178044Y-44350543D01*
X108190026Y-44330552D01*
X108203910Y-44311832D01*
X108219562Y-44294562D01*
X108236832Y-44278910D01*
X108255552Y-44265026D01*
X108275543Y-44253044D01*
X108296613Y-44243079D01*
X108318557Y-44235227D01*
X108341166Y-44229563D01*
X108364221Y-44226144D01*
X108387500Y-44225000D01*
X108962500Y-44225000D01*
X108985779Y-44226144D01*
X108985779Y-44226144D01*
G37*
D12*
X108675000Y-44700000D03*
D10*
G36*
X107235779Y-44226144D02*
G01*
X107258834Y-44229563D01*
X107281443Y-44235227D01*
X107303387Y-44243079D01*
X107324457Y-44253044D01*
X107344448Y-44265026D01*
X107363168Y-44278910D01*
X107380438Y-44294562D01*
X107396090Y-44311832D01*
X107409974Y-44330552D01*
X107421956Y-44350543D01*
X107431921Y-44371613D01*
X107439773Y-44393557D01*
X107445437Y-44416166D01*
X107448856Y-44439221D01*
X107450000Y-44462500D01*
X107450000Y-44937500D01*
X107448856Y-44960779D01*
X107445437Y-44983834D01*
X107439773Y-45006443D01*
X107431921Y-45028387D01*
X107421956Y-45049457D01*
X107409974Y-45069448D01*
X107396090Y-45088168D01*
X107380438Y-45105438D01*
X107363168Y-45121090D01*
X107344448Y-45134974D01*
X107324457Y-45146956D01*
X107303387Y-45156921D01*
X107281443Y-45164773D01*
X107258834Y-45170437D01*
X107235779Y-45173856D01*
X107212500Y-45175000D01*
X106637500Y-45175000D01*
X106614221Y-45173856D01*
X106591166Y-45170437D01*
X106568557Y-45164773D01*
X106546613Y-45156921D01*
X106525543Y-45146956D01*
X106505552Y-45134974D01*
X106486832Y-45121090D01*
X106469562Y-45105438D01*
X106453910Y-45088168D01*
X106440026Y-45069448D01*
X106428044Y-45049457D01*
X106418079Y-45028387D01*
X106410227Y-45006443D01*
X106404563Y-44983834D01*
X106401144Y-44960779D01*
X106400000Y-44937500D01*
X106400000Y-44462500D01*
X106401144Y-44439221D01*
X106404563Y-44416166D01*
X106410227Y-44393557D01*
X106418079Y-44371613D01*
X106428044Y-44350543D01*
X106440026Y-44330552D01*
X106453910Y-44311832D01*
X106469562Y-44294562D01*
X106486832Y-44278910D01*
X106505552Y-44265026D01*
X106525543Y-44253044D01*
X106546613Y-44243079D01*
X106568557Y-44235227D01*
X106591166Y-44229563D01*
X106614221Y-44226144D01*
X106637500Y-44225000D01*
X107212500Y-44225000D01*
X107235779Y-44226144D01*
X107235779Y-44226144D01*
G37*
D12*
X106925000Y-44700000D03*
D14*
X122250000Y-26100000D03*
X122250000Y-26750000D03*
X122250000Y-27400000D03*
X122250000Y-28050000D03*
X122250000Y-28700000D03*
X122250000Y-29350000D03*
X122250000Y-30000000D03*
X116350000Y-30000000D03*
X116350000Y-29350000D03*
X116350000Y-28700000D03*
X116350000Y-28050000D03*
X116350000Y-27400000D03*
X116350000Y-26750000D03*
X116350000Y-26100000D03*
D10*
G36*
X150560779Y-28526144D02*
G01*
X150583834Y-28529563D01*
X150606443Y-28535227D01*
X150628387Y-28543079D01*
X150649457Y-28553044D01*
X150669448Y-28565026D01*
X150688168Y-28578910D01*
X150705438Y-28594562D01*
X150721090Y-28611832D01*
X150734974Y-28630552D01*
X150746956Y-28650543D01*
X150756921Y-28671613D01*
X150764773Y-28693557D01*
X150770437Y-28716166D01*
X150773856Y-28739221D01*
X150775000Y-28762500D01*
X150775000Y-29237500D01*
X150773856Y-29260779D01*
X150770437Y-29283834D01*
X150764773Y-29306443D01*
X150756921Y-29328387D01*
X150746956Y-29349457D01*
X150734974Y-29369448D01*
X150721090Y-29388168D01*
X150705438Y-29405438D01*
X150688168Y-29421090D01*
X150669448Y-29434974D01*
X150649457Y-29446956D01*
X150628387Y-29456921D01*
X150606443Y-29464773D01*
X150583834Y-29470437D01*
X150560779Y-29473856D01*
X150537500Y-29475000D01*
X149962500Y-29475000D01*
X149939221Y-29473856D01*
X149916166Y-29470437D01*
X149893557Y-29464773D01*
X149871613Y-29456921D01*
X149850543Y-29446956D01*
X149830552Y-29434974D01*
X149811832Y-29421090D01*
X149794562Y-29405438D01*
X149778910Y-29388168D01*
X149765026Y-29369448D01*
X149753044Y-29349457D01*
X149743079Y-29328387D01*
X149735227Y-29306443D01*
X149729563Y-29283834D01*
X149726144Y-29260779D01*
X149725000Y-29237500D01*
X149725000Y-28762500D01*
X149726144Y-28739221D01*
X149729563Y-28716166D01*
X149735227Y-28693557D01*
X149743079Y-28671613D01*
X149753044Y-28650543D01*
X149765026Y-28630552D01*
X149778910Y-28611832D01*
X149794562Y-28594562D01*
X149811832Y-28578910D01*
X149830552Y-28565026D01*
X149850543Y-28553044D01*
X149871613Y-28543079D01*
X149893557Y-28535227D01*
X149916166Y-28529563D01*
X149939221Y-28526144D01*
X149962500Y-28525000D01*
X150537500Y-28525000D01*
X150560779Y-28526144D01*
X150560779Y-28526144D01*
G37*
D12*
X150250000Y-29000000D03*
D10*
G36*
X152310779Y-28526144D02*
G01*
X152333834Y-28529563D01*
X152356443Y-28535227D01*
X152378387Y-28543079D01*
X152399457Y-28553044D01*
X152419448Y-28565026D01*
X152438168Y-28578910D01*
X152455438Y-28594562D01*
X152471090Y-28611832D01*
X152484974Y-28630552D01*
X152496956Y-28650543D01*
X152506921Y-28671613D01*
X152514773Y-28693557D01*
X152520437Y-28716166D01*
X152523856Y-28739221D01*
X152525000Y-28762500D01*
X152525000Y-29237500D01*
X152523856Y-29260779D01*
X152520437Y-29283834D01*
X152514773Y-29306443D01*
X152506921Y-29328387D01*
X152496956Y-29349457D01*
X152484974Y-29369448D01*
X152471090Y-29388168D01*
X152455438Y-29405438D01*
X152438168Y-29421090D01*
X152419448Y-29434974D01*
X152399457Y-29446956D01*
X152378387Y-29456921D01*
X152356443Y-29464773D01*
X152333834Y-29470437D01*
X152310779Y-29473856D01*
X152287500Y-29475000D01*
X151712500Y-29475000D01*
X151689221Y-29473856D01*
X151666166Y-29470437D01*
X151643557Y-29464773D01*
X151621613Y-29456921D01*
X151600543Y-29446956D01*
X151580552Y-29434974D01*
X151561832Y-29421090D01*
X151544562Y-29405438D01*
X151528910Y-29388168D01*
X151515026Y-29369448D01*
X151503044Y-29349457D01*
X151493079Y-29328387D01*
X151485227Y-29306443D01*
X151479563Y-29283834D01*
X151476144Y-29260779D01*
X151475000Y-29237500D01*
X151475000Y-28762500D01*
X151476144Y-28739221D01*
X151479563Y-28716166D01*
X151485227Y-28693557D01*
X151493079Y-28671613D01*
X151503044Y-28650543D01*
X151515026Y-28630552D01*
X151528910Y-28611832D01*
X151544562Y-28594562D01*
X151561832Y-28578910D01*
X151580552Y-28565026D01*
X151600543Y-28553044D01*
X151621613Y-28543079D01*
X151643557Y-28535227D01*
X151666166Y-28529563D01*
X151689221Y-28526144D01*
X151712500Y-28525000D01*
X152287500Y-28525000D01*
X152310779Y-28526144D01*
X152310779Y-28526144D01*
G37*
D12*
X152000000Y-29000000D03*
M02*
